<?xml version="1.0" encoding="UTF-8"?>
<svg version="1.1" xmlns="http://www.w3.org/2000/svg" width="2241" height="2140">
<path d="M0 0 C4.89947214 0.0105525 9.79892821 0.00314409 14.69840486 -0.00173247 C23.23871838 -0.00787995 31.77896846 -0.00315089 40.3192745 0.00918215 C53.01790647 0.02746856 65.71649939 0.02817296 78.41514213 0.02555619 C99.7878417 0.02163606 121.16051321 0.03155605 142.53320463 0.04960841 C163.66774788 0.06741351 184.80227942 0.0789171 205.93683012 0.08216685 C207.25526901 0.08237307 208.57370791 0.08257929 209.9320995 0.08279176 C215.28452759 0.08361111 220.6369557 0.08436783 225.98938381 0.08505361 C240.94420192 0.08697062 255.89901976 0.08984785 270.85383756 0.0933792 C271.53448638 0.09353915 272.21513519 0.0936991 272.91640973 0.0938639 C305.94274195 0.10170889 338.96906654 0.12062345 371.99539335 0.14048022 C383.44141787 0.14735585 394.88744241 0.15418223 406.33346708 0.16080493 C407.04345089 0.16121577 407.7534347 0.16162662 408.48493317 0.16204992 C441.55455308 0.1811188 474.6241743 0.19227072 507.69379827 0.20140931 C509.84344417 0.2020035 511.99309007 0.20260108 514.14273597 0.20319935 C528.38979128 0.20715905 542.63684662 0.21098294 556.88390198 0.21471593 C585.22659402 0.22214343 613.5692858 0.23036839 641.91197745 0.23914207 C643.26141423 0.23955979 644.61085102 0.23997695 645.9602878 0.24039356 C735.57762759 0.26806742 825.19495874 0.31572497 914.81228788 0.36679858 C913.85732018 1.81168966 912.9007037 3.2554911 911.9433914 4.69882983 C911.41085249 5.50296313 910.87831358 6.30709643 910.32963713 7.13559741 C908.60291973 9.67466605 906.73762769 12.02723364 904.74978788 14.36679858 C900.83648676 19.07066559 897.08161274 23.87368908 893.37478788 28.74179858 C892.81517362 29.47664477 892.25555937 30.21149096 891.6789871 30.96860522 C890.57069983 32.42510545 889.46278192 33.88188682 888.35525663 35.33896655 C882.2919132 43.30765809 876.15355033 51.21788921 869.99978788 59.11679858 C863.71539987 67.18439772 857.49582902 75.29997068 851.29226835 83.42978686 C847.47975249 88.41964183 843.64376608 93.39150226 839.81228788 98.36679858 C838.14533496 100.53324509 836.47881375 102.70002355 834.81228788 104.86679858 C833.97896241 105.95013796 833.14562909 107.0334713 832.31228788 108.11679858 C831.89978788 108.65304858 831.48728788 109.18929858 831.06228788 109.74179858 C829.81228788 111.36679858 828.56228788 112.99179858 827.31228788 114.61679858 C826.90011015 115.15264575 826.48793241 115.68849291 826.06326444 116.24057788 C825.22673878 117.32802859 824.39014985 118.41543064 823.55349882 119.50278491 C821.518495 122.14773645 819.48472255 124.79360969 817.45291288 127.44101733 C812.65853693 133.6846736 807.838177 139.90717925 802.99978788 146.11679858 C796.72309275 154.17439496 790.51057184 162.27956003 784.31424101 170.39902514 C781.983188 173.45303803 779.64984118 176.50525805 777.31228788 179.55429858 C776.55947538 180.53785327 775.80666288 181.52140795 775.03103788 182.53476733 C773.93275663 183.9366228 773.93275663 183.9366228 772.81228788 185.36679858 C772.08400864 186.39977861 771.3557294 187.43275864 770.60538109 188.49704109 C768.50621056 190.98855992 767.9631761 191.33150113 764.60946618 192.11603824 C762.77528346 192.11549936 762.77528346 192.11549936 760.90404655 192.11494958 C760.21672866 192.12293984 759.52941077 192.13093009 758.82126507 192.13916247 C756.50777257 192.15869298 754.19669555 192.1353313 751.88326319 192.11232299 C750.20506279 192.11755742 748.52686889 192.12542546 746.84869175 192.13569465 C742.21192956 192.15637709 737.57593332 192.13946391 732.93920848 192.11673086 C727.90391223 192.09862751 722.86871503 192.11526192 717.83341803 192.12759733 C708.99927415 192.14442673 700.16536022 192.13893643 691.33122595 192.11903208 C678.19322916 192.08955109 665.05540367 192.09437947 651.91738738 192.10648883 C629.81009996 192.12594738 607.70288729 192.11788582 585.59561117 192.09467906 C563.67574075 192.07179325 541.75592914 192.0626547 519.83604772 192.07142848 C519.15503816 192.07169658 518.47402859 192.07196469 517.77238237 192.07224091 C510.85742992 192.07498389 503.94247762 192.07801958 497.02752538 192.0812493 C482.25455002 192.08814236 467.48157413 192.0930768 452.70859773 192.09713477 C452.00413402 192.09733043 451.2996703 192.09752609 450.5738592 192.09772768 C417.03125721 192.10691241 383.48866685 192.09647587 349.94606749 192.08279391 C347.72016077 192.08188624 345.49425405 192.08098426 343.26834733 192.08008419 C340.29737763 192.07888281 337.32640794 192.07768021 334.35543824 192.07647622 C327.65904651 192.07376357 320.96265478 192.07105848 314.26626304 192.06837746 C312.77635127 192.06778054 311.28643951 192.0671821 309.79652774 192.06658216 C275.58570893 192.05282221 241.37489055 192.04625739 207.16406922 192.04303417 C204.94592334 192.04282402 202.72777745 192.04260596 200.50963157 192.04238672 C167.05860845 192.03912446 133.60758781 192.03949929 100.15656526 192.0468418 C98.73421233 192.04714998 97.3118594 192.04745812 95.88950647 192.04776623 C83.21803755 192.05052992 70.54656867 192.05344746 57.87509998 192.057133 C49.56233896 192.05954607 41.24957792 192.06175031 32.93681677 192.06361598 C32.25546827 192.06376937 31.57411978 192.06392276 30.87212436 192.0640808 C8.31391809 192.06900196 -14.24426237 192.06049397 -36.80246315 192.04502705 C-58.81791596 192.02994389 -80.83335439 192.02467828 -102.84881245 192.02954342 C-115.90761236 192.03203893 -128.96634465 192.02605098 -142.02513228 192.00774711 C-150.7755291 191.9962967 -159.52588359 191.99591522 -168.27628392 192.00406769 C-173.2445361 192.0083747 -178.21266196 192.0082225 -183.18089925 191.99426689 C-213.96845056 191.91266342 -244.55964258 193.13181048 -275.00021212 198.11679858 C-275.79336825 198.24274401 -276.58652437 198.36868945 -277.40371554 198.49845141 C-293.5103215 201.06202963 -309.37165586 204.37308026 -325.18771212 208.36679858 C-326.38476778 208.66811694 -327.58182345 208.9694353 -328.81515352 209.27988452 C-369.0137298 219.55376 -407.13496923 234.79487982 -444.18771212 253.36679858 C-445.09198946 253.81764819 -445.99626681 254.2684978 -446.92794649 254.73300952 C-481.0352467 271.84007747 -512.90371049 293.97025202 -542.18771212 318.36679858 C-542.95317354 319.00270922 -542.95317354 319.00270922 -543.73409884 319.65146655 C-551.17603138 325.84440342 -558.43285302 332.20704601 -565.51437227 338.81113452 C-567.36065151 340.5275762 -569.21751831 342.23218135 -571.07443087 343.93711108 C-579.0127648 351.25976877 -586.58158607 358.76803737 -593.78634493 366.81259936 C-595.19475216 368.3746064 -596.62110789 369.91792711 -598.05489962 371.45664233 C-603.30192995 377.09604986 -608.32696554 382.85600964 -613.11739962 388.89414233 C-615.36190964 391.57484958 -617.55439035 394.06108692 -620.18771212 396.36679858 C-624.00021212 396.17929858 -624.00021212 396.17929858 -627.18771212 395.36679858 C-628.90160769 388.76610334 -627.17466505 385.1612894 -624.00021212 379.30429858 C-623.54605929 378.43506762 -623.09190645 377.56583666 -622.62399141 376.67026538 C-621.16401843 373.8920234 -619.67710917 371.12935861 -618.18771212 368.36679858 C-617.24964114 366.59366304 -616.31213537 364.82022835 -615.37521212 363.04648608 C-597.82274988 330.10209644 -577.51417499 298.34059168 -554.44405977 268.9703142 C-553.13614285 267.30097911 -551.83908837 265.62359456 -550.54318087 263.94492358 C-541.94984578 252.85440642 -532.86601779 242.21523794 -523.41818087 231.84336108 C-521.54334124 229.76166524 -519.69811542 227.66008995 -517.85958712 225.54648608 C-509.19389178 215.62732061 -500.04374311 206.13406808 -490.75021212 196.80429858 C-490.11285128 196.16234545 -489.47549044 195.52039233 -488.81881563 194.85898608 C-485.03776725 191.09023139 -481.13598311 187.51935678 -477.09615938 184.03012866 C-474.29129772 181.58551787 -471.58856636 179.03685291 -468.87521212 176.49179858 C-464.05188788 172.00490401 -459.10615234 167.74390845 -453.96505587 163.62070483 C-451.53983481 161.65255778 -449.16991536 159.63377701 -446.81002657 157.58823413 C-437.65121536 149.6823265 -427.93244627 142.52829774 -418.18771212 135.36679858 C-417.39074923 134.78043627 -416.59378634 134.19407397 -415.77267306 133.58994311 C-405.75559938 126.23893927 -395.61674816 119.12108743 -385.18771212 112.36679858 C-384.50225313 111.92046069 -383.81679415 111.4741228 -383.11056368 111.01425952 C-359.94602985 95.97873214 -335.84346544 82.75749016 -311.18771212 70.36679858 C-310.22397677 69.87759936 -309.26024141 69.38840014 -308.26730196 68.8843767 C-238.55118968 33.64518749 -160.71485232 12.90715765 -59.53082125 1.74481505 C-58.68155311 1.68014931 -57.83228498 1.61548358 -56.95728144 1.54885827 C-37.96657464 0.13760671 -19.03459192 -0.05455135 0 0 Z " fill="#183D6E" transform="translate(985.1877121180296,346.6332014212385)"/>
<path d="M0 0 C24.47931178 -0.04683747 48.95861679 -0.08204622 73.43796444 -0.10362434 C84.80558208 -0.11391225 96.17317178 -0.12792477 107.54077148 -0.15087891 C117.45525923 -0.17088919 127.36972673 -0.18373448 137.28423411 -0.18817699 C142.52796948 -0.19077149 147.77164697 -0.19681723 153.01536369 -0.21146011 C157.96389546 -0.22516506 162.91234621 -0.2291969 167.86089516 -0.22621536 C169.66466082 -0.22675981 171.46842956 -0.23065957 173.27217865 -0.23841095 C208.68035842 -0.38294363 238.51080956 8.22280638 264.5625 33.1875 C284.28195688 53.40688677 294.48214409 81.07057173 295.4375 109.0625 C295.2348877 115.68460008 294.33600974 122.11178956 293.30859375 128.65234375 C293.13246552 129.78236816 292.95633728 130.91239258 292.77487183 132.07666016 C290.83283235 144.33996299 288.62832769 156.55227125 286.328125 168.75292969 C285.62063911 172.52323991 284.93141391 176.29662731 284.2421875 180.0703125 C281.17758687 196.55007267 277.95785086 213.17088623 269.625 227.9375 C269.2419873 228.63512451 268.85897461 229.33274902 268.46435547 230.05151367 C252.42254463 258.69571284 226.08783889 278.94721939 194.72265625 288.00390625 C180.81043878 291.7264828 166.93115488 292.14864543 152.60473633 292.11352539 C150.97751874 292.11324279 149.35030102 292.11340268 147.7230835 292.1139679 C143.33749976 292.11425302 138.95194377 292.10840258 134.56636643 292.10139394 C129.97130365 292.09511274 125.37624012 292.09455285 120.78117371 292.09336853 C112.09399717 292.09026921 103.40683333 292.08207479 94.71966237 292.07201904 C84.82358763 292.06081432 74.92751226 292.05533649 65.03143275 292.05032361 C44.68761477 292.03989092 24.34380819 292.02231873 4 292 C-1.33955904 281.4726544 -1.33955904 281.4726544 -3.16552734 276.84619141 C-3.51764282 275.9608371 -3.8697583 275.07548279 -4.23254395 274.16329956 C-4.59666382 273.23542633 -4.96078369 272.3075531 -5.3359375 271.3515625 C-5.73276733 270.35271027 -6.12959717 269.35385803 -6.53845215 268.32473755 C-7.8217692 265.09324077 -9.09908857 261.85942741 -10.375 258.625 C-17.78741434 239.80254767 -17.78741434 239.80254767 -25.71875 221.1953125 C-26.43198025 219.56827414 -27.14503927 217.94116069 -27.85791016 216.31396484 C-29.15551711 213.35641645 -30.49332371 210.42221131 -31.85693359 207.49462891 C-32.44535248 206.15861081 -33.03219989 204.82189907 -33.6171875 203.484375 C-34.12878418 202.36772461 -34.64038086 201.25107422 -35.16748047 200.10058594 C-38.16825232 190.05347124 -32.78897205 175.03800054 -30.8671875 164.78027344 C-30.55462165 163.09992015 -30.24231227 161.41951914 -29.93023682 159.73907471 C-29.08991071 155.2182209 -28.24599123 150.69804488 -27.4013443 146.17799664 C-26.51406185 141.42651834 -25.63003207 136.67443486 -24.74560547 131.92242432 C-23.26137645 123.95019967 -21.77500175 115.97837765 -20.28710938 108.00683594 C-18.19291464 96.78692438 -16.10289018 85.56623886 -14.01356125 74.34542036 C-12.56041121 66.54215967 -11.10620031 58.73909663 -9.65183258 50.93606281 C-9.30073726 49.05228244 -8.94967827 47.16849528 -8.5986557 45.28470135 C-7.59805726 39.91499156 -6.59679936 34.54540563 -5.59447479 29.17601776 C-5.29192866 27.55479027 -4.9895984 25.93352248 -4.68750763 24.31221008 C-3.17543043 16.19789375 -1.6542531 8.08684488 0 0 Z M61 73 C57.33930014 90.93060756 53.95625098 108.9022691 50.69921875 126.91015625 C50.21356383 129.58735592 49.72723268 132.26443263 49.24092102 134.94151306 C48.10599397 141.19127634 46.97330321 147.44144258 45.84148771 153.69177002 C44.54935857 160.82676004 43.25462685 167.96127707 41.95971429 175.09576237 C39.30365183 189.72999673 36.65073483 204.36479962 34 219 C51.26415993 219.07025641 68.52827488 219.12306932 85.79254532 219.15543652 C93.80966233 219.17086839 101.82669021 219.19188702 109.84375 219.22631836 C116.836008 219.25633397 123.82820142 219.27560171 130.82052207 219.28226548 C134.51875799 219.28615727 138.21680925 219.29522553 141.91498566 219.31719017 C146.0557098 219.34158099 150.1961182 219.34196225 154.33691406 219.34057617 C155.54676971 219.351362 156.75662537 219.36214783 158.00314331 219.3732605 C172.75748533 219.32007239 186.00786341 215.56391509 196.8984375 205.2890625 C207.28403949 193.97686405 210.27532134 179.98384886 213.015625 165.28515625 C213.27856296 163.89848085 213.54189743 162.51188058 213.80560303 161.12535095 C214.35231032 158.23962949 214.89268055 155.35281087 215.42871094 152.46508789 C216.10969314 148.80053716 216.80898832 145.13975668 217.51343155 141.47965336 C218.06059333 138.62326292 218.59659298 135.76485817 219.12957001 132.90579033 C219.50389506 130.91019083 219.88829158 128.91648868 220.27301025 126.92286682 C222.71373307 113.59279441 223.76025867 101.53422125 216.52734375 89.5625 C209.73690103 80.05909081 201.29070903 75.28654003 190 73 C185.62976854 72.61367652 181.29436383 72.61888614 176.90942383 72.65942383 C175.64960693 72.65898575 174.38979004 72.65854767 173.09179688 72.65809631 C169.67300354 72.6572436 166.25453282 72.67475025 162.83581376 72.69581819 C159.24974643 72.71470729 155.66366984 72.71634498 152.07756042 72.71989441 C145.30278171 72.72917925 138.52815006 72.75374417 131.75343579 72.78394288 C124.03388045 72.81759853 116.3143177 72.83400082 108.59470713 72.84902918 C92.7297199 72.8802974 76.86487899 72.9329877 61 73 Z " fill="#183D6E" transform="translate(873,732)"/>
<path d="M0 0 C1.94218661 0.00395281 3.88439412 0.00172495 5.8265686 -0.00619507 C11.08184807 -0.01020229 16.3326279 0.07192146 21.58686376 0.16984034 C27.08391515 0.25753567 32.58107714 0.26559595 38.07872009 0.28219604 C48.48108203 0.32566003 58.88137688 0.44047157 69.2828297 0.5810889 C81.12774391 0.73773401 92.97275842 0.8145873 104.81845105 0.88482499 C129.17820782 1.03104677 153.53613151 1.27719274 177.89428711 1.58935547 C176.66199474 5.39616895 175.41091429 8.72474001 173.31225586 12.13623047 C172.79920898 12.9719458 172.28616211 13.80766113 171.75756836 14.66870117 C170.92805664 15.99067505 170.92805664 15.99067505 170.08178711 17.33935547 C169.50428711 18.26385498 168.92678711 19.18835449 168.33178711 20.14086914 C159.31749409 34.4114629 149.24732812 47.80254989 138.42797852 60.74707031 C137.0101966 62.45012386 135.61258118 64.16767691 134.21850586 65.89013672 C127.70568232 73.82495852 120.5645156 81.12923048 113.33178711 88.40185547 C112.60720306 89.13434006 112.60720306 89.13434006 111.86798096 89.88162231 C105.22277216 96.58281659 98.2653516 102.69651514 90.89428711 108.58935547 C89.7926566 109.52436793 88.69632426 110.46571969 87.60913086 111.41748047 C64.63052672 131.45508183 38.18418471 147.38513944 10.81176758 160.65722656 C9.00213327 161.53692911 7.19990256 162.43181483 5.39819336 163.32763672 C-39.38497337 185.04522593 -89.63871453 195.7931455 -139.25974751 195.7124033 C-141.08265286 195.71314408 -142.90555808 195.71432387 -144.7284629 195.7158998 C-149.72922692 195.71895698 -154.72997048 195.71580356 -159.73073296 195.71162166 C-165.17423756 195.70817807 -170.61774014 195.71056005 -176.06124514 195.71219915 C-185.59860601 195.71427062 -195.13596063 195.71263298 -204.67332077 195.70856094 C-218.85500066 195.70252281 -233.03667662 195.70222543 -247.21835756 195.70310293 C-271.07486682 195.70450922 -294.93137341 195.70108381 -318.78788185 195.69508553 C-342.40926947 195.68916056 -366.03065594 195.68530993 -389.6520443 195.68423271 C-390.38597225 195.6841983 -391.1199002 195.68416389 -391.87606839 195.68412843 C-398.57949271 195.68381523 -405.28291703 195.68352754 -411.98634135 195.68327046 C-428.64937299 195.68263111 -445.3124046 195.68167182 -461.97543621 195.68049526 C-462.73418527 195.68044194 -463.49293433 195.68038863 -464.27467579 195.68033369 C-501.17221267 195.67771296 -538.06974881 195.67140573 -574.96728516 195.66479492 C-587.76955159 195.66250324 -600.57181802 195.66022786 -613.37408447 195.65802002 C-614.5651015 195.6578146 -614.5651015 195.6578146 -615.78017949 195.65760502 C-652.70047845 195.65125946 -689.62077754 195.64753487 -726.54107691 195.64448522 C-728.93834201 195.64428716 -731.3356071 195.64408797 -733.7328722 195.64388855 C-749.61984106 195.64256875 -765.50680992 195.6412941 -781.39377878 195.64004969 C-813.00417089 195.63757327 -844.61456297 195.63483159 -876.22495504 195.63190764 C-877.73028153 195.6317684 -879.23560803 195.63162934 -880.74093452 195.63149048 C-963.11476425 195.62388951 -1045.48859319 195.61157979 -1181.10571289 195.58935547 C-1179.6624782 190.85146382 -1177.73344556 186.60077396 -1175.48071289 182.21435547 C-1175.15586914 181.57369141 -1174.83102539 180.93302734 -1174.49633789 180.27294922 C-1173.70313882 178.70988046 -1172.90494258 177.14934925 -1172.10571289 175.58935547 C-1171.36048858 175.58895529 -1170.61526427 175.5885551 -1169.84745741 175.58814279 C-1088.66665535 175.54444334 -1007.4858558 175.49703283 -926.30506897 175.43037415 C-925.0913355 175.42937858 -923.87760204 175.42838301 -922.62708877 175.42735728 C-896.24581079 175.4056959 -869.86453341 175.383373 -843.48325657 175.36036919 C-830.54482741 175.34909123 -817.60639811 175.33795936 -804.66796875 175.3269043 C-803.38047819 175.32580173 -802.09298764 175.32469917 -800.76648222 175.32356319 C-759.07760503 175.28793059 -717.38872864 175.26193448 -675.69984171 175.24096578 C-632.83891196 175.21935645 -589.97800014 175.18796507 -547.11708685 175.14436434 C-541.0554451 175.1382026 -534.99380325 175.13215204 -528.93216133 175.1261692 C-527.73920943 175.12498832 -526.54625753 175.12380744 -525.31715557 175.12259078 C-506.15755715 175.10391038 -486.9979674 175.09546187 -467.83836099 175.09089423 C-448.55007583 175.08607557 -429.26182351 175.0703476 -409.97355597 175.04368981 C-398.53119808 175.02820158 -387.08890506 175.02087181 -375.64653728 175.02558618 C-367.97980073 175.02791656 -360.31312496 175.01923716 -352.64640756 175.00203136 C-348.29291541 174.99256378 -343.93955761 174.98747628 -339.58606028 174.99595984 C-313.31754655 175.04236788 -287.04475004 174.22948663 -261.23071289 168.83935547 C-259.9608252 168.58259033 -258.6909375 168.3258252 -257.38256836 168.0612793 C-229.21062164 162.20020291 -202.04340591 153.04278014 -176.10571289 140.58935547 C-175.27201172 140.19103516 -174.43831055 139.79271484 -173.5793457 139.38232422 C-141.7720688 124.09153105 -111.55287964 104.23697138 -85.75805664 80.05810547 C-83.64295439 78.08940941 -81.50117937 76.20069495 -79.29321289 74.33935547 C-69.91255994 66.20025953 -61.06559973 57.1157189 -53.10571289 47.58935547 C-52.32583008 46.69861328 -51.54594727 45.80787109 -50.74243164 44.89013672 C-45.19634003 38.52433974 -40.00586468 31.93639003 -34.98071289 25.15185547 C-34.4314917 24.41410889 -33.88227051 23.6763623 -33.31640625 22.91625977 C-32.76992432 22.17029541 -32.22344238 21.42433105 -31.66040039 20.65576172 C-30.83853194 19.55517772 -30.83853194 19.55517772 -30.00006008 18.4323597 C-27.99024471 15.56823381 -27.99024471 15.56823381 -26.46151066 12.08796501 C-20.40190939 -0.41458047 -12.96002036 -0.36940154 0 0 Z " fill="#183D6E" transform="translate(1536.105712890625,1021.41064453125)"/>
<path d="M0 0 C1.55214635 -0.01735805 3.104877 -0.00151096 4.65655518 0.04037476 C5.93027229 0.03906052 5.93027229 0.03906052 7.22972107 0.03771973 C10.03342031 0.04189639 12.8347199 0.08855007 15.63800049 0.1355896 C17.58283176 0.14678151 19.52767995 0.15532172 21.47253418 0.16131592 C26.58905825 0.18421467 31.70455879 0.24314717 36.82067871 0.30953979 C42.0421972 0.37093962 47.26388123 0.39832603 52.48565674 0.42855835 C62.72959579 0.49288918 72.9727755 0.59528158 83.21612549 0.7215271 C83.85253275 1.9807354 84.48735344 3.24074562 85.121521 4.50108337 C85.47521004 5.20266351 85.82889908 5.90424364 86.19330597 6.62708378 C87.67103141 9.65304498 88.93076528 12.74932682 90.18487549 15.87387085 C90.45724533 16.54928421 90.72961517 17.22469757 91.01023865 17.920578 C91.60245137 19.38999333 92.19319757 20.86000039 92.78262329 22.33053589 C94.43701651 26.45718934 96.10310214 30.57913019 97.76690674 34.70199585 C98.12315628 35.58569855 98.47940582 36.46940125 98.84645081 37.37988281 C103.16626807 48.09038006 107.53571496 58.78057635 111.90362549 69.4715271 C112.75669218 71.56037822 113.60971921 73.64924553 114.46270752 75.73812866 C116.18971311 79.96721753 117.91693677 84.19621724 119.64434814 88.42514038 C123.79467413 98.5858643 127.94311407 108.7473581 132.09112549 118.9090271 C132.70436172 120.41124817 132.70436172 120.41124817 133.32998657 121.94381714 C139.96587224 138.20013393 146.59265217 154.46014958 153.21612549 170.7215271 C159.87970614 187.08105767 166.54576989 203.43956737 173.22064209 219.79449463 C174.45221379 222.81243676 175.68330916 225.83057287 176.91436768 228.84872437 C180.64990549 238.00435592 184.39213408 247.15713187 188.1541748 256.3019104 C189.85433002 260.43472315 191.55223363 264.5684596 193.25018311 268.70217896 C194.4423175 271.60113241 195.63825336 274.49849815 196.83428955 277.39584351 C197.55030227 279.13844024 198.26613327 280.88111166 198.98175049 282.62387085 C199.31191162 283.42025467 199.64207275 284.21663849 199.98223877 285.03715515 C202.21612549 290.49397101 202.21612549 290.49397101 202.21612549 292.7215271 C175.48612549 292.7215271 148.75612549 292.7215271 121.21612549 292.7215271 C116.7162962 283.72186851 116.7162962 283.72186851 115.09161377 279.71322632 C114.72159241 278.80485519 114.35157104 277.89648407 113.97033691 276.96058655 C113.38430695 275.50807243 113.38430695 275.50807243 112.78643799 274.0262146 C112.36384705 272.98636917 111.9412561 271.94652374 111.50585938 270.87516785 C110.11467823 267.45013795 108.72794383 264.02332556 107.34112549 260.5965271 C106.35855593 258.17557178 105.37563981 255.75475709 104.39239502 253.33407593 C102.60645132 248.93675993 100.82151414 244.53903818 99.03792381 240.1407671 C94.523747 229.00932164 89.99154456 217.885234 85.4576416 206.7618103 C84.08434441 203.39238955 82.71145551 200.02280271 81.33868408 196.65316772 C72.38812295 174.68364476 63.42664134 152.71858611 54.45605469 130.75723267 C53.17555144 127.62219008 51.89528996 124.48704883 50.61505127 121.35189819 C48.48986811 116.14788282 46.36377606 110.94423963 44.23699951 105.74087524 C43.43718033 103.78374622 42.63761601 101.82651302 41.83831787 99.86917114 C40.74234314 97.18553639 39.6453857 94.5023055 38.54815674 91.81918335 C38.22315689 91.02279953 37.89815704 90.22641571 37.56330872 89.40589905 C35.98586053 85.52080016 35.98586053 85.52080016 34.21612549 81.7215271 C33.75725952 82.45133789 33.75725952 82.45133789 33.28912354 83.19589233 C27.46101328 92.45945169 21.60552596 101.70272459 15.64459229 110.88143921 C11.47319858 117.30991147 7.34322571 123.76454998 3.21612549 130.2215271 C-1.30640644 137.2966246 -5.83850658 144.36472844 -10.40887451 151.4090271 C-16.92031783 161.47904991 -23.34574891 171.60447258 -29.78387451 181.7215271 C3.87612549 181.7215271 37.53612549 181.7215271 72.21612549 181.7215271 C70.76508387 186.07465195 69.85288647 188.6434198 67.48565674 192.2762146 C66.66303345 193.55178223 66.66303345 193.55178223 65.8237915 194.8531189 C65.23138672 195.7584436 64.63898193 196.66376831 64.02862549 197.5965271 C62.76199603 199.55811845 61.4964085 201.52038291 60.23175049 203.48324585 C59.57368408 204.50208862 58.91561768 205.5209314 58.23760986 206.57064819 C54.86980951 211.82002396 51.57488564 217.11454185 48.27862549 222.4090271 C44.64813927 228.23861458 41.01073555 234.06345543 37.33721924 239.86605835 C36.76286133 240.77331665 36.18850342 241.68057495 35.59674072 242.61532593 C34.21612549 244.7215271 34.21612549 244.7215271 33.21612549 245.7215271 C31.83736523 245.816919 30.45375633 245.84341332 29.07170105 245.84178162 C28.17842606 245.84315628 27.28515106 245.84453094 26.36480713 245.84594727 C25.37722412 245.84235199 24.38964111 245.83875671 23.37213135 245.83505249 C21.82109459 245.83527153 21.82109459 245.83527153 20.23872375 245.835495 C16.80278463 245.83479537 13.36689895 245.82700068 9.93096924 245.81918335 C7.55585256 245.81731935 5.18073549 245.81589536 2.80561829 245.81489563 C-3.45963596 245.81106907 -9.72486718 245.8012376 -15.9901123 245.79019165 C-22.37774341 245.7799805 -28.76537823 245.77539865 -35.15301514 245.77035522 C-47.69664477 245.75961546 -60.24025842 245.74272837 -72.78387451 245.7215271 C-73.09039948 246.50506561 -73.39692444 247.28860413 -73.71273804 248.09588623 C-74.6950118 250.50370093 -75.78319139 252.51511449 -77.18231201 254.6980896 C-77.65612305 255.44244263 -78.12993408 256.18679565 -78.61810303 256.95370483 C-79.12655762 257.74333618 -79.63501221 258.53296753 -80.15887451 259.3465271 C-81.2384869 261.03781508 -82.31790816 262.72922507 -83.39715576 264.42074585 C-84.23174316 265.72471313 -84.23174316 265.72471313 -85.08319092 267.05502319 C-86.77940923 269.71452599 -88.46183246 272.38222194 -90.13934326 275.05355835 C-90.67704346 275.90933472 -91.21474365 276.76511108 -91.76873779 277.64682007 C-92.80052926 279.28983062 -93.83148826 280.93336432 -94.86151123 282.57748413 C-95.33218018 283.32497925 -95.80284912 284.07247437 -96.28778076 284.84262085 C-96.69842773 285.4967395 -97.10907471 286.15085815 -97.53216553 286.82479858 C-97.94522949 287.45071899 -98.35829346 288.0766394 -98.78387451 288.7215271 C-99.1310553 289.41128128 -99.47823608 290.10103546 -99.8359375 290.81169128 C-102.35509598 293.28157561 -104.30933006 293.19385944 -107.74172974 293.21920776 C-108.95984848 293.19763611 -108.95984848 293.19763611 -110.20257568 293.17562866 C-111.49070412 293.17650482 -111.49070412 293.17650482 -112.80485535 293.17739868 C-115.64592789 293.1746099 -118.48595381 293.14348077 -121.32684326 293.1121521 C-123.29553148 293.10469253 -125.26422712 293.09899826 -127.23292542 293.09500122 C-132.41660025 293.07972257 -137.59982736 293.04042143 -142.7833252 292.9961853 C-148.07185814 292.95528075 -153.36046338 292.9370005 -158.64910889 292.9168396 C-169.0275609 292.87392943 -179.40568049 292.80565103 -189.78387451 292.7215271 C-189.09075483 289.7529968 -188.2321294 287.52480303 -186.63153076 284.92074585 C-185.96963745 283.83841675 -185.96963745 283.83841675 -185.29437256 282.73422241 C-184.8165332 281.96690796 -184.33869385 281.19959351 -183.84637451 280.4090271 C-183.34984375 279.60432983 -182.85331299 278.79963257 -182.34173584 277.97055054 C-178.92470087 272.46632428 -175.39046726 267.05270425 -171.76434326 261.68466187 C-168.02581632 256.13437605 -164.42961169 250.49803873 -160.84637451 244.8465271 C-156.72710803 238.34976403 -152.59832185 231.86079185 -148.40887451 225.4090271 C-143.83676689 218.3659043 -139.30644584 211.29655034 -134.78387451 204.2215271 C-129.88012789 196.55078864 -124.96182748 188.89029864 -120.00653076 181.2527771 C-115.90613604 174.92575853 -111.84485284 168.57389544 -107.78387451 162.2215271 C-102.88009454 154.55080983 -97.96182761 146.89029884 -93.00653076 139.2527771 C-88.90613604 132.92575853 -84.84485284 126.57389544 -80.78387451 120.2215271 C-75.88009454 112.55080983 -70.96182761 104.89029884 -66.00653076 97.2527771 C-61.90613604 90.92575853 -57.84485284 84.57389544 -53.78387451 78.2215271 C-48.88009454 70.55080983 -43.96182761 62.89029884 -39.00653076 55.2527771 C-34.90613581 48.92575818 -30.8449022 42.57386424 -26.78387451 36.2215271 C-22.04886521 28.81595916 -17.3084706 21.41415069 -12.53387451 14.0340271 C-11.88998779 13.03822632 -11.88998779 13.03822632 -11.23309326 12.02230835 C-10.08675941 10.2530471 -8.9400003 8.48440897 -7.78387451 6.7215271 C-7.01756714 5.20052147 -7.01756714 5.20052147 -6.23577881 3.64878845 C-3.78387451 0.7215271 -3.78387451 0.7215271 0 0 Z " fill="#183D6E" transform="translate(651.7838745117188,731.2784729003906)"/>
<path d="M0 0 C28.38 0 56.76 0 86 0 C104.21039216 43.24968137 104.21039216 43.24968137 110.66952515 59.1812439 C112.73514942 64.27539887 114.80920556 69.36612158 116.8828125 74.45703125 C117.30396835 75.49132767 117.72512421 76.52562408 118.15904236 77.59126282 C123.91237608 91.70896493 129.74699563 105.79313949 135.57847595 119.87869263 C137.01180077 123.34267303 138.44262848 126.80768154 139.87298584 130.27288818 C140.6659866 132.19176536 141.46042928 134.11004696 142.25592041 136.02789307 C143.52414277 139.08626536 144.78784296 142.14647379 146.05078125 145.20703125 C146.64369209 146.63253548 146.64369209 146.63253548 147.24858093 148.08683777 C147.78936028 149.40087334 147.78936028 149.40087334 148.34106445 150.74145508 C148.66202591 151.51701248 148.98298737 152.29256989 149.31367493 153.09162903 C150 155 150 155 150 157 C153.8520095 153.28780935 157.24478932 149.38018097 160.5625 145.1875 C161.08279785 144.53370361 161.6030957 143.87990723 162.13916016 143.20629883 C166.30611448 137.94149061 170.3455246 132.58714836 174.35327148 127.20068359 C179.9177381 119.7338892 185.65968599 112.40736326 191.38964844 105.06738281 C193.68822269 102.11645395 195.97152912 99.15396548 198.25 96.1875 C199.0440625 95.15367187 199.838125 94.11984375 200.65625 93.0546875 C201.4296875 92.04664063 202.203125 91.03859375 203 90 C208.57835633 82.72954225 214.18009579 75.47866335 219.8125 68.25 C226.09694941 60.1824492 232.31645938 52.06682722 238.52001953 43.93701172 C242.33253539 38.94715675 246.1685218 33.97529632 250 29 C252.07822049 26.29905178 254.15602604 23.59778438 256.2331543 20.89599609 C258.41288957 18.06117738 260.59521841 15.22840457 262.78125 12.3984375 C263.23628906 11.80869141 263.69132812 11.21894531 264.16015625 10.61132812 C265.03175546 9.48180671 265.90411121 8.35286854 266.77734375 7.22460938 C268.60231357 4.85813212 270.34117596 2.48823606 272 0 C275.05018899 -0.28603461 277.89638302 -0.37792773 280.94775391 -0.34057617 C282.33807579 -0.34123329 282.33807579 -0.34123329 283.75648499 -0.34190369 C286.83005606 -0.33980825 289.90308634 -0.31644162 292.9765625 -0.29296875 C295.10362449 -0.28737548 297.23069034 -0.28310412 299.35775757 -0.28010559 C304.96385313 -0.26863565 310.56971655 -0.23914995 316.17572021 -0.20599365 C321.89315653 -0.17533906 327.61063025 -0.16161012 333.328125 -0.14648438 C344.55218548 -0.11428234 355.77607346 -0.06306005 367 0 C365.52040092 3.90300364 363.91489667 6.57225397 361.1875 9.75 C357.17959053 14.53113959 353.33894511 19.4090798 349.5625 24.375 C348.7279126 25.47134766 348.7279126 25.47134766 347.87646484 26.58984375 C346.77078242 28.04300793 345.66546957 29.49645339 344.56054688 30.95019531 C342.32140663 33.89134386 340.06835443 36.82166255 337.8125 39.75 C337.01457031 40.78640625 336.21664063 41.8228125 335.39453125 42.890625 C334.60433594 43.91671875 333.81414062 44.9428125 333 46 C331.33304708 48.16644651 329.66652587 50.33322497 328 52.5 C327.16667453 53.58333938 326.3333412 54.66667272 325.5 55.75 C325.0875 56.28625 324.675 56.8225 324.25 57.375 C323 59 321.75 60.625 320.5 62.25 C320.08782227 62.78584717 319.67564453 63.32169434 319.25097656 63.8737793 C318.4144509 64.96123001 317.57786197 66.04863207 316.74121094 67.13598633 C314.70620712 69.78093787 312.67243467 72.42681112 310.640625 75.07421875 C305.84624905 81.31787502 301.02588912 87.54038067 296.1875 93.75 C289.90305059 101.8175508 283.68354062 109.93317278 277.47998047 118.06298828 C273.66746461 123.05284325 269.8314782 128.02470368 266 133 C264.33304708 135.16644651 262.66652587 137.33322497 261 139.5 C260.16667453 140.58333938 259.3333412 141.66667272 258.5 142.75 C258.0875 143.28625 257.675 143.8225 257.25 144.375 C252.66666667 150.33333333 248.08333333 156.29166667 243.5 162.25 C243.08782227 162.78584717 242.67564453 163.32169434 242.25097656 163.8737793 C241.4144509 164.96123001 240.57786197 166.04863207 239.74121094 167.13598633 C237.70620712 169.78093787 235.67243467 172.42681112 233.640625 175.07421875 C228.84624905 181.31787502 224.02588912 187.54038067 219.1875 193.75 C212.90305059 201.8175508 206.68354062 209.93317278 200.47998047 218.06298828 C196.66746461 223.05284325 192.8314782 228.02470368 189 233 C187.33304708 235.16644651 185.66652587 237.33322497 184 239.5 C183.16667453 240.58333938 182.3333412 241.66667272 181.5 242.75 C181.0875 243.28625 180.675 243.8225 180.25 244.375 C166.5 262.25 166.5 262.25 165.2487793 263.87646484 C164.4193575 264.95479426 163.59009198 266.03324389 162.76098633 267.11181641 C160.61910264 269.89773945 158.47416226 272.68122833 156.32421875 275.4609375 C155.88271484 276.03263672 155.44121094 276.60433594 154.98632812 277.19335938 C153.76645366 278.77277579 152.54537763 280.35126395 151.32421875 281.9296875 C149.10275376 284.71158449 149.10275376 284.71158449 148.00581837 286.80314732 C146.39472241 289.57079249 145.16795327 291.62427113 142.03015709 292.6336956 C139.56485185 292.86291643 137.18676449 292.86624777 134.71166992 292.79467773 C133.78435059 292.79569992 132.85703125 292.79672211 131.90161133 292.79777527 C128.84338807 292.79290702 125.78816879 292.73850199 122.73046875 292.68359375 C120.60770804 292.67053484 118.4849262 292.66057206 116.36213684 292.65357971 C110.78025868 292.6268775 105.19965959 292.55813492 99.61828613 292.48065186 C93.92083032 292.40899021 88.22316741 292.37706187 82.52539062 292.34179688 C71.34969904 292.26676734 60.17495596 292.14732587 49 292 C50.70848914 287.38595369 53.19159491 284.00404564 56.3125 280.25 C57.40137212 278.91539279 58.48855004 277.57940191 59.57421875 276.2421875 C60.41992432 275.20143066 60.41992432 275.20143066 61.28271484 274.13964844 C64.12494915 270.59837157 66.87614228 266.98895143 69.625 263.375 C70.16979004 262.65957031 70.71458008 261.94414063 71.27587891 261.20703125 C72.34685837 259.80006453 73.41750507 258.39284443 74.48779297 256.98535156 C76.71133935 254.06609435 78.94824333 251.15721424 81.1875 248.25 C82.38439453 246.69539063 82.38439453 246.69539063 83.60546875 245.109375 C84.79076172 243.57023437 84.79076172 243.57023437 86 242 C87.66695292 239.83355349 89.33347413 237.66677503 91 235.5 C91.83332547 234.41666062 92.6666588 233.33332728 93.5 232.25 C93.9125 231.71375 94.325 231.1775 94.75 230.625 C118.5 199.75 118.5 199.75 119.75170898 198.12280273 C120.57937721 197.04681785 121.40701428 195.97080901 122.23461914 194.89477539 C124.40436481 192.07380651 126.57475903 189.25333975 128.74609375 186.43359375 C129.19662109 185.84835937 129.64714844 185.263125 130.11132812 184.66015625 C131.36442113 183.0324272 132.61775014 181.40487984 133.87109375 179.77734375 C135.59464158 177.52882539 137.30014039 175.26647948 139 173 C104.845 172.505 104.845 172.505 70 172 C61.6313166 151.98079658 53.31961532 131.94222011 45.11871338 111.85388184 C39.67242977 98.51434495 34.19618035 85.18766136 28.68850708 71.87335205 C22.11971671 55.99254865 15.55654726 40.10935354 9.02929688 24.21142578 C8.22243615 22.24769773 7.4143438 20.28447525 6.60498047 18.32177734 C5.48984421 15.61690954 4.37911082 12.91027604 3.26953125 10.203125 C2.93617264 9.39715881 2.60281403 8.59119263 2.25935364 7.76080322 C0 2.22840163 0 2.22840163 0 0 Z " fill="#183D6E" transform="translate(1150,732)"/>
<path d="M0 0 C83.91217565 0 83.91217565 0 104 16 C104.63550781 16.47050781 105.27101563 16.94101563 105.92578125 17.42578125 C118.8859794 27.52579774 126.43799075 43.69756351 128.47265625 59.72265625 C130.23191258 78.32736315 126.72859411 97.03371355 115 112 C100.5210557 128.84802986 85.07048759 135.10520807 63 139 C42.21 139 21.42 139 0 139 C0 93.13 0 47.26 0 0 Z M27 25 C27 54.04 27 83.08 27 113 C60.90345752 114.96267518 60.90345752 114.96267518 88 101 C96.93416023 91.74405857 100.30269951 80.22844355 100.31469727 67.70678711 C100.09550662 55.46453586 95.39565339 45.93765792 87.15625 37 C70.83480374 21.48124782 48.1267494 25 27 25 Z " fill="#183D6E" transform="translate(358,1656)"/>
<path d="M0 0 C2.51171875 2.3515625 2.51171875 2.3515625 4.3125 4.375 C4.3125 5.035 4.3125 5.695 4.3125 6.375 C4.9725 6.375 5.6325 6.375 6.3125 6.375 C6.57804688 5.776875 6.84359375 5.17875 7.1171875 4.5625 C10.8042753 -2.18511165 18.60973603 -6.22401556 25.73828125 -8.34765625 C37.92893999 -11.07475176 50.41761369 -9.85751585 61.3125 -3.625 C69.85267961 2.48122842 76.73744018 10.58229112 78.85520935 21.06008911 C79.3530915 24.66924873 79.43232902 28.11382356 79.42602539 31.75732422 C79.42617142 32.47021103 79.42631744 33.18309784 79.4264679 33.91758728 C79.42577572 36.25498585 79.41801612 38.59230299 79.41015625 40.9296875 C79.4082896 42.55778968 79.40686686 44.18589242 79.40586853 45.81399536 C79.40206282 50.08501759 79.39224926 54.35600545 79.38116455 58.62701416 C79.37090848 62.99092138 79.36636194 67.35483419 79.36132812 71.71875 C79.35062515 80.27085081 79.33304422 88.82291716 79.3125 97.375 C70.7325 97.375 62.1525 97.375 53.3125 97.375 C53.3031543 95.38726563 53.29380859 93.39953125 53.28417969 91.3515625 C53.24856444 84.76163179 53.19471085 78.17204434 53.12859726 71.58235168 C53.08919824 67.58955312 53.05697298 63.59697258 53.04150391 59.60400391 C53.02628687 55.74578418 52.99175344 51.88816416 52.94419098 48.0302124 C52.92942884 46.56318392 52.92146196 45.09606979 52.92061615 43.62896729 C52.96796624 31.01960267 52.96796624 31.01960267 46.49609375 20.53515625 C45.91988281 20.17292969 45.34367188 19.81070312 44.75 19.4375 C44.17121094 19.05722656 43.59242188 18.67695312 42.99609375 18.28515625 C38.30766577 15.75057686 33.49500306 15.82906867 28.3125 16.375 C22.38462684 18.16977128 18.79550537 21.35537461 15.3125 26.375 C13.37343589 30.34285786 13.04409177 33.60458376 12.99365234 38.0012207 C12.98360672 38.64568649 12.9735611 39.29015228 12.96321106 39.95414734 C12.93249064 42.06968348 12.91537552 44.18509372 12.8984375 46.30078125 C12.87971683 47.77338231 12.86014274 49.24597275 12.8397522 50.71855164 C12.78851977 54.58344242 12.74884672 58.44836795 12.71160889 62.31341553 C12.6715133 66.26176485 12.62044636 70.20997076 12.5703125 74.15820312 C12.47365847 81.89704428 12.39023502 89.63594144 12.3125 97.375 C3.7325 97.375 -4.8475 97.375 -13.6875 97.375 C-13.70208252 95.37679199 -13.71666504 93.37858398 -13.73168945 91.31982422 C-13.78210389 84.70597078 -13.84871091 78.09235108 -13.92321491 71.47872734 C-13.96787715 67.47021381 -14.00714218 63.46180095 -14.03393555 59.453125 C-14.06001025 55.58202626 -14.1004415 51.71131573 -14.15068626 47.84045792 C-14.16732694 46.36619025 -14.17885864 44.89185548 -14.18511391 43.41750717 C-14.194786 41.34677515 -14.2228794 39.27703 -14.25512695 37.20654297 C-14.26623001 36.02961884 -14.27733307 34.8526947 -14.28877258 33.6401062 C-15.04452474 27.45138945 -17.98609111 23.32845747 -22.6875 19.375 C-28.00930679 16.40706929 -32.71416218 15.37458733 -38.6875 16.375 C-45.50328425 18.47763389 -49.2399219 21.21445356 -52.61062622 27.48118591 C-54.80668053 33.38250231 -54.4140038 39.69416054 -54.39453125 45.91015625 C-54.40766784 47.39947005 -54.42297805 48.88876612 -54.44035339 50.3780365 C-54.47998806 54.26933303 -54.49037975 58.16016123 -54.49438477 62.05163574 C-54.50375723 66.03391534 -54.54119612 70.01592441 -54.57617188 73.99804688 C-54.64052825 81.79041522 -54.67134911 89.58235531 -54.6875 97.375 C-63.2675 97.375 -71.8475 97.375 -80.6875 97.375 C-80.6875 63.055 -80.6875 28.735 -80.6875 -6.625 C-72.1075 -6.625 -63.5275 -6.625 -54.6875 -6.625 C-54.3575 -3.985 -54.0275 -1.345 -53.6875 1.375 C-52.73875 0.4675 -51.79 -0.44 -50.8125 -1.375 C-36.53891301 -13.59712003 -13.74395787 -12.00665983 0 0 Z " fill="#183D6E" transform="translate(702.6875,1697.625)"/>
<path d="M0 0 C8.25 0 16.5 0 25 0 C25 17.16 25 34.32 25 52 C28.3 50.02 31.6 48.04 35 46 C49.01700995 40.6514041 62.87590828 40.48781822 76.91796875 46.18359375 C89.95467746 52.67436691 98.60017391 63.66642658 103.3125 77.25 C108.2775468 92.75267777 107.1444184 109.55166993 100.4921875 124.35546875 C93.72949229 136.76422811 83.18143263 146.41886084 69.46484375 150.46875 C55.85380997 153.40234841 42.10154227 152.16152164 30.1171875 144.8515625 C28.72119398 143.93605047 27.35610877 142.97361655 26 142 C25.67 144.31 25.34 146.62 25 149 C16.75 149 8.5 149 0 149 C0 99.83 0 50.66 0 0 Z M32 77 C25.99483277 85.59017299 24.70598438 93.68192812 26 104 C27.68574135 111.71070582 31.69925333 117.29341815 38 122 C44.98439111 125.98144034 51.72787708 127.37075196 59.5390625 125.33984375 C68.54495777 122.19730326 73.86423366 116.43060062 78 108 C80.71520902 99.6356984 79.81611602 89.90949654 76.12890625 82.046875 C72.62299535 75.6901369 67.7281899 71.77936336 61.25 68.6875 C50.12377915 66.33387636 39.58895184 68.08430832 32 77 Z " fill="#183D6E" transform="translate(786,1410)"/>
<path d="M0 0 C7.59 0 15.18 0 23 0 C27.56643895 9.63896731 31.89848577 19.32375886 35.99401855 29.17047119 C37.6999252 33.26948079 39.41806013 37.36335519 41.13671875 41.45703125 C41.51232941 42.35178162 41.88794006 43.24653198 42.27493286 44.168396 C47.53668868 56.68085486 52.89734083 69.15123821 58.25 81.625 C58.7450705 82.778862 59.24014099 83.932724 59.75021362 85.12155151 C60.72917376 87.4030049 61.70826346 89.6844027 62.68748474 91.96574402 C63.65036575 94.20925789 64.61290462 96.45291863 65.5750885 98.69673157 C67.88997563 104.09336806 70.20933213 109.48797646 72.54195023 114.87697029 C73.66938384 117.48281426 74.79408082 120.08983473 75.9184494 122.69700241 C76.45910879 123.94867352 77.0010702 125.19978309 77.54438019 126.45030594 C78.29554065 128.1794887 79.04193294 129.91074044 79.78808594 131.64208984 C80.21603455 132.63042816 80.64398315 133.61876648 81.0848999 134.63705444 C82 137 82 137 82 139 C72.43 139 62.86 139 53 139 C51.35 135.266875 49.7 131.53375 48 127.6875 C47.47792969 126.51405029 46.95585937 125.34060059 46.41796875 124.1315918 C46.01191406 123.20515869 45.60585938 122.27872559 45.1875 121.32421875 C44.55908203 119.9024231 44.55908203 119.9024231 43.91796875 118.4519043 C43 116 43 116 43 113 C22.54 113.33 2.08 113.66 -19 114 C-22.3 121.92 -25.6 129.84 -29 138 C-30 139 -30 139 -32.68383789 139.11352539 C-33.85164795 139.10828857 -35.01945801 139.10305176 -36.22265625 139.09765625 C-37.48271484 139.09443359 -38.74277344 139.09121094 -40.04101562 139.08789062 C-41.38151109 139.07953403 -42.72200588 139.07106907 -44.0625 139.0625 C-45.40689942 139.0574866 -46.7513006 139.05292342 -48.09570312 139.04882812 C-51.39717941 139.03699488 -54.69856803 139.02050971 -58 139 C-57.42707367 132.86464446 -54.89916821 127.64266077 -52.4609375 122.0625 C-51.99190002 120.97416367 -51.52286255 119.88582733 -51.03961182 118.76451111 C-49.75794737 115.79325733 -48.47057486 112.82455583 -47.1808548 109.85679245 C-45.82566193 106.73425488 -44.47810946 103.60842663 -43.13037109 100.48266602 C-42.57829176 99.20246276 -42.02619816 97.92226566 -41.47409058 96.64207458 C-41.19831051 96.00259825 -40.92253044 95.36312191 -40.6383934 94.7042675 C-39.79095141 92.74017734 -38.9426072 90.77647911 -38.09402466 88.81288147 C-31.74071477 74.10781625 -25.47865299 59.36424172 -19.21600342 44.62036133 C-12.88307739 29.71466161 -6.47455589 14.84481508 0 0 Z M11 40 C8.45079421 46.0489239 5.90608756 52.09972587 3.36450195 58.15185547 C2.49932715 60.21055944 1.63312278 62.26883105 0.76586914 64.32666016 C-0.48041279 67.28435042 -1.72298567 70.24357504 -2.96484375 73.203125 C-3.35341049 74.12305237 -3.74197723 75.04297974 -4.14231873 75.99078369 C-4.50261673 76.8513739 -4.86291473 77.71196411 -5.23413086 78.59863281 C-5.55167831 79.35364075 -5.86922577 80.10864868 -6.19639587 80.88653564 C-7.15283057 83.27672336 -7.15283057 83.27672336 -8 87 C4.87 87 17.74 87 31 87 C28.99386166 80.98158499 26.92937314 75.15225325 24.49609375 69.31640625 C24.17214127 68.53482651 23.84818878 67.75324677 23.51441956 66.94798279 C22.836186 65.31466374 22.15631449 63.68202395 21.47485352 62.05004883 C20.43098969 59.54688843 19.39594845 57.04019597 18.36132812 54.53320312 C17.69844595 52.93988386 17.03505298 51.34677699 16.37109375 49.75390625 C16.06272079 49.00500626 15.75434784 48.25610626 15.43663025 47.48451233 C13.73723596 43.41261237 13.73723596 43.41261237 11 40 Z " fill="#183D6E" transform="translate(407,1420)"/>
<path d="M0 0 C0.33 -2.31 0.66 -4.62 1 -7 C9.25 -7 17.5 -7 26 -7 C26 27.32 26 61.64 26 97 C17.75 97 9.5 97 1 97 C0.505 93.535 0.505 93.535 0 90 C-0.61746094 90.39832031 -1.23492188 90.79664063 -1.87109375 91.20703125 C-14.44897099 99.07538368 -26.87134349 101.58638901 -41.6640625 98.91796875 C-55.82265331 95.0218694 -66.57701247 86.61719 -74 74 C-78.5543719 64.74937545 -80.38209784 55.44820994 -80.3125 45.1875 C-80.30686035 44.3109375 -80.3012207 43.434375 -80.29541016 42.53125 C-80.01429793 27.45695492 -75.000076 14.24661306 -64.48828125 3.2578125 C-46.10399832 -13.42368756 -19.97694605 -14.34242281 0 0 Z M-47.53125 25 C-53.0029287 32.45079653 -54.89267795 40.90743743 -54 50 C-52.07025913 58.38158534 -48.28483063 65.60190329 -40.91015625 70.34375 C-33.65956026 74.12432147 -25.9562681 75.48235565 -18 73 C-10.64501766 69.86677752 -4.89320232 64.11254595 -1.65625 56.859375 C1.07584367 49.11844295 1.21676667 39.9275465 -1.76953125 32.23046875 C-5.56390849 25.35240716 -11.14603862 19.28470763 -18.62109375 16.5546875 C-29.49673382 14.01882397 -39.93411002 16.6861487 -47.53125 25 Z " fill="#183D6E" transform="translate(1325,1462)"/>
<path d="M0 0 C0 -2.31 0 -4.62 0 -7 C8.25 -7 16.5 -7 25 -7 C25 27.32 25 61.64 25 97 C16.75 97 8.5 97 0 97 C0 94.69 0 92.38 0 90 C-0.61746094 90.39832031 -1.23492188 90.79664063 -1.87109375 91.20703125 C-14.64704143 99.19929076 -27.62288819 101.91043975 -42.5 98.8125 C-55.56115451 95.51267835 -64.93809107 88.96286641 -72.3984375 77.73828125 C-81.2600951 62.58700814 -83.48027194 45.53830219 -79.3125 28.5625 C-75.61715136 14.82047365 -67.20933467 3.52435742 -55 -4 C-37.58430926 -13.88635076 -16.06093968 -11.11911209 0 0 Z M-48 25 C-53.56113684 32.83279487 -55.8209668 40.98679784 -54.53515625 50.51953125 C-52.83474479 58.40100044 -48.83596843 65.54873403 -42.19921875 70.28515625 C-35.22566233 74.4513709 -27.46553412 75.3751424 -19.5625 73.38671875 C-11.89704446 70.36578401 -5.99904561 64.83963063 -2.5 57.375 C0.51805346 48.61725559 0.34108746 38.66479431 -3.6171875 30.25 C-8.25042471 22.71117335 -14.41283016 18.12672898 -23 16 C-32.56960678 14.59839093 -41.62385898 17.70162411 -48 25 Z " fill="#183D6E" transform="translate(1375,1698)"/>
<path d="M0 0 C0 -2.31 0 -4.62 0 -7 C8.25 -7 16.5 -7 25 -7 C25 27.32 25 61.64 25 97 C16.75 97 8.5 97 0 97 C-0.495 93.535 -0.495 93.535 -1 90 C-1.44988281 90.31453125 -1.89976562 90.6290625 -2.36328125 90.953125 C-14.72299365 99.17642062 -28.04843241 101.53178754 -42.65625 98.92578125 C-56.39705891 95.12137504 -66.4841436 87.02537024 -74 75 C-81.82509297 59.70460417 -83.13289054 43.01609488 -79.109375 26.390625 C-74.18087942 11.32747653 -65.25832051 1.95817557 -52 -6 C-35.37418631 -13.70037687 -14.56244841 -10.73022514 0 0 Z M-49 26 C-54.31538294 33.60468154 -55.81088234 41.74944859 -54.625 50.890625 C-52.89293142 58.6416319 -49.24586446 65.00713095 -42.68359375 69.6328125 C-35.51802815 73.76452248 -28.60754838 75.41898328 -20.4375 73.3515625 C-12.6067413 70.55827357 -7.43386607 66.15008266 -3.625 58.75 C0.11516151 50.61921411 0.49774848 41.11641971 -2.5 32.625 C-5.99427207 25.17055292 -11.89927577 19.59995768 -19.578125 16.62109375 C-31.17783929 13.64632831 -41.200283 17.16698716 -49 26 Z " fill="#183D6E" transform="translate(985,1462)"/>
<path d="M0 0 C7.45962197 6.31617627 13.08047022 13.14340445 16.67578125 22.265625 C16.99417969 23.04808594 17.31257812 23.83054687 17.640625 24.63671875 C22.1372076 37.91925077 21.11609351 54.45352867 15.67578125 67.265625 C8.82055685 80.83399662 -1.8822561 90.30090117 -16.07421875 95.578125 C-30.50058253 99.98720549 -45.85117716 98.96890915 -59.57421875 92.74609375 C-63.93957612 90.39599369 -67.63288603 87.55789472 -71.32421875 84.265625 C-71.95070313 83.73195313 -72.5771875 83.19828125 -73.22265625 82.6484375 C-81.81222113 74.80905296 -87.85630743 62.01276476 -88.41821289 50.30761719 C-88.45819608 48.06352907 -88.46064062 45.82252162 -88.44921875 43.578125 C-88.45308594 42.80662109 -88.45695313 42.03511719 -88.4609375 41.24023438 C-88.45094421 35.51907592 -88.45094421 35.51907592 -87.32421875 33.265625 C-60.92421875 33.265625 -34.52421875 33.265625 -7.32421875 33.265625 C-12.35044896 23.21316457 -16.26200583 18.11767253 -26.57421875 13.953125 C-35.7272615 12.27506716 -44.13999669 12.47591332 -52.32421875 17.265625 C-53.47495641 18.38560798 -54.60139351 19.53122962 -55.69921875 20.703125 C-57.37109375 22.25390625 -57.37109375 22.25390625 -59.32421875 23.265625 C-63.56853643 23.03331767 -67.33100526 21.65518741 -71.32421875 20.265625 C-73.739469 19.53178031 -76.15611247 18.80250324 -78.57421875 18.078125 C-80.49189287 17.47716374 -82.40894351 16.87418826 -84.32421875 16.265625 C-81.00148822 6.53971585 -72.06051313 -0.80789321 -63.32421875 -5.734375 C-42.55430087 -15.35063596 -18.31583018 -13.98946011 0 0 Z M-61.32421875 53.265625 C-59.82546716 60.75938293 -56.12402771 65.27983976 -49.88671875 69.640625 C-43.39695752 73.62765694 -36.88871788 75.25283533 -29.32421875 74.265625 C-19.61235052 71.64803111 -13.37102744 66.57344496 -8.171875 58.09765625 C-7.11426026 56.14828177 -7.11426026 56.14828177 -7.32421875 53.265625 C-25.14421875 53.265625 -42.96421875 53.265625 -61.32421875 53.265625 Z " fill="#183D6E" transform="translate(678.32421875,1463.734375)"/>
<path d="M0 0 C9.68687686 9.00229192 16.02258469 22.03800379 16.515625 35.31640625 C16.81158093 52.50824094 13.72198298 66.29681294 1.5546875 79.0625 C0.81476563 79.805 0.07484375 80.5475 -0.6875 81.3125 C-1.24179687 81.89 -1.79609375 82.4675 -2.3671875 83.0625 C-11.85094445 92.12161112 -24.95225732 95.19689495 -37.6875 95.5625 C-39.35540844 95.50955053 -41.02256152 95.42520353 -42.6875 95.3125 C-44.03714844 95.22742187 -44.03714844 95.22742187 -45.4140625 95.140625 C-56.54003386 93.88108107 -70.31997145 88.06599927 -77.6875 79.3125 C-87.13437202 67.32474516 -91.89106016 55.85851131 -91.8125 40.5 C-91.81636719 39.72462891 -91.82023437 38.94925781 -91.82421875 38.15039062 C-91.81422546 32.43922546 -91.81422546 32.43922546 -90.6875 31.3125 C-88.19257612 31.21747584 -85.72543986 31.18692434 -83.23022461 31.19897461 C-82.44979294 31.19882858 -81.66936127 31.19868256 -80.86528015 31.1985321 C-78.2734402 31.19923142 -75.68167122 31.20702464 -73.08984375 31.21484375 C-71.2976536 31.21670787 -69.50546294 31.2181318 -67.71327209 31.21913147 C-62.98679203 31.22295716 -58.26034248 31.23278788 -53.53387451 31.24383545 C-48.7146445 31.25404847 -43.89540958 31.25862885 -39.07617188 31.26367188 C-29.61326781 31.27441011 -20.15038644 31.29148714 -10.6875 31.3125 C-11.43655753 29.7224087 -12.19653546 28.13745945 -12.9609375 26.5546875 C-13.38294434 25.67151855 -13.80495117 24.78834961 -14.23974609 23.87841797 C-18.17388514 16.90577019 -24.43805056 13.34641573 -31.8984375 10.97265625 C-40.37221809 8.96695748 -47.96685515 10.28328847 -55.6875 14.3125 C-56.78536822 15.44594728 -57.8507035 16.61215254 -58.875 17.8125 C-60.48828125 19.37109375 -60.48828125 19.37109375 -62.6875 20.3125 C-68.25577899 19.70170901 -73.39279326 18.08700902 -78.6875 16.3125 C-79.69039063 15.99667969 -80.69328125 15.68085937 -81.7265625 15.35546875 C-83.72577517 14.711278 -85.70943102 14.01895321 -87.6875 13.3125 C-83.81054767 2.02313621 -73.41748376 -4.77963182 -63.22265625 -9.93359375 C-41.72406263 -19.44593744 -17.73044138 -14.64558418 0 0 Z M-64.6875 51.3125 C-61.71133839 60.24098483 -57.08439319 65.06190765 -48.80078125 69.40234375 C-42.39255157 72.16226522 -35.02313894 72.39280301 -28.4375 70.0625 C-21.92653595 67.2384674 -16.60235133 63.27911077 -12.6875 57.3125 C-12.0275 55.3325 -11.3675 53.3525 -10.6875 51.3125 C-28.5075 51.3125 -46.3275 51.3125 -64.6875 51.3125 Z " fill="#183D6E" transform="translate(589.6875,1702.6875)"/>
<path d="M0 0 C7.70336129 7.29114129 12.87073456 15.61205702 15.5234375 25.8984375 C15.70648437 26.60355469 15.88953125 27.30867188 16.078125 28.03515625 C18.88530482 46.08482999 15.73014924 61.93012639 5.15625 76.82421875 C1.12258188 81.96315752 -3.98617441 85.44216493 -9.4765625 88.8984375 C-10.10175781 89.30191406 -10.72695312 89.70539063 -11.37109375 90.12109375 C-23.93492276 97.31997617 -40.19763453 97.23182357 -53.859375 93.98828125 C-67.95338152 89.74181492 -78.93857885 81.89809614 -85.98095703 68.92553711 C-93.33189337 54.40854031 -94.71571524 38.70151027 -90.5078125 22.921875 C-85.63201846 8.6269334 -75.40406317 -2.42424537 -62.078125 -9.34765625 C-41.2092679 -18.56642322 -17.18173804 -14.58008685 0 0 Z M-59.8203125 21.69921875 C-65.10594354 28.71763921 -67.06992365 36.51980513 -66.2578125 45.25 C-64.57833003 54.64864229 -59.1805741 61.46538454 -51.4765625 66.8984375 C-45.54888905 70.32385535 -39.18584617 70.73826439 -32.4765625 69.8984375 C-23.47087767 67.488283 -17.23093559 63.09182451 -12.51171875 55.00390625 C-8.50631766 46.85707157 -8.45579815 38.03744364 -11.23828125 29.4921875 C-14.76972478 22.09509443 -21.02966971 16.19225547 -28.4765625 12.8984375 C-30.85741128 12.05545176 -30.85741128 12.05545176 -33.4765625 11.8984375 C-34.11078125 11.83527344 -34.745 11.77210937 -35.3984375 11.70703125 C-45.08489727 11.17461945 -53.32710932 14.50081113 -59.8203125 21.69921875 Z " fill="#183D6E" transform="translate(1174.4765625,1702.1015625)"/>
<path d="M0 0 C8.91 0 17.82 0 27 0 C35.25 21.78 43.5 43.56 52 66 C55.2833633 58.11992808 58.50322473 50.24603239 61.57421875 42.28515625 C61.98412552 41.22638779 62.39403229 40.16761932 62.81636047 39.07676697 C64.10818559 35.73923495 65.39792158 32.40090067 66.6875 29.0625 C67.9882345 25.69927886 69.28940036 22.33622501 70.59077454 18.97325134 C71.3959199 16.8921844 72.20061764 14.8109442 73.00480652 12.72950745 C73.36891129 11.78760056 73.73301605 10.84569366 74.1081543 9.87524414 C74.42616501 9.05206192 74.74417572 8.2288797 75.07182312 7.38075256 C76.03323902 4.91474266 77.0170049 2.45748774 78 0 C86.91 0 95.82 0 105 0 C103.22921106 5.31236682 101.4948925 10.45202863 99.43481445 15.62915039 C99.19642758 16.23020348 98.95804071 16.83125656 98.71243 17.45052338 C97.93173509 19.41717954 97.14753798 21.38241806 96.36328125 23.34765625 C95.80523928 24.75137583 95.24741343 26.15518135 94.68978882 27.55906677 C93.20625932 31.29208513 91.71961384 35.02385435 90.23208237 38.75527954 C88.69424295 42.61369906 87.15844349 46.47293055 85.62231445 50.33203125 C83.78826909 54.93898424 81.95374266 59.54574432 80.11766052 64.15188599 C77.07973925 71.77338457 74.04713948 79.39689182 71.02955627 87.026474 C69.57633203 90.70010174 68.119235 94.37218448 66.66122437 98.04391479 C66.02225882 99.65561711 65.3850137 101.26800277 64.74966431 102.88113403 C51.88298676 135.53433541 51.88298676 135.53433541 36.7265625 143.81640625 C27.36060352 147.88214489 19.30380791 148 9 148 C9 139.75 9 131.5 9 123 C14.94 122.505 14.94 122.505 21 122 C28.02831797 119.3894819 32.49155177 115.65069963 36.0703125 109.015625 C38.97935701 102.25406208 37.38882221 96.47194809 34.7545166 89.82572937 C34.29015198 88.68802849 34.29015198 88.68802849 33.81640625 87.52734375 C33.48902466 86.70696121 33.16164307 85.88657867 32.82434082 85.04133606 C32.11477637 83.2656736 31.40173173 81.49139869 30.68557739 79.71838379 C29.54760882 76.90062753 28.41885948 74.07934087 27.29272461 71.25683594 C26.10490924 68.27991182 24.91658176 65.30320462 23.7256012 62.32754517 C19.52583858 51.83358528 15.38136869 41.31818206 11.25680542 30.79446411 C10.07924667 27.79268978 8.89729085 24.79267234 7.71508789 21.79272461 C6.9881974 19.94003814 6.26154146 18.08725963 5.53515625 16.234375 C5.04094177 14.98392143 5.04094177 14.98392143 4.53674316 13.70820618 C4.23079224 12.92503525 3.92484131 12.14186432 3.60961914 11.33496094 C3.2135421 10.32704498 3.2135421 10.32704498 2.8094635 9.29876709 C1.73400625 6.24461364 0.88953928 3.11338746 0 0 Z " fill="#183D6E" transform="translate(1021,1455)"/>
<path d="M0 0 C26.93922114 -2.95680218 26.93922114 -2.95680218 34.41943359 1.41357422 C38.38041686 5.49191995 40.38785849 10.65136365 42.55029297 15.83544922 C45.14157137 21.49192458 48.54220846 26.67422169 51.83694458 31.94177246 C53.69347783 34.927931 55.50033231 37.94382117 57.3125 40.95703125 C59.21668208 44.11794356 61.14305017 47.20860961 63.23046875 50.25268555 C65 53 65 53 65 55 C67.43624867 52.73767229 69.16411768 50.37197935 70.93359375 47.5625 C71.49425537 46.67667236 72.05491699 45.79084473 72.63256836 44.87817383 C73.52600952 43.45347778 73.52600952 43.45347778 74.4375 42 C75.05568604 41.02119873 75.67387207 40.04239746 76.31079102 39.03393555 C78.21054212 36.02472007 80.10528062 33.01238534 82 30 C83.64159545 27.39971654 85.28471893 24.80040387 86.92797852 22.20117188 C88.34803102 19.95407602 89.76595341 17.70564931 91.18359375 15.45703125 C91.64677002 14.75570068 92.10994629 14.05437012 92.5871582 13.33178711 C94.0958107 10.95136369 94.0958107 10.95136369 95.32495117 8.02954102 C96.94314523 4.74269166 98.28816686 2.47840253 101 0 C106.539761 -1.36050292 111.78463111 -1.04708784 117.4375 -0.6875 C118.94708735 -0.63226132 120.45686881 -0.58208178 121.96679688 -0.53710938 C125.64859483 -0.41648056 129.32305498 -0.22708955 133 0 C128.90442416 7.79558519 124.10267893 15.1018638 119.25 22.4375 C118.40719739 23.71688881 117.56475541 24.99651525 116.72265625 26.27636719 C114.99668764 28.89909759 113.26935265 31.52091965 111.54101562 34.14208984 C107.67923059 40.0017231 103.83960793 45.875822 100 51.75 C99.35579102 52.73411865 98.71158203 53.7182373 98.04785156 54.73217773 C96.74447302 56.72481119 95.45922522 58.72940063 94.19067383 60.74438477 C92.56512296 63.16015662 90.95986218 65.27707337 89.09643555 67.48803711 C78.91593996 80.20845604 79.47883723 93.30049233 79.78112793 109.05389404 C79.83401759 112.44016986 79.8237489 115.82628905 79.81835938 119.21289062 C79.81232164 125.81213907 79.90828332 132.39853183 80 139 C71.09 139 62.18 139 53 139 C53.07863281 135.11734375 53.15726563 131.2346875 53.23828125 127.234375 C53.27020934 123.40464163 53.27956265 119.57545609 53.28686523 115.74560547 C53.30372699 113.11741989 53.34345238 110.48926434 53.40795898 107.86181641 C53.82947544 89.88396817 52.01547779 78.15050797 40.58877563 64.00445557 C38.42431823 61.2736995 36.62563627 58.42052374 34.79296875 55.45703125 C34.19476318 54.52133301 33.59655762 53.58563477 32.98022461 52.62158203 C32.38862549 51.69458496 31.79702637 50.76758789 31.1875 49.8125 C29.8385687 47.70180564 28.48960949 45.59112911 27.140625 43.48046875 C26.46322266 42.42005371 25.78582031 41.35963867 25.08789062 40.26708984 C22.95085718 36.92310229 20.81182087 33.58040533 18.671875 30.23828125 C17.96264893 29.13057373 17.25342285 28.02286621 16.52270508 26.8815918 C15.17882631 24.78277446 13.83491597 22.68397733 12.4909668 20.58520508 C11.26644021 18.67223202 10.04269598 16.75875789 8.81982422 14.84472656 C7.54358246 12.84972133 6.26363869 10.85708177 4.98095703 8.86621094 C4.01778564 7.36622559 4.01778564 7.36622559 3.03515625 5.8359375 C2.45258057 4.93149902 1.87000488 4.02706055 1.26977539 3.09521484 C0 1 0 1 0 0 Z " fill="#183D6E" transform="translate(960,1656)"/>
<path d="M0 0 C0.65613281 0.54398438 1.31226563 1.08796875 1.98828125 1.6484375 C2.92607422 2.40253906 2.92607422 2.40253906 3.8828125 3.171875 C10.29838662 8.90256212 14.66215696 17.15802745 15.98828125 25.6484375 C16.07474704 28.10073733 16.10598691 30.55521306 16.10180664 33.0090332 C16.10195267 33.73152756 16.10209869 34.45402191 16.10224915 35.19841003 C16.10155547 37.57371072 16.0937887 39.94893185 16.0859375 42.32421875 C16.08407138 43.97617042 16.08264839 45.62812265 16.08164978 47.28007507 C16.07783986 51.61851542 16.06802264 55.95692205 16.0569458 60.29534912 C16.04669885 64.72619165 16.04214513 69.15703965 16.03710938 73.58789062 C16.02639896 82.27475675 16.00881455 90.96158904 15.98828125 99.6484375 C7.73828125 99.6484375 -0.51171875 99.6484375 -9.01171875 99.6484375 C-9.04144775 96.99276733 -9.04144775 96.99276733 -9.07177734 94.28344727 C-9.13981707 88.40407254 -9.21661153 82.52484635 -9.29924583 76.64566135 C-9.34898379 73.0845325 -9.39531375 69.52343012 -9.43359375 65.9621582 C-9.4778563 61.85870529 -9.53741178 57.75559339 -9.59765625 53.65234375 C-9.60920746 52.38636856 -9.62075867 51.12039337 -9.63265991 49.8160553 C-9.8301065 36.32168973 -9.8301065 36.32168973 -16.01171875 24.6484375 C-22.12638495 19.49704064 -26.94248106 18.28423383 -34.93359375 18.37109375 C-40.95513877 18.91364413 -44.56592941 21.23477681 -48.82421875 25.3984375 C-54.43573769 33.73555136 -54.47887201 41.42500129 -54.5234375 51.2109375 C-54.5403088 52.61199492 -54.55846229 54.01303743 -54.57783508 55.4140625 C-54.62507592 59.07671446 -54.65505183 62.73930596 -54.68127441 66.40216064 C-54.71121187 70.14973895 -54.7576964 73.89710939 -54.80273438 77.64453125 C-54.88847218 84.97908064 -54.95441534 92.31360074 -55.01171875 99.6484375 C-63.26171875 99.6484375 -71.51171875 99.6484375 -80.01171875 99.6484375 C-80.01171875 65.3284375 -80.01171875 31.0084375 -80.01171875 -4.3515625 C-71.76171875 -4.3515625 -63.51171875 -4.3515625 -55.01171875 -4.3515625 C-54.68171875 -1.0515625 -54.35171875 2.2484375 -54.01171875 5.6484375 C-53.02171875 4.5759375 -52.03171875 3.5034375 -51.01171875 2.3984375 C-37.93137455 -10.60310945 -14.52223702 -10.88504055 0 0 Z " fill="#183D6E" transform="translate(1451.01171875,1459.3515625)"/>
<path d="M0 0 C7.90579546 6.04692571 15.35340441 13.5617526 19 23 C18.83496094 25.06542969 18.83496094 25.06542969 18 27 C16.12988281 28.00488281 16.12988281 28.00488281 13.703125 28.703125 C12.8265625 28.9609375 11.95 29.21875 11.046875 29.484375 C10.12390625 29.73703125 9.2009375 29.9896875 8.25 30.25 C7.3425 30.518125 6.435 30.78625 5.5 31.0625 C1.24564918 32.28158298 -2.53410944 33.36121174 -7 33 C-8.484375 31.20703125 -8.484375 31.20703125 -9.75 28.8125 C-13.19598705 23.14358348 -17.66300649 20.34446799 -23.953125 18.39453125 C-32.19939865 16.80507774 -39.67567285 17.91323775 -47 22 C-49.8971941 24.31273442 -49.8971941 24.31273442 -52 27 C-52.70125 27.70125 -53.4025 28.4025 -54.125 29.125 C-58.49859321 35.83117625 -59.69490101 43.43486206 -58.62890625 51.30078125 C-56.65129713 59.78853219 -52.32722698 66.24720412 -45 71 C-37.1560822 74.90106036 -29.63782829 75.0563199 -21.375 72.4375 C-13.81907037 69.45322527 -10.10872756 64.84787927 -6 58 C6.375 61.465 6.375 61.465 19 65 C17.17828076 75.93031546 10.26609599 84.25509452 1.5703125 90.83984375 C-12.30470485 100.35126868 -28.19749644 102.56094965 -44.61328125 99.78515625 C-54.17262335 97.56897659 -61.69339856 93.4711567 -69 87 C-69.60328125 86.52433594 -70.2065625 86.04867188 -70.828125 85.55859375 C-78.49435359 78.94560828 -84.42637095 66.73312683 -85.82421875 56.74609375 C-86.94173277 39.28804141 -85.66416432 23.46809539 -73.625 9.75 C-54.12675959 -10.77615423 -24.59806964 -15.67190033 0 0 Z " fill="#183D6E" transform="translate(1215,1461)"/>
<path d="M0 0 C27.72 0 55.44 0 84 0 C84 21.84707332 84 21.84707332 75.99609375 29.8828125 C73.37049265 32.59540891 70.97938779 35.41995834 68.625 38.375 C67.90699219 39.24769531 67.18898438 40.12039063 66.44921875 41.01953125 C56.14526592 53.55847226 45.96408185 66.18903762 36 79 C60.255 79.495 60.255 79.495 85 80 C85 87.92 85 95.84 85 104 C56.62 104 28.24 104 -1 104 C-1 81.75403651 -1 81.75403651 3.41821289 76.90991211 C4.04332764 76.32089111 4.66844238 75.73187012 5.3125 75.125 C6.61108941 73.73467222 7.90794433 72.34272254 9.203125 70.94921875 C9.84958984 70.28583496 10.49605469 69.62245117 11.16210938 68.93896484 C13.85103056 66.10216728 16.2004087 63.0467022 18.5625 59.9375 C22.97345966 54.25892 27.49029294 48.67136692 32.05883789 43.11889648 C37.19109532 36.84964664 42.05018438 30.4347603 47 24 C31.49 24 15.98 24 0 24 C0 16.08 0 8.16 0 0 Z " fill="#183D6E" transform="translate(497,1455)"/>
<path d="M0 0 C8.58 0 17.16 0 26 0 C26 49.17 26 98.34 26 149 C17.42 149 8.84 149 0 149 C0 99.83 0 50.66 0 0 Z " fill="#183D6E" transform="translate(1252,1646)"/>
<path d="M0 0 C8.58 0 17.16 0 26 0 C26 49.17 26 98.34 26 149 C17.42 149 8.84 149 0 149 C0 99.83 0 50.66 0 0 Z " fill="#183D6E" transform="translate(1207,1646)"/>
<path d="M0 0 C0 9.57 0 19.14 0 29 C-1.32 28.67 -2.64 28.34 -4 28 C-10.68052719 27.46096275 -17.3445825 27.02684096 -23.28125 30.5234375 C-27.43167327 34.0890284 -30.28290539 38.84871616 -32 44 C-32.11720809 46.03904091 -32.17678843 48.08157182 -32.20532227 50.1237793 C-32.22526749 51.38486008 -32.24521271 52.64594086 -32.26576233 53.94523621 C-32.28274533 55.32156247 -32.29962419 56.69789002 -32.31640625 58.07421875 C-32.33698197 59.48241275 -32.3579786 60.89060065 -32.37937927 62.29878235 C-32.43453622 66.00260481 -32.48397354 69.70648241 -32.53222656 73.41040039 C-32.58248821 77.19096782 -32.63814992 80.97145529 -32.69335938 84.75195312 C-32.80086295 92.1679029 -32.90182604 99.58391978 -33 107 C-41.58 107 -50.16 107 -59 107 C-59 72.68 -59 38.36 -59 3 C-50.42 3 -41.84 3 -33 3 C-32.67 5.97 -32.34 8.94 -32 12 C-31.0925 11.113125 -30.185 10.22625 -29.25 9.3125 C-20.84650614 2.10462519 -10.78829959 0 0 0 Z " fill="#183D6E" transform="translate(773,1452)"/>
<path d="M0 0 C0 9.57 0 19.14 0 29 C-1.65 28.67 -3.3 28.34 -5 28 C-12.36941942 27.3799523 -18.99826715 27.24416259 -25 32 C-33.57802608 40.48228918 -33.30643297 51.1781796 -33.4140625 62.56640625 C-33.43342865 63.84104233 -33.4527948 65.11567841 -33.4727478 66.42893982 C-33.52212417 69.78747269 -33.56350681 73.14590398 -33.60089111 76.50457764 C-33.64118336 79.94390311 -33.69205775 83.38307179 -33.7421875 86.82226562 C-33.83945799 93.54811466 -33.9192947 100.27385047 -34 107 C-42.25 107 -50.5 107 -59 107 C-59 72.68 -59 38.36 -59 3 C-50.75 3 -42.5 3 -34 3 C-33.67 6.3 -33.34 9.6 -33 13 C-31.865625 11.9275 -30.73125 10.855 -29.5625 9.75 C-21.07882354 2.39549939 -11.12981894 0 0 0 Z " fill="#183D6E" transform="translate(1479,1688)"/>
<path d="M0 0 C0 9.57 0 19.14 0 29 C-1.65 28.67 -3.3 28.34 -5 28 C-12.36941942 27.3799523 -18.99826715 27.24416259 -25 32 C-33.57802608 40.48228918 -33.30643297 51.1781796 -33.4140625 62.56640625 C-33.43342865 63.84104233 -33.4527948 65.11567841 -33.4727478 66.42893982 C-33.52212417 69.78747269 -33.56350681 73.14590398 -33.60089111 76.50457764 C-33.64118336 79.94390311 -33.69205775 83.38307179 -33.7421875 86.82226562 C-33.83945799 93.54811466 -33.9192947 100.27385047 -34 107 C-42.25 107 -50.5 107 -59 107 C-59 72.68 -59 38.36 -59 3 C-50.75 3 -42.5 3 -34 3 C-33.67 6.3 -33.34 9.6 -33 13 C-31.865625 11.9275 -30.73125 10.855 -29.5625 9.75 C-21.07882354 2.39549939 -11.12981894 0 0 0 Z " fill="#183D6E" transform="translate(906,1688)"/>
<path d="M0 0 C8.58 0 17.16 0 26 0 C26 34.32 26 68.64 26 104 C17.42 104 8.84 104 0 104 C0 69.68 0 35.36 0 0 Z " fill="#183D6E" transform="translate(1491,1691)"/>
<path d="M0 0 C8.25 0 16.5 0 25 0 C25 34.32 25 68.64 25 104 C16.75 104 8.5 104 0 104 C0 69.68 0 35.36 0 0 Z " fill="#183D6E" transform="translate(802,1691)"/>
<path d="M0 0 C4.39104868 2.28562145 6.99442272 4.83266314 8.99609375 9.31640625 C9.76950991 15.79376662 9.90473742 20.88357856 5.99609375 26.31640625 C0.7593339 30.91453685 -2.30760048 31.66962767 -9.171875 31.59765625 C-14.2955442 31.08882289 -17.44709374 29.08079376 -20.87890625 25.19140625 C-23.09141753 19.53721075 -23.57441428 14.36352331 -21.94140625 8.50390625 C-17.11238661 0.55939006 -9.07691409 -3.09641319 0 0 Z " fill="#183D6E" transform="translate(821.00390625,1651.68359375)"/>
</svg>
