<svg xmlns="http://www.w3.org/2000/svg" viewBox="0 0 96 96" id="ayran">
  <path fill="#def4ef" d="M71.74,17.53a7.26,7.26,0,0,0-7.43-5A8.77,8.77,0,1,0,47.22,9.64a7.28,7.28,0,0,0-8.34,9.94,7.28,7.28,0,1,0,5.73,11.89,12.48,12.48,0,0,0,22.66-1.63,7.28,7.28,0,1,0,4.47-12.31Z"></path>
  <path fill="#8ed6ef" d="M66.59,24.12a4.94,4.94,0,0,0-5-3.4A5.95,5.95,0,1,0,50,18.77a4.93,4.93,0,0,0-5.65,6.74,4.93,4.93,0,1,0,3.88,8.05,8.46,8.46,0,0,0,15.36-1.1,4.93,4.93,0,1,0,3-8.34Z"></path>
  <path fill="#302d3d" d="M44.43,33.09a8.28,8.28,0,1,1-6.9-14.38A8.29,8.29,0,0,1,46.31,8.48a9.77,9.77,0,1,1,19.29,3,8.25,8.25,0,0,1,6.82,5,8.27,8.27,0,1,1-4.78,15A13.48,13.48,0,0,1,44.43,33.09ZM45.49,31a11.49,11.49,0,0,0,20.84-1.5A1,1,0,0,1,68,29.14a6.27,6.27,0,1,0,3.85-10.61,1,1,0,0,1-1-.69,6.25,6.25,0,0,0-6-4.34,1.3,1.3,0,0,1-1.26-.37c-.63-.79.2-1.12.2-3.35a7.77,7.77,0,0,0-15.54-.12,1,1,0,0,1-1.23.95,6.28,6.28,0,0,0-7.19,8.58,1,1,0,0,1-.91,1.39,6.28,6.28,0,1,0,5,10.25A1,1,0,0,1,45.49,31Z"></path>
  <path fill="#d36f47" d="M24.37,75.19a2,2,0,0,1-1.88-2.67l2.15-6.13A11,11,0,0,0,22.06,55l-3-3A9.49,9.49,0,0,1,29.2,36.41l10.51,4.12a2,2,0,0,1-1.46,3.73L27.74,40.13a5.49,5.49,0,0,0-5.89,9l3,3a15.05,15.05,0,0,1,3.53,15.55l-2.16,6.13A2,2,0,0,1,24.37,75.19Z"></path>
  <path fill="#bf4742" d="M39.6,40.49C28.27,36,28.84,36.23,28,36A2,2,0,0,0,25.5,38a2,2,0,0,0,1.57,2c.49.12-.2-.13,11.18,4.34a2,2,0,0,0,2.65-1.33A2.06,2.06,0,0,0,39.6,40.49Z"></path>
  <path fill="#302d3d" d="M24.37,76.19a3,3,0,0,1-2.83-4l2.16-6.13A10,10,0,0,0,21.35,55.7l-3-3A10.5,10.5,0,0,1,29.57,35.48l10.5,4.12a3,3,0,1,1-2.19,5.59l-10.5-4.13a4.5,4.5,0,0,0-6.14,4.19,4.45,4.45,0,0,0,1.32,3.17l3,3a16,16,0,0,1,3.77,16.59L27.2,74.18A3,3,0,0,1,24.37,76.19Zm1.37-39.44a8.5,8.5,0,0,0-6,14.5l3,3a12,12,0,0,1,2.83,12.43l-2.16,6.13A1,1,0,0,0,24,74.13a1,1,0,0,0,1.28-.61l2.15-6.13a14,14,0,0,0-3.29-14.52l-3-3a6.5,6.5,0,0,1,7-10.64l10.5,4.12a1,1,0,0,0,1.3-.56,1,1,0,0,0-.57-1.3C28,37,27.86,36.75,25.74,36.75Z"></path>
  <path fill="#f1924c" d="M76.94,68.42,70.86,57.66H38.63L32.56,68.42C25.89,80.23,34.3,95,47.81,95H61.68C75.21,95,83.6,80.22,76.94,68.42Z"></path>
  <path fill="#f15b4c" d="M79.23,76.32a17.93,17.93,0,0,1-3.14,5.1c-5.59,6.38-17.7,7.23-26.83,5.9a12.82,12.82,0,0,1-9.39-18.9L46,57.67H38.64c-6.55,11.57-6.44,11.26-7.09,12.86v0C26.86,82.08,35.27,95,47.81,95H61.69A17.68,17.68,0,0,0,79.23,76.32Z"></path>
  <path fill="#f1b060" d="M74.81,64.65l-4-7H53.69a6.42,6.42,0,0,0-5.61,3.28L46,64.65a11.54,11.54,0,0,0,9.91,17.26h9A11.54,11.54,0,0,0,74.81,64.65Z"></path>
  <path fill="#f1ce92" d="M66,66.62H54.79a4.22,4.22,0,0,0-4.31,4.26,5.47,5.47,0,0,0,5.41,5h9a5.26,5.26,0,0,0,3.83-1.62C72,70.8,69.69,66.62,66,66.62Z"></path>
  <path fill="#302d3d" d="M61.68,96H47.81C33.52,96,24.65,80.38,31.69,67.93l6.07-10.76a1,1,0,0,1,.87-.51H70.86a1,1,0,0,1,.87.51l6.08,10.76C84.84,80.37,76,96,61.68,96ZM39.22,58.66,33.43,68.91C27.15,80,35.05,94,47.81,94H61.68c12.77,0,20.67-14,14.39-25.09h0L70.28,58.66Z"></path>
  <path fill="#bf4742" d="M70.94,57.66H38.55a2.47,2.47,0,0,1,0-4.94H70.94a2.47,2.47,0,0,1,0,4.94Z"></path>
  <path fill="#d36f47" d="M70.94,57.66H53a2.47,2.47,0,0,1,0-4.94h18a2.47,2.47,0,0,1,0,4.94Z"></path>
  <path fill="#fff" d="M64,57.66H59.86a2.47,2.47,0,0,1,0-4.94H64a2.47,2.47,0,0,1,0,4.94Z"></path>
  <polygon fill="#f1924c" points="70.01 52.72 39.49 52.72 31.71 32.67 77.78 32.67 70.01 52.72"></polygon>
  <polygon fill="#f15b4c" points="46.03 52.73 39.49 52.73 31.71 32.68 38.25 32.68 46.03 52.73"></polygon>
  <path fill="#f1b060" d="M71.06,50H55.42a1.39,1.39,0,0,1-1.29-.88L51,41a1.38,1.38,0,0,1,1.29-1.88h23Z"></path>
  <path fill="#fff" d="M62.43,45.46H58.11a2.14,2.14,0,0,1-2-1.36l-1-2.67a2.31,2.31,0,0,1,2.15-3.14H67.78a1.76,1.76,0,0,1,1.64,2.38A7.51,7.51,0,0,1,62.43,45.46Z"></path>
  <path fill="#302d3d" d="M70,53.72H39.49a1,1,0,0,1-.93-.63L30.78,33a1,1,0,0,1,.93-1.37H77.78A1,1,0,0,1,78.72,33L70.94,53.09A1,1,0,0,1,70,53.72Zm-29.84-2H69.32l7-18H33.17Z"></path>
  <rect width="49.02" height="4.2" x="30.24" y="28.48" fill="#bf4742" rx="2.1"></rect>
  <rect width="29.95" height="4.2" x="49.31" y="28.48" fill="#d36f47" rx="2.1"></rect>
  <path fill="#302d3d" d="M70.94 58.66H38.55a3.47 3.47 0 010-6.94H70.94a3.47 3.47 0 010 6.94zM38.55 53.72a1.47 1.47 0 000 2.94H70.94a1.47 1.47 0 000-2.94zM77.16 33.67H32.34a3.1 3.1 0 110-6.19H77.16a3.1 3.1 0 110 6.19zM32.34 29.48a1.1 1.1 0 100 2.19H77.16a1.1 1.1 0 100-2.19z"></path>
  <path fill="#fff" d="M65.46 64.43H57.61A1.57 1.57 0 0156 62.86v-.54a1.39 1.39 0 011.39-1.39h6.07a3.08 3.08 0 012.69 1.6l.19.36A1 1 0 0165.46 64.43zM66.24 37H61.75a.55.55 0 01-.42-.91 3 3 0 012.22-1h1.88a1.29 1.29 0 011.17.79l.15.39A.54.54 0 0166.24 37z"></path>
</svg>
