<?xml version="1.0" encoding="UTF-8"?>
<svg version="1.1" viewBox="0 0 1200 904" width="300" height="226" xmlns="http://www.w3.org/2000/svg">
<path transform="translate(665)" d="m0 0h41l25 5 20 6 16 7 13 7 16 11 15 13 12 12 11 14 10 15 9 16 10 21 7 19 7 24 6 26 7 39 5 36 5 52 2 30v12l11-8 13-11 10-8 13-11 11-9 10-9 11-9 10-9 11-9 12-11 11-9 11-10 11-9 13-12 11-9 13-12 11-9 12-11 11-9 13-12 11-9 4-4 3 1 5 12 15 34 26 60 5 9v9l-11 9-13 11-14 12-11 9-13 11-11 9-13 11-10 8-17 14-14 11-12 10-14 11-17 14-28 22-15 12-17 13-14 11-18 14-12 9-17 13-8 6-2 10-6 61-4 34-8 65-5 41-6 47-3 17-2 3-16 1h-38l-8-1 1-16 10-95 10-99 1-11-11 7-16 12-18 13-16 11-17 12-23 16-12 8-43 29-19 12-17 11-19 12-26 16-28 17-26 15-25 14-18 10-28 15-36 18-31 15-30 13-33 13-34 12-29 9-28 7-37 7-13 2h-50l-32-7-18-6-16-8-13-8-14-11-14-14-10-13-10-18-6-15-6-21-3-13v-59l9-44 7-26 12-37 11-28 12-27 14-29 13-24 16-27 15-24 17-25 12-17 14-19 16-21 10-13 9-11 11-14 9-10 9-11 13-15 14-15 7-8 15-16 42-42 8-7 15-14 8-7 28-24 16-13 17-13 18-14 17-12 33-22 16-10 21-12 26-14 28-13 27-11 22-8 29-8zm18 83-18 2-21 5-21 7-25 11-29 15-25 15-22 14-16 11-17 12-21 16-13 10-22 18-14 12-11 9-16 15-8 7-13 13-8 7-14 14v2h-2l-7 8-15 15-7 8-13 14-9 11-9 10-9 11-13 16-15 20-13 18-14 20-13 20-13 21-12 20-13 23-14 26-13 26-12 27-12 31-7 22-6 23-4 25-1 8v23l3 19 4 12 6 8 6 5 8 4 12 3 19 2h10l20-2 25-5 30-8 35-12 36-15 26-12 25-12 15-8 16-8 22-12 28-16 51-31 44-28 63-42 19-13 20-14 34-24 18-13 19-14 18-13 17-13 16-12 18-14 20-15 13-10 10-8 1-2-1-3v-39l1-5-3-8v-7l1-2-2-20 1-8-2-9-1-9-3-30-2-10-2-14-7-35-8-29-9-26-9-20-9-15-10-13-9-10-10-9-13-8-16-6-19-3z" fill="#582D89"/>
<path transform="translate(898,523)" d="m0 0h1l-1 19-5 50-4 34-8 65-5 41-6 47-3 17-2 3-16 1h-38l-8-1 1-16 10-95 10-99 2-12 11-10 19-14 16-12 18-13z" fill="#592E89"/>
<path transform="translate(879,182)" d="m0 0h1l8 41 7 48 5 52 3 43-13 12-11 9-16 13-12 9-18 12-3 1-2-4v-39l1-5-3-8v-7l1-2-2-20 1-8-2-9-1-9-3-30-2-10-2-14-4-20v-4h3l1 2 5-1 4-1 18-9 5-2 2-4 5-2 7-8 6-2 3-6 5-11 2-5z" fill="#A792C2"/>
<path transform="translate(898,523)" d="m0 0h1l-1 19-5 50-6 51-1-2-6-1-9 3-5 4-6 2-5 4-9 5-2 2h-3v2l-5 3-3 1v2l-5 2-5 5-1 4-5 2-2 4 1-18 9-86 2-5 10-9 19-14 16-12 18-13z" fill="#A893C3"/>
</svg>
