<?xml version="1.0" encoding="UTF-8"?>
<svg version="1.1" xmlns="http://www.w3.org/2000/svg" width="300" height="300">
<path d="M0 0 C0.82438568 -0.00974854 1.64877136 -0.01949707 2.49813843 -0.02954102 C36.10705789 -0.34563341 36.10705789 -0.34563341 51.26953125 4.23828125 C53.13738281 4.74681641 53.13738281 4.74681641 55.04296875 5.265625 C70.67033245 9.94716999 86.22462257 17.42962863 99.26953125 27.23828125 C100.10097656 27.86089844 100.93242187 28.48351562 101.7890625 29.125 C128.56180537 49.9107673 148.29302012 77.26752174 157.26953125 110.23828125 C157.46272949 110.87733398 157.65592773 111.51638672 157.85498047 112.17480469 C164.79898827 135.67672822 164.32376816 166.84007291 157.26953125 190.23828125 C157.07649414 190.9535498 156.88345703 191.66881836 156.68457031 192.40576172 C151.24165478 212.57314906 140.72303594 231.34267777 127.26953125 247.23828125 C126.77984863 247.81755371 126.29016602 248.39682617 125.78564453 248.99365234 C105.74197273 272.3415892 79.6921055 287.72746446 50.26953125 296.23828125 C49.56957031 296.45145996 48.86960938 296.66463867 48.1484375 296.88427734 C24.89451528 303.70997472 -5.59020573 303.16085994 -28.73046875 296.23828125 C-29.4471875 296.04524414 -30.16390625 295.85220703 -30.90234375 295.65332031 C-51.06760613 290.20977209 -69.83642862 279.69046277 -85.73046875 266.23828125 C-86.30974121 265.74859863 -86.88901367 265.25891602 -87.48583984 264.75439453 C-109.05517657 246.23761041 -124.46578554 222.49799249 -133.16796875 195.42578125 C-133.3906543 194.73516602 -133.61333984 194.04455078 -133.84277344 193.33300781 C-138.11760183 179.07260184 -139.27637652 165.2780982 -139.16796875 150.48828125 C-139.16492737 149.60742859 -139.16188599 148.72657593 -139.15875244 147.81903076 C-139.09272998 134.89300747 -138.48281051 122.68442891 -134.73046875 110.23828125 C-134.44091309 109.16537842 -134.44091309 109.16537842 -134.14550781 108.07080078 C-124.17777569 71.13781634 -98.0652087 39.22061226 -65.42578125 19.87207031 C-45.571169 8.51833233 -23.08435258 0.22546182 0 0 Z M26.26953125 77.23828125 C21.74182314 81.71526872 17.2219829 86.20008719 12.70751953 90.69042969 C11.17090904 92.21698425 9.63250808 93.74173873 8.09228516 95.26464844 C5.87839873 97.45426918 3.67103725 99.6502879 1.46484375 101.84765625 C0.77520538 102.52697205 0.08556702 103.20628784 -0.62496948 103.90618896 C-1.26548248 104.5465509 -1.90599548 105.18691284 -2.56591797 105.84667969 C-3.12995331 106.4062738 -3.69398865 106.96586792 -4.27511597 107.54241943 C-7.09804579 110.83186166 -7.98081198 113.58794815 -7.97097778 117.89532471 C-7.97372711 118.82638031 -7.97647644 119.75743591 -7.97930908 120.71670532 C-7.97211853 121.73090546 -7.96492798 122.74510559 -7.95751953 123.79003906 C-7.95781158 124.86351593 -7.95810364 125.9369928 -7.95840454 127.04299927 C-7.95701078 130.59255038 -7.94144718 134.14189179 -7.92578125 137.69140625 C-7.92205129 140.15191534 -7.91920424 142.61242591 -7.91720581 145.07293701 C-7.90956804 151.55025327 -7.88991822 158.0274799 -7.86779785 164.50476074 C-7.84734258 171.11383858 -7.83820477 177.72293089 -7.828125 184.33203125 C-7.80667255 197.3008195 -7.77291901 210.26954561 -7.73046875 223.23828125 C-4.46059665 222.51263066 -2.85268245 221.73803071 -0.46240234 219.35839844 C0.15148346 218.75396912 0.76536926 218.14953979 1.39785767 217.52679443 C2.37460953 216.54093353 2.37460953 216.54093353 3.37109375 215.53515625 C4.04876801 214.86035217 4.72644226 214.1855481 5.4246521 213.49029541 C6.85547907 212.06150915 8.28252753 210.62893043 9.70605469 209.19287109 C11.88285234 207.00004615 14.07513154 204.82363129 16.26953125 202.6484375 C17.65851477 201.25747106 19.04656712 199.86557404 20.43359375 198.47265625 C21.08881012 197.82351257 21.74402649 197.1743689 22.4190979 196.5055542 C23.02667938 195.88851624 23.63426086 195.27147827 24.26025391 194.63574219 C24.79445953 194.09914978 25.32866516 193.56255737 25.87905884 193.00970459 C30.01697443 187.73811473 29.54297831 182.15674352 29.49658203 175.7565918 C29.49687408 174.70247604 29.49716614 173.64836029 29.49746704 172.56230164 C29.49607532 169.08311694 29.48052126 165.60414722 29.46484375 162.125 C29.46111307 159.71076067 29.45826636 157.29651983 29.45626831 154.88227844 C29.44863623 148.53156343 29.42899128 142.18094006 29.40686035 135.83026123 C29.38639284 129.34844197 29.37726465 122.86660789 29.3671875 116.38476562 C29.34574509 103.66923176 29.31199924 90.95376138 29.26953125 78.23828125 C28.27953125 77.90828125 27.28953125 77.57828125 26.26953125 77.23828125 Z " fill="#E93142" transform="translate(138.73046875,-0.23828125)"/>
</svg>
