<?xml version="1.0" encoding="UTF-8"?>
<svg version="1.1" xmlns="http://www.w3.org/2000/svg" width="225" height="225">
<path d="M0 0 C1.06347656 0.01417969 2.12695312 0.02835937 3.22265625 0.04296875 C4.28355469 0.04941406 5.34445313 0.05585937 6.4375 0.0625 C9.28515625 0.23046875 9.28515625 0.23046875 12.28515625 1.23046875 C13.98671875 0.92109375 13.98671875 0.92109375 15.72265625 0.60546875 C19.28515625 0.23046875 19.28515625 0.23046875 21.4921875 1.1640625 C24.32523164 4.4291613 23.71286921 7.75196686 23.53515625 11.91796875 C23.51710937 12.71525391 23.4990625 13.51253906 23.48046875 14.33398438 C23.43337872 16.29999324 23.36163524 18.26538369 23.28515625 20.23046875 C20.91015625 20.85546875 20.91015625 20.85546875 18.28515625 21.23046875 C15.69589294 18.64120544 15.91117582 17.20341596 15.66015625 13.60546875 C15.58539063 12.60257813 15.510625 11.5996875 15.43359375 10.56640625 C15.38460937 9.79554687 15.335625 9.0246875 15.28515625 8.23046875 C14.95515625 8.23046875 14.62515625 8.23046875 14.28515625 8.23046875 C14.23617187 8.91753906 14.1871875 9.60460937 14.13671875 10.3125 C14.06195313 11.21355469 13.9871875 12.11460938 13.91015625 13.04296875 C13.84054688 13.93628906 13.7709375 14.82960938 13.69921875 15.75 C13.28515625 18.23046875 13.28515625 18.23046875 11.28515625 21.23046875 C8.84765625 20.85546875 8.84765625 20.85546875 6.28515625 20.23046875 C4.96286436 17.58588496 5.18838431 15.55285574 5.22265625 12.60546875 C5.23167969 11.60257813 5.24070313 10.5996875 5.25 9.56640625 C5.26160156 8.79554687 5.27320313 8.0246875 5.28515625 7.23046875 C4.29515625 7.72546875 4.29515625 7.72546875 3.28515625 8.23046875 C2.89256686 10.75139048 2.89256686 10.75139048 2.78515625 13.66796875 C2.5066143 19.0090107 2.5066143 19.0090107 0.28515625 21.23046875 C-3.25055804 20.69475446 -3.25055804 20.69475446 -4.71484375 19.23046875 C-4.84147466 16.40630493 -4.90004923 13.61752082 -4.90234375 10.79296875 C-4.91458984 10.00341797 -4.92683594 9.21386719 -4.93945312 8.40039062 C-4.94471654 6.3423944 -4.8369066 4.28484866 -4.71484375 2.23046875 C-2.71484375 0.23046875 -2.71484375 0.23046875 0 0 Z " fill="#E41721" transform="translate(125.71484375,109.76953125)"/>
<path d="M0 0 C1.65 0.66 3.3 1.32 5 2 C5 3.32 5 4.64 5 6 C5.99 6.33 6.98 6.66 8 7 C8.6875 9.0625 8.6875 9.0625 9 11 C7.02 11.99 7.02 11.99 5 13 C5.02320313 13.84304687 5.04640625 14.68609375 5.0703125 15.5546875 C5.09738281 17.19824219 5.09738281 17.19824219 5.125 18.875 C5.14820313 19.96554688 5.17140625 21.05609375 5.1953125 22.1796875 C5 25 5 25 3 27 C-0.53571429 26.46428571 -0.53571429 26.46428571 -2 25 C-2.07244053 22.98035801 -2.08377188 20.95832876 -2.0625 18.9375 C-2.05347656 17.83277344 -2.04445312 16.72804688 -2.03515625 15.58984375 C-2.02355469 14.73519531 -2.01195312 13.88054687 -2 13 C-6.33229715 13.8604139 -6.33229715 13.8604139 -10 16 C-10.2819396 18.28684338 -10.44777005 20.57363273 -10.62109375 22.87109375 C-11 25 -11 25 -13 27 C-16.53571429 26.46428571 -16.53571429 26.46428571 -18 25 C-18.07325168 22.13732433 -18.09238205 19.299281 -18.0625 16.4375 C-18.05798828 15.63119141 -18.05347656 14.82488281 -18.04882812 13.99414062 C-18.03700518 11.99606244 -18.01906914 9.99802217 -18 8 C-14.71610629 6.2006999 -13.58326572 5.99220652 -10 7 C-8.65737935 6.70630173 -7.32303717 6.3721042 -6 6 C-4.68 6 -3.36 6 -2 6 C-1.855625 5.195625 -1.71125 4.39125 -1.5625 3.5625 C-1 1 -1 1 0 0 Z " fill="#E4141D" transform="translate(191,104)"/>
<path d="M0 0 C3.53571429 0.53571429 3.53571429 0.53571429 5 2 C5.04092937 4.33297433 5.04241723 6.66705225 5 9 C6.051875 8.896875 7.10375 8.79375 8.1875 8.6875 C12 9 12 9 14.875 11.125 C17.27828762 14.37650678 18 15.96893988 18 20 C16.86288536 23.5310402 15.706661 26.16247585 13.3125 29 C10.28831616 30.30775518 8.19006071 29.90366337 5 29.32421875 C2.67960903 28.89331974 2.67960903 28.89331974 -1 29 C-3.64540597 26.35459403 -2.18562153 18.62595815 -2.1875 15.0625 C-2.20586914 13.23428711 -2.20586914 13.23428711 -2.22460938 11.36914062 C-2.22654297 10.20705078 -2.22847656 9.04496094 -2.23046875 7.84765625 C-2.23457764 6.77523682 -2.23868652 5.70281738 -2.24291992 4.59790039 C-2 2 -2 2 0 0 Z M7 16 C6.34 16.66 5.68 17.32 5 18 C5.3185177 20.10820797 5.3185177 20.10820797 6 22 C7.32 22 8.64 22 10 22 C10 20.35 10 18.7 10 17 C9.01 16.67 8.02 16.34 7 16 Z " fill="#E4151E" transform="translate(71,101)"/>
<path d="M0 0 C0.99 0 1.98 0 3 0 C4.32 0 5.64 0 7 0 C8.5720124 3.14402481 8.18446744 6.48947397 8.1875 9.9375 C8.19974609 10.66646484 8.21199219 11.39542969 8.22460938 12.14648438 C8.23512685 15.9713391 8.17095624 17.74356564 6 21 C5.29875 20.814375 4.5975 20.62875 3.875 20.4375 C0.96957241 19.8243108 0.96957241 19.8243108 -2 20.625 C-5 21 -5 21 -7.75 19.875 C-10.45896092 17.61753257 -11.234795 16.44342252 -12 13 C-12.15672325 8.45502563 -11.52099796 5.71451149 -8.8125 2 C-5.50073731 -0.35503124 -3.97370476 -0.43192443 0 0 Z M-3 7 C-3.66 8.32 -4.32 9.64 -5 11 C-4.01 12.485 -4.01 12.485 -3 14 C-1.68 13.34 -0.36 12.68 1 12 C0.73323796 10.01508358 0.73323796 10.01508358 0 8 C-0.99 7.67 -1.98 7.34 -3 7 Z " fill="#E41A24" transform="translate(163,110)"/>
<path d="M0 0 C4.1558811 3.89201564 5.56118233 6.55315263 5.79492188 12.21484375 C5.80072266 12.92769531 5.80652344 13.64054687 5.8125 14.375 C5.83763672 15.11105469 5.86277344 15.84710938 5.88867188 16.60546875 C5.94703593 18.40308149 5.97650538 20.2015935 6 22 C4.02 21.67 2.04 21.34 0 21 C0.99 20.67 1.98 20.34 3 20 C3 17.03 3 14.06 3 11 C-1.19077074 12.04769269 -2.33791849 12.76747245 -5 16 C-5 16.99 -5 17.98 -5 19 C-3.68 19.66 -2.36 20.32 -1 21 C-5.58335447 21.45833545 -9.63591423 21.81795523 -13.5 19 C-16.19728781 15.76325463 -16.9514319 14.03369518 -17.17578125 9.92578125 C-16.79212514 5.72261546 -14.1479604 2.62330033 -11 0 C-7.22869715 -1.25710095 -3.70253542 -1.45795809 0 0 Z " fill="#267D1D" transform="translate(41,94)"/>
<path d="M0 0 C4.00535091 2.44771444 5.66804391 3.92602443 7.0625 8.4375 C6.97595502 13.37056358 5.6044744 16.3401989 2.1875 19.875 C-0.77734078 21.39977526 -2.70156847 21.40388958 -6 21 C-8.77428577 19.73896101 -10.48317435 18.68910086 -12.3125 16.25 C-13.31516165 12.96856187 -13.35356638 10.41780831 -13 7 C-9.47556962 0.65602531 -7.27669353 -0.72766935 0 0 Z M-4 7 C-4.66 7.66 -5.32 8.32 -6 9 C-5.67958603 11.60280568 -5.67958603 11.60280568 -5 14 C-3.68 13.67 -2.36 13.34 -1 13 C-1 11.35 -1 9.7 -1 8 C-1.99 7.67 -2.98 7.34 -4 7 Z " fill="#E41721" transform="translate(103,110)"/>
<path d="M0 0 C1.875 0.8125 1.875 0.8125 2.875 2.8125 C3.11730023 6.78663102 3.06019769 10.76930807 3.0625 14.75 C3.07474609 15.86052734 3.08699219 16.97105469 3.09960938 18.11523438 C3.10250977 19.71141602 3.10250977 19.71141602 3.10546875 21.33984375 C3.10957764 22.31687256 3.11368652 23.29390137 3.11791992 24.30053711 C2.875 26.8125 2.875 26.8125 0.875 29.8125 C-1.5625 29.4375 -1.5625 29.4375 -4.125 28.8125 C-6.18092456 24.70065087 -5.35409008 19.39415712 -5.375 14.875 C-5.395625 13.76447266 -5.41625 12.65394531 -5.4375 11.50976562 C-5.44265625 10.44564453 -5.4478125 9.38152344 -5.453125 8.28515625 C-5.4624707 7.30812744 -5.47181641 6.33109863 -5.48144531 5.32446289 C-5.125 2.8125 -5.125 2.8125 -3.73730469 0.95874023 C-2.125 -0.1875 -2.125 -0.1875 0 0 Z " fill="#E5242E" transform="translate(116.125,101.1875)"/>
<path d="M0 0 C1.32 0.33 2.64 0.66 4 1 C3.01 1 2.02 1 1 1 C1.33 2.98 1.66 4.96 2 7 C2.99 7.33 3.98 7.66 5 8 C5 7.34 5 6.68 5 6 C5.66 5.67 6.32 5.34 7 5 C7 3.68 7 2.36 7 1 C10.375 1.3125 10.375 1.3125 14 2 C16.48038907 5.7205836 16.46337203 7.59796571 16 12 C14.5 14.4375 14.5 14.4375 12 16 C8.4259887 16.63282293 5.1750863 16.7960262 2.0625 14.6875 C-0.0100175 11.39585455 -0.11156717 8.59067193 -0.0625 4.8125 C-0.05347656 3.91144531 -0.04445312 3.01039062 -0.03515625 2.08203125 C-0.02355469 1.39496094 -0.01195312 0.70789063 0 0 Z " fill="#E41B24" transform="translate(48,117)"/>
<path d="M0 0 C0.36446469 7.28929385 0.36446469 7.28929385 -1.25 10.4375 C-3.29413933 12.26262441 -4.24995486 12.91911632 -7 13 C-9.75 12 -9.75 12 -12 10 C-12.625 6.5 -12.625 6.5 -12 3 C-8.3337004 -0.44409963 -4.85225623 -0.28542684 0 0 Z M-6 1 C-6 1.99 -6 2.98 -6 4 C-5.34 4 -4.68 4 -4 4 C-4 4.66 -4 5.32 -4 6 C-3.01 6 -2.02 6 -1 6 C-1 4.35 -1 2.7 -1 1 C-2.65 1 -4.3 1 -6 1 Z " fill="#427D3A" transform="translate(47,117)"/>
<path d="M0 0 C3.0625 0.3125 3.0625 0.3125 4.9375 1.4375 C6.60913625 4.22356042 6.52626624 6.13238862 6.0625 9.3125 C4.5625 11.1875 4.5625 11.1875 2.0625 12.3125 C-0.65819588 12.54614755 -3.19616151 12.44956692 -5.9375 12.3125 C-5.6075 11.3225 -5.2775 10.3325 -4.9375 9.3125 C-4.9375 9.9725 -4.9375 10.6325 -4.9375 11.3125 C-3.2875 11.3125 -1.6375 11.3125 0.0625 11.3125 C0.0625 10.3225 0.0625 9.3325 0.0625 8.3125 C-0.5975 8.3125 -1.2575 8.3125 -1.9375 8.3125 C-1.9375 7.6525 -1.9375 6.9925 -1.9375 6.3125 C-2.9275 6.3125 -3.9175 6.3125 -4.9375 6.3125 C-5.2675 6.9725 -5.5975 7.6325 -5.9375 8.3125 C-4.92155253 0.52356942 -4.92155253 0.52356942 0 0 Z " fill="#3C7B34" transform="translate(53.9375,103.6875)"/>
</svg>
