<svg xmlns="http://www.w3.org/2000/svg" viewBox="0 0 512 512" id="bus">
  <rect width="30" height="74" x="474.5" y="145.5" fill="#bcd44c" rx="6"></rect>
  <path fill="#aece44" d="M498.5 145.5h-15a6 6 0 0 1 6 6v62a6 6 0 0 1-6 6h15a6 6 0 0 0 6-6v-62a6 6 0 0 0-6-6Z"></path>
  <rect width="30" height="74" x="7.5" y="145.5" fill="#bcd44c" rx="6" transform="rotate(180 22.5 182.5)"></rect>
  <path fill="#aece44" d="M31.5 145.5h-15a6 6 0 0 1 6 6v62a6 6 0 0 1-6 6h15a6 6 0 0 0 6-6v-62a6 6 0 0 0-6-6Z"></path>
  <rect width="368" height="429" x="72" y="7.5" fill="#bcd44c" rx="30"></rect>
  <path fill="#aece44" d="M410 7.5h-45a30 30 0 0 1 30 30v369a30 30 0 0 1-30 30h45a30 30 0 0 0 30-30v-369a30 30 0 0 0-30-30Z"></path>
  <path fill="#83c9ee" d="M440 85.5v175H72v-175z"></path>
  <path fill="#52bbe9" d="M395 85.5h45v175h-45z"></path>
  <path fill="#a8d9f5" d="M263.5 85.5v175a7.5 7.5 0 0 1-15 0v-175Z"></path>
  <path fill="#aece44" d="M410 320.5H102a30 30 0 0 1-30-30v-30h368v30a30 30 0 0 1-30 30Z"></path>
  <circle cx="382" cy="378.5" r="28" fill="#fddd5a"></circle>
  <path fill="#fed030" d="M382 350.5a28.005 28.005 0 0 0-7.5 1.024 27.999 27.999 0 0 1 0 53.952A28 28 0 1 0 382 350.5Z"></path>
  <circle cx="130" cy="378.5" r="28" fill="#fddd5a"></circle>
  <path fill="#fed030" d="M130 350.5a28.005 28.005 0 0 0-7.5 1.024 27.999 27.999 0 0 1 0 53.952A28 28 0 1 0 130 350.5Z"></path>
  <path fill="#787681" d="M103 436.5h66v53a15 15 0 0 1-15 15h-36a15 15 0 0 1-15-15v-53Z"></path>
  <path fill="#57565c" d="M139 436.5v53a15 15 0 0 1-15 15h30a15 15 0 0 0 15-15v-53Z"></path>
  <path fill="#787681" d="M343 436.5h66v53a15 15 0 0 1-15 15h-36a15 15 0 0 1-15-15v-53Z"></path>
  <path fill="#57565c" d="M379 436.5v53a15 15 0 0 1-15 15h30a15 15 0 0 0 15-15v-53Z"></path>
  <path fill="#787681" d="M504.5 512H7.5a7.5 7.5 0 0 1 0-15h497a7.5 7.5 0 0 1 0 15Z"></path>
  <rect width="136" height="56" x="188" y="350.5" fill="#fff" rx="15"></rect>
  <path fill="#e1e1e3" d="M309 350.5h-45a15 15 0 0 1 15 15v26a15 15 0 0 1-15 15h45a15 15 0 0 0 15-15v-26a15 15 0 0 0-15-15Z"></path>
  <path fill="#3c3b41" d="M395 39a7.5 7.5 0 1 0 7.5 7.5A7.5 7.5 0 0 0 395 39Zm85.5 99a13.515 13.515 0 0 0-13.5 13.5v62a13.515 13.515 0 0 0 13.5 13.5h18a13.515 13.515 0 0 0 13.5-13.5v-62a13.515 13.515 0 0 0-13.5-13.5H497v-15.5a14.517 14.517 0 0 0-14.5-14.5h-35V37.5A37.542 37.542 0 0 0 410 0H102a37.542 37.542 0 0 0-37.5 37.5V108h-35A14.517 14.517 0 0 0 15 122.5V138h-1.5A13.515 13.515 0 0 0 0 151.5v62A13.515 13.515 0 0 0 13.5 227h18A13.515 13.515 0 0 0 45 213.5v-62A13.515 13.515 0 0 0 31.5 138H30v-15h34.5v283.5a37.553 37.553 0 0 0 31 36.925V489.5a22.393 22.393 0 0 0 1.29 7.5H7.5a7.5 7.5 0 0 0 0 15h497a7.5 7.5 0 0 0 0-15h-89.29a22.393 22.393 0 0 0 1.29-7.5v-46.075a37.553 37.553 0 0 0 31-36.925V123H482v15ZM30 212H15v-59h15ZM79.5 93h169v160h-169Zm82 396.5a7.508 7.508 0 0 1-7.5 7.5h-36a7.508 7.508 0 0 1-7.5-7.5V444h51Zm13.71 7.5a22.393 22.393 0 0 0 1.29-7.5V444h159v45.5a22.393 22.393 0 0 0 1.29 7.5Zm226.29-7.5a7.508 7.508 0 0 1-7.5 7.5h-36a7.508 7.508 0 0 1-7.5-7.5V444h51Zm31-83A22.526 22.526 0 0 1 410 429H102a22.526 22.526 0 0 1-22.5-22.5v-86.02A37.304 37.304 0 0 0 102 328h308a37.304 37.304 0 0 0 22.5-7.52Zm0-116A22.526 22.526 0 0 1 410 313H102a22.526 22.526 0 0 1-22.5-22.5V268h353Zm0-37.5h-169V93h169Zm0-175h-353V37.5A22.526 22.526 0 0 1 102 15h308a22.526 22.526 0 0 1 22.5 22.5Zm64.5 75v59h-15v-59ZM309 343H203a22.526 22.526 0 0 0-22.5 22.5v26A22.526 22.526 0 0 0 203 414h106a22.526 22.526 0 0 0 22.5-22.5v-26A22.526 22.526 0 0 0 309 343Zm7.5 48.5a7.508 7.508 0 0 1-7.5 7.5H203a7.508 7.508 0 0 1-7.5-7.5v-26a7.508 7.508 0 0 1 7.5-7.5h106a7.508 7.508 0 0 1 7.5 7.5ZM130 343a35.5 35.5 0 1 0 35.5 35.5A35.54 35.54 0 0 0 130 343Zm0 56a20.5 20.5 0 1 1 20.5-20.5A20.523 20.523 0 0 1 130 399Zm252-56a35.5 35.5 0 1 0 35.5 35.5A35.54 35.54 0 0 0 382 343Zm0 56a20.5 20.5 0 1 1 20.5-20.5A20.523 20.523 0 0 1 382 399ZM116.473 39a7.5 7.5 0 1 0 7.5 7.5 7.5 7.5 0 0 0-7.5-7.5ZM354 39H158a7.5 7.5 0 0 0 0 15h196a7.5 7.5 0 0 0 0-15Z"></path>
</svg>
