<svg xmlns="http://www.w3.org/2000/svg" viewBox="0 0 32 32" id="cold-drink">
  <path fill="none" stroke="#231f20" stroke-linecap="round" stroke-linejoin="round" stroke-width="2" d="M24.45,6.77l0,.19c-2.45.17-5.36.29-8.63.28-3.1,0-5.86-.12-8.21-.27l0-.2C7.25,4.74,7.9,3,9,3H23C24.1,3,24.75,4.74,24.45,6.77Z"></path>
  <path fill="none" stroke="#231f20" stroke-linecap="round" stroke-linejoin="round" stroke-width="2" d="M24.42,7.18l-3,20.4A1.56,1.56,0,0,1,20.08,29H11.92a1.56,1.56,0,0,1-1.38-1.42l-3-20.39c2.35.15,5.11.27,8.21.27C19.06,7.47,22,7.35,24.42,7.18Z"></path>
  <rect width="4.88" height="4.88" x="11.14" y="14.96" fill="none" stroke="#231f20" stroke-miterlimit="10" stroke-width="2" rx="1.61" transform="rotate(16.7 13.584 17.39)"></rect>
  <rect width="3.93" height="3.93" x="16.29" y="23.99" fill="none" stroke="#231f20" stroke-miterlimit="10" stroke-width="2" rx="1.3" transform="rotate(-16.26 18.255 25.965)"></rect>
  <rect width="3.93" height="3.93" x="11.19" y="21.76" fill="none" stroke="#231f20" stroke-miterlimit="10" stroke-width="2" rx="1.3" transform="rotate(50.11 13.15 23.725)"></rect>
  <rect width="4.13" height="4.13" x="16.88" y="17.86" fill="none" stroke="#231f20" stroke-miterlimit="10" stroke-width="2" rx="1.37" transform="rotate(-7.14 18.95 19.928)"></rect>
  <circle cx="18.48" cy="12.25" r=".5" fill="#231f20"></circle>
  <circle cx="19.98" cy="10.75" r=".78" fill="#231f20"></circle>
  <circle cx="15.35" cy="9.64" r=".78" fill="#231f20"></circle>
  <circle cx="18.26" cy="16" r=".78" fill="#231f20"></circle>
  <circle cx="19.63" cy="13.99" r=".5" fill="#231f20"></circle>
  <circle cx="17.48" cy="14.25" r=".5" fill="#231f20"></circle>
  <circle cx="14.24" cy="11.14" r=".5" fill="#231f20"></circle>
  <circle cx="17.18" cy="10.14" r=".5" fill="#231f20"></circle>
  <circle cx="16.88" cy="11.41" r=".5" fill="#231f20"></circle>
  <circle cx="15.17" cy="13.25" r=".5" fill="#231f20"></circle>
  <circle cx="10.75" cy="11.14" r=".5" fill="#231f20"></circle>
  <circle cx="12.48" cy="9.25" r=".5" fill="#231f20"></circle>
  <circle cx="12.48" cy="12.25" r=".5" fill="#231f20"></circle>
  <circle cx="10.99" cy="13.49" r=".5" fill="#231f20"></circle>
</svg>
