<svg xmlns="http://www.w3.org/2000/svg" viewBox="0 0 64 64" id="drink">
  <path fill="#d63e58" d="M59 27v30H37V27l2-2h18l2 2z"></path>
  <path fill="#d64d6b" d="M54 25v16.38A15.609 15.609 0 0 1 38.38 57H37V27l2-2Z"></path>
  <path fill="#ccc" d="m58 57-1 4H37v-4h21z"></path>
  <path fill="#dbdbdb" d="m57 57-1 4H37v-4h20z"></path>
  <path fill="#ccc" d="M39 23h18v2H39z"></path>
  <path fill="#dbdbdb" d="M39 23h17v2H39z"></path>
  <path fill="#c63454" d="M52 35h7v14h-7z"></path>
  <path fill="#d13b62" d="M54 35v6.38A15.55 15.55 0 0 1 52.02 49H37V35Z"></path>
  <path fill="#e5e5e5" d="M24.32 35.98a12.78 12.78 0 0 0 .02 8.04 12.621 12.621 0 0 1 .66 4.04V58a3 3 0 0 1-3 3h-1a3 3 0 0 1-3-3 3.059 3.059 0 0 1-.5 1.66A2.987 2.987 0 0 1 15 61a2.071 2.071 0 0 1-.5-.05A2.982 2.982 0 0 1 12 58a3.059 3.059 0 0 1-.5 1.66A2.987 2.987 0 0 1 9 61H8a3 3 0 0 1-3-3v-9.85a12.838 12.838 0 0 1 .63-3.98l.06-.16A12.828 12.828 0 0 0 5.67 36l-.01-.03c-.11-.32-.2-.64-.28-.97A12.777 12.777 0 0 1 5 31.93V28a14.806 14.806 0 0 1 .86-5A15.29 15.29 0 0 1 8 19a14.746 14.746 0 0 0 1.74-3c.18-.41.35-.83.49-1.26A14.9 14.9 0 0 0 11 10V7h8v3a14.842 14.842 0 0 0 1.26 6A14.746 14.746 0 0 0 22 19a15.29 15.29 0 0 1 2.14 4c.03.09.06.17.09.26A14.9 14.9 0 0 1 25 28v3.88a12.641 12.641 0 0 1-.39 3.12c-.07.29-.16.58-.25.87Z"></path>
  <path fill="#5b4541" d="M24.32 35.98a12.78 12.78 0 0 0 .02 8.04 12.621 12.621 0 0 1 .66 4.04V58a3 3 0 0 1-3 3h-1a3 3 0 0 1-3-3 3.059 3.059 0 0 1-.5 1.66A2.987 2.987 0 0 1 15 61a2.071 2.071 0 0 1-.5-.05.014.014 0 0 1-.02 0A2.989 2.989 0 0 1 12 58a3.059 3.059 0 0 1-.5 1.66A2.987 2.987 0 0 1 9 61H8a2.845 2.845 0 0 1-.88-.14h-.01A2.974 2.974 0 0 1 5 58v-9.85a12.838 12.838 0 0 1 .63-3.98l.06-.16c.07-.22.13-.45.19-.67s.12-.46.16-.68q.09-.435.15-.87a4.087 4.087 0 0 0 .07-.6 1.841 1.841 0 0 0 .03-.33c.02-.26.03-.53.03-.79A13.173 13.173 0 0 0 5.67 36l-.01-.03c-.11-.32-.2-.64-.28-.97A12.777 12.777 0 0 1 5 31.93V28a14.806 14.806 0 0 1 .86-5A15.29 15.29 0 0 1 8 19a14.746 14.746 0 0 0 1.74-3h10.52A14.746 14.746 0 0 0 22 19a11.239 11.239 0 0 1 .87 1.33A14.188 14.188 0 0 1 24.14 23c.03.09.06.17.09.26A14.9 14.9 0 0 1 25 28v3.88a12.641 12.641 0 0 1-.39 3.12c-.07.29-.16.58-.25.87Z"></path>
  <path fill="#63514e" d="M18 16v26A16 16 0 0 1 5 57.72v-9.57a12.838 12.838 0 0 1 .63-3.98l.06-.16c.07-.22.13-.45.19-.67s.12-.46.16-.68q.09-.435.15-.87a4.087 4.087 0 0 0 .07-.6 1.841 1.841 0 0 0 .03-.33c.02-.26.03-.53.03-.79A13.173 13.173 0 0 0 5.67 36l-.01-.03c-.11-.32-.2-.64-.28-.97A12.777 12.777 0 0 1 5 31.93V28a14.806 14.806 0 0 1 .86-5A15.29 15.29 0 0 1 8 19a14.746 14.746 0 0 0 1.74-3Z"></path>
  <path fill="#d63e58" d="M20 4v3H10V4a1 1 0 0 1 1-1h8a1 1 0 0 1 1 1Z"></path>
  <path fill="#d64d6b" d="M18 4v3h-8V4a1 1 0 0 1 1-1h6a1 1 0 0 1 1 1Z"></path>
  <path fill="#d63e58" d="M25 28v3.88a12.641 12.641 0 0 1-.39 3.12H5.38a13.46 13.46 0 0 1-.34-2.08c-.03-.33-.04-.66-.04-.99V28a14.767 14.767 0 0 1 .3-2.98A14.052 14.052 0 0 1 5.86 23h18.28c.03.09.06.17.09.26A14.9 14.9 0 0 1 25 28Z"></path>
  <path fill="#dd5f80" d="M54 25a2.015 2.015 0 0 1-2 2h-4a2.006 2.006 0 0 1-2-2Z"></path>
  <path fill="#b3e9f2" d="M40 31v9.76A9.474 9.474 0 0 1 39 45a9.474 9.474 0 0 0-1 4.24V60a1 1 0 0 1-1 1H25a1 1 0 0 1-1-1V49.24A9.474 9.474 0 0 0 23 45a9.474 9.474 0 0 1-1-4.24V31Z"></path>
  <path fill="#684e48" d="M40 39v1.76A9.474 9.474 0 0 1 39 45a9.474 9.474 0 0 0-1 4.24V55a2.006 2.006 0 0 1-2 2H26a1.97 1.97 0 0 1-1.07-.31A2 2 0 0 1 24 55v-5.76A9.474 9.474 0 0 0 23 45a9.474 9.474 0 0 1-1-4.24V36h4.5a7.534 7.534 0 0 1 4.5 1.5 7.46 7.46 0 0 0 3 1.34 6.824 6.824 0 0 0 1.5.16Z"></path>
  <path fill="#755854" d="M34 38.84v6.4a11.756 11.756 0 0 1-9.07 11.45A2 2 0 0 1 24 55v-5.76A9.474 9.474 0 0 0 23 45a9.474 9.474 0 0 1-1-4.24V36h4.5a7.534 7.534 0 0 1 4.5 1.5 7.46 7.46 0 0 0 3 1.34Z"></path>
  <path fill="#75625f" d="M26 41h2v2h-2z"></path>
  <path fill="#725d59" d="M34 42h2v2h-2z"></path>
  <path fill="#75625f" d="M30 49h2v2h-2z"></path>
  <path fill="#dd5f80" d="M45 25a2.015 2.015 0 0 1-2 2h-2a2.006 2.006 0 0 1-2-2zM17 3a1.955 1.955 0 0 1-.59 1.41A1.955 1.955 0 0 1 15 5h-2a2.006 2.006 0 0 1-2-2z"></path>
  <path fill="#d64d6b" d="M18 23v12H5.38a13.46 13.46 0 0 1-.34-2.08c-.03-.33-.04-.66-.04-.99V28a14.767 14.767 0 0 1 .3-2.98A14.052 14.052 0 0 1 5.86 23Z"></path>
  <path fill="#ea5785" d="M7 26.5v5A1.5 1.5 0 0 1 5.5 33a1.389 1.389 0 0 1-.46-.08c-.03-.33-.04-.66-.04-.99V28a14.767 14.767 0 0 1 .3-2.98.648.648 0 0 1 .2-.02A1.5 1.5 0 0 1 7 26.5Z"></path>
  <path fill="#f2f2f2" d="M18 7v9H9.74c.18-.41.35-.83.49-1.26A14.9 14.9 0 0 0 11 10V7Z"></path>
  <path fill="#d4f6fc" d="M34 31v7.84a7.46 7.46 0 0 1-3-1.34 7.534 7.534 0 0 0-4.5-1.5H22v-5Z"></path>
  <path fill="#fff" d="M30 31a2.015 2.015 0 0 1-2 2h-2a2.006 2.006 0 0 1-2-2Z"></path>
  <path d="M21 31v9.764a10.53 10.53 0 0 0 1.105 4.683A8.509 8.509 0 0 1 23 49.236V60a2 2 0 0 0 2 2h12a2 2 0 0 0 2-2V49.236a8.509 8.509 0 0 1 .9-3.789 10.53 10.53 0 0 0 1.1-4.683V31a1 1 0 0 0-1-1H22a1 1 0 0 0-1 1Zm4 29v-2.184A2.966 2.966 0 0 0 26 58h10a2.966 2.966 0 0 0 1-.184V60Zm13.1-15.447a10.53 10.53 0 0 0-1.1 4.683V55a1 1 0 0 1-1 1H26a1 1 0 0 1-1-1v-5.764a10.53 10.53 0 0 0-1.1-4.683 8.509 8.509 0 0 1-.9-3.789V37h3.5a6.544 6.544 0 0 1 3.9 1.3 8.556 8.556 0 0 0 5.1 1.7H39v.764a8.509 8.509 0 0 1-.9 3.789ZM39 32v6h-3.5a6.544 6.544 0 0 1-3.9-1.3 8.556 8.556 0 0 0-5.1-1.7H23v-3Z"></path>
  <path d="M26 41h2v2h-2zM34 42h2v2h-2zM30 49h2v2h-2zM57 22H39a1 1 0 0 0-1 1v1.586l-1.707 1.707A1 1 0 0 0 36 27v1h2v-.586l1.707-1.707A1 1 0 0 0 40 25v-1h16v1a1 1 0 0 0 .293.707L58 27.414V34H43v2h15v12H41v2h17v6H41v2h15.719l-.5 2H41v2h16a1 1 0 0 0 .97-.757L58.781 58H59a1 1 0 0 0 1-1V27a1 1 0 0 0-.293-.707L58 24.586V23a1 1 0 0 0-1-1zM4.684 43.864A13.729 13.729 0 0 0 4 48.148V58a4 4 0 0 0 4 4h1a3.99 3.99 0 0 0 3-1.357 3.995 3.995 0 0 0 6 0A3.99 3.99 0 0 0 21 62v-2a2 2 0 0 1-2-2 1 1 0 0 0-2 0 2 2 0 0 1-4 0 1 1 0 0 0-2 0 2 2 0 0 1-2 2H8a2 2 0 0 1-2-2v-9.852a11.791 11.791 0 0 1 .584-3.664l.054-.163A13.878 13.878 0 0 0 6.705 36H19v-2H6.19A11.78 11.78 0 0 1 6 31.927V28a13.958 13.958 0 0 1 .6-4h16.8a13.958 13.958 0 0 1 .6 4h2a16.1 16.1 0 0 0-3.2-9.6A14.094 14.094 0 0 1 20 10V8a1 1 0 0 0 1-1V4a2 2 0 0 0-2-2h-8a2 2 0 0 0-2 2v3a1 1 0 0 0 1 1v2a14.094 14.094 0 0 1-2.8 8.4A16.1 16.1 0 0 0 4 28v3.927a13.808 13.808 0 0 0 .717 4.387 11.855 11.855 0 0 1 .02 7.386zM11 4h8v2h-8zm1 6V8h6v2a16.1 16.1 0 0 0 3.2 9.6 13.9 13.9 0 0 1 1.433 2.4H7.367A13.9 13.9 0 0 1 8.8 19.6 16.1 16.1 0 0 0 12 10z"></path>
</svg>
