<svg xmlns="http://www.w3.org/2000/svg" viewBox="0 0 64 64" id="fruit">
  <path fill="#f7e945" d="M43.951 19H43a15.218 15.218 0 00-9.671 3.468L37 24.251l.235-.059A6.39 6.39 0 0138.79 24h0a6.422 6.422 0 014.578 1.919L46 23zM53.984 25.366a15.27 15.27 0 017.844 7.291L62 33V30h0a8.842 8.842 0 00-7.962-8.8l-.312-.031"></path>
  <path fill="#f7b545" d="M42.7,49.721l4.447-5.4A30.042,30.042,0,0,0,54,25.22h0A30.047,30.047,0,0,0,47.768,6.9L44.8,3.046A2.676,2.676,0,0,0,42.68,2h0A2.68,2.68,0,0,0,40,4.68h0a6.854,6.854,0,0,0,.49,2.546l1.835,4.585A23.442,23.442,0,0,1,44,20.511h0a23.421,23.421,0,0,1-2.413,10.356L32,49Z"></path>
  <path fill="#ffe1aa" d="M54,25.22A30.047,30.047,0,0,0,47.768,6.9L44.8,3.046A2.679,2.679,0,0,0,40,4.68h0a6.854,6.854,0,0,0,.49,2.546l1.835,4.585a23.306,23.306,0,0,1,1.138,13.65l.006.008.412.412a7.233,7.233,0,0,0,8.837,1.088l1.261-.756c.01-.331.021-.661.021-.993Z"></path>
  <path fill="#ffe9ca" d="M52.718,26.969l.265-.159A30.04,30.04,0,0,0,46.768,8.9L43.8,5.046A2.656,2.656,0,0,0,40.008,4.6c0,.027-.008.052-.008.079h0a6.854,6.854,0,0,0,.49,2.546l1.835,4.585a23.306,23.306,0,0,1,1.138,13.65l.006.008.412.412a7.233,7.233,0,0,0,8.837,1.088Z"></path>
  <path fill="#e9353f" d="M38.687,48.862A22.433,22.433,0,0,0,42,37.123V34A12,12,0,0,0,30,22h0a6,6,0,0,0-4.8,2.4h0A4,4,0,0,1,22,26h0a4,4,0,0,1-3.2-1.6h0A6,6,0,0,0,14,22h0A12,12,0,0,0,2,34v3.123A22.453,22.453,0,0,0,14.41,57.205h0a7.531,7.531,0,0,0,3.368.8h0a7.529,7.529,0,0,0,2.381-.386L22,57l1.841.614A7.529,7.529,0,0,0,26.222,58h0a7.518,7.518,0,0,0,3.126-.68Z"></path>
  <path fill="#ff4b50" d="M30,22a6,6,0,0,0-4.8,2.4,4,4,0,0,1-6.4,0A6,6,0,0,0,14,22a11.93,11.93,0,0,0-7.419,2.581A11.93,11.93,0,0,0,4,32v3.123A22.453,22.453,0,0,0,16.41,55.205a7.534,7.534,0,0,0,5.749.409L24,55l1.841.614a7.53,7.53,0,0,0,5.507-.294l7.559-6.846A22.417,22.417,0,0,0,42,37.123V34A12,12,0,0,0,30,22Z"></path>
  <path fill="#f7b545" d="M22.75,51.825h0A31.082,31.082,0,0,0,45.751,62h1.106a16.155,16.155,0,0,0,10.734-4.081h0A13.138,13.138,0,0,0,62,48.1h0a13.139,13.139,0,0,0-1.387-5.875l-1.288-2.577A3.069,3.069,0,0,1,59,38.274h0a3.075,3.075,0,0,1,.9-2.175L61,35h0a6.709,6.709,0,0,0-3-3h0l-4,2,.24.479A7.2,7.2,0,0,1,55,37.7h0q0,.3-.025.6l-.229,2.754A9.759,9.759,0,0,1,45.022,50h0A9.661,9.661,0,0,1,43,49.786l-8-1.714A48.257,48.257,0,0,0,24.885,47h0A2.885,2.885,0,0,0,22,49.885h0A2.883,2.883,0,0,0,22.75,51.825Z"></path>
  <path fill="#f9cb52" d="M23.408,47.408,21,45h0a3.618,3.618,0,0,0-2,3.236V49l3.328,2.219"></path>
  <path fill="#ff797b" d="M10.5,50.7A19.3,19.3,0,0,1,5,37.123H7A17.312,17.312,0,0,0,11.933,49.3Z"></path>
  <path fill="#916657" d="M23,26H21a13.9,13.9,0,0,0-5.019-10.713l-.622-.518,1.282-1.538.622.519A15.908,15.908,0,0,1,23,26Z"></path>
  <path fill="#80ac00" d="M22,22V17.95A4.95,4.95,0,0,1,26.95,13h0a4.948,4.948,0,0,0,3.5-1.45L32,10V13.4a6.463,6.463,0,0,1-5.549,6.4h0a6.462,6.462,0,0,0-2.671,1.02Z"></path>
  <path fill="#8bc000" d="M26.95,13A4.95,4.95,0,0,0,22,17.95v1.734a6.442,6.442,0,0,1,2.451-.891h0A6.463,6.463,0,0,0,30,12.4v-.476A4.934,4.934,0,0,1,26.95,13Z"></path>
  <path fill="#ffe1aa" d="M50,30.356H48V27.849A45.1,45.1,0,0,0,44.086,9.406l1.828-.812A47.112,47.112,0,0,1,50,27.849Z"></path>
  <path fill="#f7e945" d="M58.613,40.226l-1.288-2.577A3.074,3.074,0,0,1,57.9,34.1L59,33a6.653,6.653,0,0,0-.377-.623A6.653,6.653,0,0,0,58,32l-4,2,.24.479A7.2,7.2,0,0,1,55,37.7q0,.3-.025.6l-.229,2.754A9.759,9.759,0,0,1,45.022,50,9.661,9.661,0,0,1,43,49.786l-8-1.714A48.257,48.257,0,0,0,24.885,47a2.883,2.883,0,0,0-2.143,4.814A31.075,31.075,0,0,0,43.751,60h1.106a16.155,16.155,0,0,0,10.734-4.081,13.136,13.136,0,0,0,3.022-15.693Z"></path>
  <path fill="#f7e945" d="M53.984,26.21l-1.266.759A7.23,7.23,0,0,1,49,28h0a7.234,7.234,0,0,1-5.115-2.119l-.412-.412.2.737A36.6,36.6,0,0,1,45,35.974h0A2.026,2.026,0,0,0,47.026,38h0a2.026,2.026,0,0,0,1.582-.76h0a27.443,27.443,0,0,0,4.914-9.451Z"></path>
  <path d="M5,37.123A19.3,19.3,0,0,0,10.5,50.7l1.43-1.4A17.312,17.312,0,0,1,7,37.123Z"></path>
  <path d="M54.593,20.274A31.229,31.229,0,0,0,48.562,6.29L45.6,2.436A3.68,3.68,0,0,0,39,4.68,7.807,7.807,0,0,0,39.562,7.6L41.4,12.184a22.324,22.324,0,0,1,1.45,5.823A16.252,16.252,0,0,0,33.1,21.389,12.936,12.936,0,0,0,30,21a7.035,7.035,0,0,0-5.6,2.8,3,3,0,0,1-1.464,1.029,15.957,15.957,0,0,0-.278-2.066l1.677-1.117a5.467,5.467,0,0,1,2.258-.863A7.5,7.5,0,0,0,33,13.4V10a1,1,0,0,0-1.707-.707l-1.55,1.55A3.924,3.924,0,0,1,26.95,12,5.957,5.957,0,0,0,21,17.95v.356a15.934,15.934,0,0,0-3.737-4.556l-.622-.519-1.282,1.538.622.518a13.889,13.889,0,0,1,4.952,9.495A3,3,0,0,1,19.6,23.8,7.033,7.033,0,0,0,14,21,13.015,13.015,0,0,0,1,34v3.123A23.327,23.327,0,0,0,13.963,58.1a8.62,8.62,0,0,0,6.513.462L22,58.054l1.524.508a8.438,8.438,0,0,0,5.745-.137A32.121,32.121,0,0,0,45.751,63h1.106a17.136,17.136,0,0,0,11.4-4.334,14.136,14.136,0,0,0,3.253-16.887L60.219,39.2A2.094,2.094,0,0,1,60,38.274a2.063,2.063,0,0,1,.607-1.467l1.1-1.1a1,1,0,0,0,.188-1.154,7.619,7.619,0,0,0-.433-.714A.99.99,0,0,0,62,34a1.01,1.01,0,0,0,.23-.027A1,1,0,0,0,63,33V30A9.8,9.8,0,0,0,54.593,20.274ZM23,17.95A3.955,3.955,0,0,1,26.95,14,5.9,5.9,0,0,0,31,12.408V13.4A5.49,5.49,0,0,1,26.311,18.8a7.5,7.5,0,0,0-3.085,1.178L23,20.132ZM54,37.7c0,.173-.007.344-.021.516L53.75,40.97A8.811,8.811,0,0,1,45.021,49c-.138,0-.275-.015-.413-.022l3.312-4.021a31.087,31.087,0,0,0,5.474-9.916A6.231,6.231,0,0,1,54,37.7Zm-7.624,5.986-4.061,4.931-2.087-.447A23.427,23.427,0,0,0,43,37.123V34a12.976,12.976,0,0,0-.367-3.015c.262-.553.5-1.118.722-1.69A35.62,35.62,0,0,1,44,35.974a3.027,3.027,0,0,0,5.39,1.89,28.643,28.643,0,0,0,1.723-2.4A29.068,29.068,0,0,1,46.376,43.686ZM39.407,25.053a5.508,5.508,0,0,1,2.833,1.2c-.176.664-.377,1.322-.613,1.967A13.03,13.03,0,0,0,39.407,25.053ZM52.318,28.3a26.306,26.306,0,0,1-4.49,8.314A1.026,1.026,0,0,1,46,35.974a37.541,37.541,0,0,0-.844-7.919A8.372,8.372,0,0,0,52.318,28.3ZM41,4.68a1.68,1.68,0,0,1,3.011-1.025l2.965,3.854A29.212,29.212,0,0,1,53,25.221c0,.142-.016.282-.018.424l-.779.466a6.218,6.218,0,0,1-2.227.8,47.09,47.09,0,0,0-4.062-18.32l-1.828.812a45.083,45.083,0,0,1,3.89,17.505,6.187,6.187,0,0,1-3.388-1.737l-.041-.041A24.215,24.215,0,0,0,43.253,11.44L41.419,6.854A5.819,5.819,0,0,1,41,4.68ZM42.976,20c0,.171.024.339.024.511a22.31,22.31,0,0,1-.3,3.62,7.531,7.531,0,0,0-5.5-.948,13.013,13.013,0,0,0-1.774-.982A14.247,14.247,0,0,1,42.976,20ZM24.157,56.664l-1.841-.612a.991.991,0,0,0-.632,0l-1.841.613a6.619,6.619,0,0,1-4.986-.354A21.338,21.338,0,0,1,3,37.123V34A11.013,11.013,0,0,1,14,23a5.023,5.023,0,0,1,4,2,5,5,0,0,0,8,0,5.025,5.025,0,0,1,4-2A11.013,11.013,0,0,1,41,34v3.123a21.445,21.445,0,0,1-2.82,10.608L35.212,47.1A49.31,49.31,0,0,0,24.885,46a3.82,3.82,0,0,0-1.247.224l-1.931-1.931a1,1,0,0,0-1.154-.188A4.6,4.6,0,0,0,18,48.236V49a1,1,0,0,0,.445.832l3.13,2.087a3.9,3.9,0,0,0,.435.578h0A31.971,31.971,0,0,0,27,56.946,6.529,6.529,0,0,1,24.157,56.664ZM20,48.465v-.229a2.6,2.6,0,0,1,.871-1.951l1.081,1.081a3.86,3.86,0,0,0-.881,1.813ZM61,48.1a12.147,12.147,0,0,1-4.073,9.071A15.143,15.143,0,0,1,46.857,61H45.751A30.143,30.143,0,0,1,23.49,51.152h0A1.885,1.885,0,0,1,24.885,48a47.4,47.4,0,0,1,9.907,1.05l8,1.714a10.623,10.623,0,0,0,2.23.236,10.821,10.821,0,0,0,10.721-9.864l.23-2.754Q56,38.042,56,37.7a8.251,8.251,0,0,0-.671-3.247l2.648-1.323a5.761,5.761,0,0,1,1.773,1.706l-.557.557A4.049,4.049,0,0,0,58,38.274a4.1,4.1,0,0,0,.43,1.823l1.289,2.577A12.2,12.2,0,0,1,61,48.1Zm-2.553-17a1,1,0,0,0-.894,0l-3.518,1.759a31,31,0,0,0,.911-5.928A14.266,14.266,0,0,1,60.935,33.1l.019.04A7.739,7.739,0,0,0,58.447,31.105Zm-3.468-6.387c-.013-.792-.052-1.582-.126-2.369a7.806,7.806,0,0,1,6.128,7.107A16.251,16.251,0,0,0,54.979,24.718Z"></path>
</svg>
