<svg xmlns="http://www.w3.org/2000/svg" fill-rule="evenodd" stroke-linejoin="round" stroke-miterlimit="2" clip-rule="evenodd" viewBox="0 0 32 32" id="internet">
  <path d="M22.5,103.5L22.5,90C22.5,89.602 22.658,89.221 22.939,88.939C23.221,88.658 23.602,88.5 24,88.5C24,88.5 24,88.5 24,89L24,88.5C24.398,88.5 24.779,88.658 25.061,88.939C25.342,89.221 25.5,89.602 25.5,90L25.5,103.5L27,103.5C28.381,103.5 29.5,104.619 29.5,106L29.5,108C29.5,109.381 28.381,110.5 27,110.5L26.5,110.5L26.5,111C26.5,111.828 25.828,112.5 25,112.5C24.389,112.5 23.611,112.5 23,112.5C22.172,112.5 21.5,111.828 21.5,111L21.5,110.5L10.5,110.5L10.5,111C10.5,111.828 9.828,112.5 9,112.5C8.389,112.5 7.611,112.5 7,112.5C6.172,112.5 5.5,111.828 5.5,111L5.5,110.5L5,110.5C3.619,110.5 2.5,109.381 2.5,108C2.5,107.356 2.5,106.644 2.5,106C2.5,104.619 3.619,103.5 5,103.5L6.5,103.5L6.5,90C6.5,89.602 6.658,89.221 6.939,88.939C7.221,88.658 7.602,88.5 8,88.5C8,88.5 8,88.5 8,89L8,88.5C8.398,88.5 8.779,88.658 9.061,88.939C9.342,89.221 9.5,89.602 9.5,90L9.5,103.5L22.5,103.5ZM25.5,110.5L22.5,110.5L22.5,111C22.5,111.276 22.724,111.5 23,111.5C23.611,111.5 24.389,111.5 25,111.5C25.276,111.5 25.5,111.276 25.5,111L25.5,110.5ZM9.5,110.5L6.5,110.5L6.5,111C6.5,111.276 6.724,111.5 7,111.5C7.611,111.5 8.389,111.5 9,111.5C9.276,111.5 9.5,111.276 9.5,111L9.5,110.5ZM27,104.5L5,104.5C4.172,104.5 3.5,105.172 3.5,106C3.5,106.644 3.5,107.356 3.5,108C3.5,108.828 4.172,109.5 5,109.5C9.843,109.5 22.157,109.5 27,109.5C27.828,109.5 28.5,108.828 28.5,108L28.5,106C28.5,105.172 27.828,104.5 27,104.5ZM24,105.5C23.172,105.5 22.5,106.172 22.5,107C22.5,107.828 23.172,108.5 24,108.5C24.828,108.5 25.5,107.828 25.5,107C25.5,106.172 24.828,105.5 24,105.5ZM20,105.5C19.172,105.5 18.5,106.172 18.5,107C18.5,107.828 19.172,108.5 20,108.5C20.828,108.5 21.5,107.828 21.5,107C21.5,106.172 20.828,105.5 20,105.5ZM7,108.5L15,108.5C15.276,108.5 15.5,108.276 15.5,108C15.5,107.724 15.276,107.5 15,107.5L7,107.5C6.724,107.5 6.5,107.724 6.5,108C6.5,108.276 6.724,108.5 7,108.5ZM24,106.5C24.276,106.5 24.5,106.724 24.5,107C24.5,107.276 24.276,107.5 24,107.5C23.724,107.5 23.5,107.276 23.5,107C23.5,106.724 23.724,106.5 24,106.5ZM20,106.5C20.276,106.5 20.5,106.724 20.5,107C20.5,107.276 20.276,107.5 20,107.5C19.724,107.5 19.5,107.276 19.5,107C19.5,106.724 19.724,106.5 20,106.5ZM7,106.5L15,106.5C15.276,106.5 15.5,106.276 15.5,106C15.5,105.724 15.276,105.5 15,105.5L7,105.5C6.724,105.5 6.5,105.724 6.5,106C6.5,106.276 6.724,106.5 7,106.5ZM8.5,103.5L8.5,90C8.5,89.867 8.447,89.74 8.354,89.646C8.26,89.553 8.133,89.5 8,89.5L8,89L8,89.5C7.867,89.5 7.74,89.553 7.646,89.646C7.553,89.74 7.5,89.867 7.5,90L7.5,103.5L8.5,103.5ZM24.5,103.5L24.5,90C24.5,89.867 24.447,89.74 24.354,89.646C24.26,89.553 24.133,89.5 24,89.5L24,89L24,89.5C23.867,89.5 23.74,89.553 23.646,89.646C23.553,89.74 23.5,89.867 23.5,90L23.5,103.5L24.5,103.5ZM13.544,101.23C14.25,100.768 15.094,100.5 16,100.5C16.906,100.5 17.75,100.768 18.456,101.23C18.687,101.381 18.997,101.316 19.148,101.085C19.299,100.854 19.234,100.544 19.003,100.393C18.14,99.828 17.108,99.5 16,99.5C14.892,99.5 13.86,99.828 12.997,100.393C12.766,100.544 12.701,100.854 12.852,101.085C13.003,101.316 13.313,101.381 13.544,101.23ZM12.699,98.827C13.682,98.299 14.806,98 16,98C17.194,98 18.318,98.299 19.301,98.827C19.545,98.957 19.848,98.866 19.978,98.623C20.109,98.38 20.017,98.076 19.774,97.946C18.65,97.342 17.365,97 16,97C14.635,97 13.35,97.342 12.226,97.946C11.983,98.076 11.891,98.38 12.022,98.623C12.152,98.866 12.455,98.957 12.699,98.827ZM11.88,96.439C13.127,95.837 14.524,95.5 16,95.5C17.476,95.5 18.873,95.837 20.12,96.439C20.368,96.559 20.668,96.454 20.787,96.206C20.907,95.957 20.803,95.658 20.555,95.538C19.177,94.873 17.632,94.5 16,94.5C14.368,94.5 12.823,94.873 11.445,95.538C11.197,95.658 11.093,95.957 11.213,96.206C11.332,96.454 11.632,96.559 11.88,96.439Z" transform="translate(0 -84)"></path>
</svg>
