<?xml version="1.0" encoding="UTF-8"?>
<svg version="1.1" xmlns="http://www.w3.org/2000/svg" width="512" height="512">
<path d="M0 0 C1.83936496 -0.00668677 1.83936496 -0.00668677 3.7158888 -0.01350862 C5.07360161 -0.01341933 6.43131442 -0.01322949 7.78902721 -0.01294994 C9.23387014 -0.0162506 10.67871214 -0.01997659 12.12355298 -0.02409142 C16.0947218 -0.03409707 20.0658755 -0.03782592 24.03705513 -0.04048073 C28.32021006 -0.04438818 32.60335306 -0.05396638 36.88650036 -0.0626936 C47.23237664 -0.08244808 57.57825388 -0.09252404 67.9241443 -0.10142139 C72.7999554 -0.10580694 77.67576542 -0.11117315 82.55157566 -0.11641026 C98.76741625 -0.13342337 114.98325617 -0.14791574 131.19910431 -0.155159 C135.40642135 -0.1570688 139.61373839 -0.15898915 143.82105541 -0.16094494 C144.86672734 -0.16142868 145.91239926 -0.16191242 146.98975822 -0.16241082 C163.914498 -0.17070432 180.83916694 -0.19602937 197.76387582 -0.22852562 C215.15274361 -0.26163987 232.54157546 -0.2796118 249.93047494 -0.28280324 C259.68846795 -0.28496455 269.44635774 -0.29365745 279.20431995 -0.31926441 C287.51806426 -0.34103132 295.83168028 -0.34899256 304.14544985 -0.33929763 C308.3823996 -0.3347699 312.61908499 -0.33654937 316.85599804 -0.35605907 C320.74575768 -0.37381433 324.63506256 -0.37259435 328.52482786 -0.35716178 C330.57564357 -0.35369964 332.62646475 -0.36971927 334.67721254 -0.38676625 C360.15394735 -0.21256261 382.33658531 11.14428709 400.5571394 28.38422108 C414.90699116 43.19531808 426.03104034 65.29478971 426.06636047 86.20208168 C426.07081832 87.42832498 426.07527616 88.65456829 426.07986909 89.91797048 C426.0797798 91.27568329 426.07958997 92.63339611 426.07931042 93.99110889 C426.08261107 95.43595182 426.08633707 96.88079382 426.0904519 98.32563466 C426.10045754 102.29680348 426.1041864 106.26795718 426.10684121 110.23913682 C426.11074866 114.52229174 426.12032685 118.80543474 426.12905407 123.08858204 C426.14880855 133.43445832 426.15888451 143.78033556 426.16778186 154.12622598 C426.17216741 159.00203708 426.17753362 163.8778471 426.18277073 168.75365734 C426.19978385 184.96949793 426.21427621 201.18533785 426.22151947 217.40118599 C426.22342928 221.60850303 426.22534962 225.81582007 426.22730541 230.02313709 C426.22778915 231.06880902 426.22827289 232.11448094 426.22877129 233.1918399 C426.23706479 250.11657968 426.26238984 267.04124862 426.29488609 283.9659575 C426.32800034 301.35482529 426.34597227 318.74365714 426.34916371 336.13255662 C426.35132503 345.89054963 426.36001792 355.64843942 426.38562489 365.40640163 C426.40739179 373.72014594 426.41535304 382.03376196 426.4056581 390.34753153 C426.40113037 394.58448128 426.40290984 398.82116667 426.42241955 403.05807972 C426.4401748 406.94783936 426.43895483 410.83714424 426.42352226 414.72690954 C426.42006011 416.77772525 426.43607975 418.82854643 426.45312673 420.87929422 C426.27892308 446.35602903 414.92207339 468.53866699 397.6821394 486.75922108 C382.8710424 501.10907284 360.77157077 512.23312202 339.86427879 512.26844215 C338.63803549 512.2729 337.41179219 512.27735784 336.14839 512.28195077 C334.79067718 512.28186148 333.43296437 512.28167165 332.07525158 512.2813921 C330.63040866 512.28469275 329.18556665 512.28841875 327.74072582 512.29253358 C323.769557 512.30253922 319.79840329 512.30626808 315.82722366 512.30892289 C311.54406874 512.31283034 307.26092574 512.32240853 302.97777843 512.33113575 C292.63190216 512.35089023 282.28602492 512.36096619 271.9401345 512.36986354 C267.0643234 512.37424909 262.18851338 512.3796153 257.31270313 512.38485241 C241.09686254 512.40186553 224.88102263 512.41635789 208.66517448 512.42360115 C204.45785744 512.42551096 200.2505404 512.4274313 196.04322338 512.42938709 C194.99755146 512.42987083 193.95187953 512.43035457 192.87452058 512.43085297 C175.9497808 512.43914647 159.02511185 512.46447152 142.10040297 512.49696777 C124.71153518 512.53008203 107.32270333 512.54805395 89.93380386 512.55124539 C80.17581084 512.55340671 70.41792105 512.5620996 60.65995884 512.58770657 C52.34621453 512.60947347 44.03259851 512.61743472 35.71882894 512.60773978 C31.48187919 512.60321205 27.2451938 512.60499152 23.00828075 512.62450123 C19.11852111 512.64225648 15.22921624 512.64103651 11.33945093 512.62560394 C9.28863522 512.62214179 7.23781404 512.63816143 5.18706626 512.65520841 C-20.28966856 512.48100476 -42.47230651 501.12415507 -60.6928606 483.88422108 C-75.04271237 469.07312408 -86.16676154 446.97365245 -86.20208168 426.06636047 C-86.20653952 424.84011717 -86.21099737 423.61387387 -86.2155903 422.35047168 C-86.21550101 420.99275886 -86.21531117 419.63504605 -86.21503162 418.27733326 C-86.21833228 416.83249034 -86.22205827 415.38764833 -86.2261731 413.9428075 C-86.23617875 409.97163868 -86.2399076 406.00048497 -86.24256241 402.02930534 C-86.24646986 397.74615042 -86.25604806 393.46300742 -86.26477528 389.17986012 C-86.28452976 378.83398384 -86.29460572 368.4881066 -86.30350307 358.14221618 C-86.30788862 353.26640508 -86.31325483 348.39059506 -86.31849194 343.51478481 C-86.33550505 327.29894422 -86.34999742 311.08310431 -86.35724068 294.86725616 C-86.35915048 290.65993912 -86.36107083 286.45262208 -86.36302662 282.24530506 C-86.36351036 281.19963314 -86.3639941 280.15396121 -86.3644925 279.07660226 C-86.372786 262.15186248 -86.39811105 245.22719353 -86.4306073 228.30248465 C-86.46372155 210.91361687 -86.48169348 193.52478501 -86.48488492 176.13588554 C-86.48704623 166.37789252 -86.49573913 156.62000273 -86.52134609 146.86204052 C-86.543113 138.54829621 -86.55107424 130.23468019 -86.54137931 121.92091062 C-86.53685158 117.68396087 -86.53863105 113.44727548 -86.55814075 109.21036243 C-86.57589601 105.32060279 -86.57467603 101.43129792 -86.55924346 97.54153261 C-86.55578132 95.4907169 -86.57180095 93.43989572 -86.58884794 91.38914794 C-86.41464429 65.91241312 -75.05779459 43.72977517 -57.8178606 25.50922108 C-43.0067636 11.15936931 -20.90729197 0.03532014 0 0 Z " fill="#00DAC7" transform="translate(86.06786060333252,-0.13422107696533203)"/>
<path d="M0 0 C13.67823029 10.18486932 20.70708175 26.29030537 23.73828125 42.6796875 C26.44109147 67.22412624 24.49594647 93.3289802 9.171875 113.6171875 C3.72578237 120.12815858 -1.90761929 124.53449068 -9.828125 127.6171875 C-10.48377441 127.87612793 -11.13942383 128.13506836 -11.81494141 128.40185547 C-17.37935728 130.45075419 -22.29453562 131.09676965 -28.203125 130.9921875 C-29.03312012 130.98276123 -29.86311523 130.97333496 -30.71826172 130.96362305 C-44.54671885 130.62472999 -55.33891856 125.7740701 -65.40625 116.31640625 C-80.20550456 99.82239834 -83.82102674 76.51131992 -82.98486328 55.12402344 C-81.84565028 36.90371325 -77.14753856 17.93660106 -63.828125 4.6171875 C-45.26886084 -10.7734218 -20.7210019 -13.61085419 0 0 Z " fill="#13254C" transform="translate(395.828125,229.3828125)"/>
<path d="M0 0 C2.94122562 2.45935558 5.52926767 5.07145551 8 8 C8.70962891 7.20335937 8.70962891 7.20335937 9.43359375 6.390625 C16.07380981 -0.70262724 22.722905 -4.28861732 32.4375 -5.23828125 C43.03591046 -5.54524741 52.93432499 -2.98955001 61.06640625 4.0234375 C70.84811919 14.02252184 72.46016162 25.10900077 72.31719017 38.65062332 C72.30520057 39.74008821 72.30520057 39.74008821 72.29296875 40.8515625 C72.28736165 42.3618426 72.28309683 43.87212822 72.28010559 45.38241577 C72.26874435 49.32472248 72.23935436 53.26668859 72.20599365 57.2088623 C72.17510274 61.24466344 72.16155994 65.28052053 72.14648438 69.31640625 C72.11447448 77.21110991 72.06177995 85.10547313 72 93 C63.75 93 55.5 93 47 93 C46.9906543 91.06237793 46.98130859 89.12475586 46.97167969 87.12841797 C46.93610527 80.71408871 46.88227757 74.30011396 46.81609726 67.8860302 C46.77665048 63.99854766 46.74444857 60.11129068 46.72900391 56.22363281 C46.71381841 52.46915424 46.67934059 48.71529586 46.63169098 44.9610939 C46.61689645 43.53148933 46.60896009 42.1017962 46.60811615 40.67211533 C46.60573932 38.66395427 46.57633413 36.65588103 46.54589844 34.64794922 C46.53701599 33.50655487 46.52813354 32.36516052 46.51898193 31.18917847 C45.87960261 27.26015003 44.47458146 25.08787278 42 22 C36.85426674 18.97309808 31.8614848 18.01774754 26 19 C22.61377224 20.6731975 22.61377224 20.6731975 20 23 C19.4225 23.474375 18.845 23.94875 18.25 24.4375 C15.10734958 28.36581302 14.73994765 32.46102029 14.68115234 37.35083008 C14.66128265 38.6117598 14.64141296 39.87268951 14.62094116 41.17182922 C14.60906663 42.53772812 14.59740367 43.90362887 14.5859375 45.26953125 C14.56721549 46.67487207 14.54764131 48.08020178 14.5272522 49.48551941 C14.47603383 53.17285594 14.43635334 56.86022887 14.39910889 60.54772949 C14.35900441 64.31511362 14.30794156 68.08234766 14.2578125 71.84960938 C14.16117515 79.23297752 14.07774535 86.61640433 14 94 C5.75 94 -2.5 94 -11 94 C-11.01458252 92.0926709 -11.02916504 90.1853418 -11.04418945 88.22021484 C-11.0959163 81.90570955 -11.16122248 75.59145785 -11.23571491 69.27718163 C-11.28036877 65.45027157 -11.31963555 61.62346675 -11.34643555 57.79638672 C-11.37251875 54.10034241 -11.41295576 50.40470413 -11.46318626 46.7089119 C-11.47982125 45.30163259 -11.49135648 43.89428311 -11.49761391 42.4869194 C-11.50729081 40.50988299 -11.53707786 38.53297641 -11.56762695 36.55615234 C-11.57873001 35.43252289 -11.58983307 34.30889343 -11.60127258 33.1512146 C-12.0536782 29.57577151 -13.29276129 27.14707197 -15 24 C-15 23.34 -15 22.68 -15 22 C-15.78375 21.690625 -16.5675 21.38125 -17.375 21.0625 C-20 20 -20 20 -22 19 C-28.40113428 18.16713866 -33.0866009 18.78917504 -38.375 22.57421875 C-42.11999153 25.86008872 -43.21601271 29.22728947 -44 34 C-44.11096646 35.99263404 -44.17541117 37.98814532 -44.20532227 39.98364258 C-44.22526749 41.16448929 -44.24521271 42.345336 -44.26576233 43.56196594 C-44.28247482 44.82671249 -44.29918732 46.09145905 -44.31640625 47.39453125 C-44.33718735 48.69702316 -44.35796844 49.99951508 -44.37937927 51.34147644 C-44.43438184 54.79209263 -44.48388659 58.24276635 -44.53222656 61.69348145 C-44.58260164 65.21953406 -44.63820387 68.74550387 -44.69335938 72.27148438 C-44.8006738 79.18091919 -44.90169377 86.09043121 -45 93 C-53.25 93 -61.5 93 -70 93 C-70 61.65 -70 30.3 -70 -2 C-61.75 -2 -53.5 -2 -45 -2 C-44.67 0.64 -44.34 3.28 -44 6 C-43.55011719 5.54109375 -43.10023438 5.0821875 -42.63671875 4.609375 C-30.62118157 -6.85233983 -14.3250272 -8.57871472 0 0 Z " fill="#13264D" transform="translate(174,264)"/>
<path d="M0 0 C0 43.89 0 87.78 0 133 C-8.91 133 -17.82 133 -27 133 C-27 98.35 -27 63.7 -27 28 C-33.93 29.98 -40.86 31.96 -48 34 C-49.32 34 -50.64 34 -52 34 C-53.03774122 30.92209798 -54.05216917 27.83699754 -55.0625 24.75 C-55.35705078 23.87730469 -55.65160156 23.00460938 -55.95507812 22.10546875 C-56.22900391 21.26113281 -56.50292969 20.41679687 -56.78515625 19.546875 C-57.04176025 18.77182617 -57.29836426 17.99677734 -57.56274414 17.19824219 C-58.07972745 14.59918147 -58.19661922 13.38461637 -57 11 C-53.24899062 8.84382588 -49.17121749 7.4618754 -45.1081543 5.99853516 C-43.13870996 5.27788635 -41.2003416 4.49985049 -39.25585938 3.71484375 C-25.18430542 -1.42096197 -16.60170725 0 0 0 Z " fill="#13274D" transform="translate(301,224)"/>
<path d="M0 0 C9.41927842 7.22212492 13.1254637 16.97850154 14.80859375 28.38671875 C15.09222733 32.14193353 15.14294033 35.87182497 15.12109375 39.63671875 C15.11372192 41.14625122 15.11372192 41.14625122 15.10620117 42.6862793 C14.9159407 54.83660599 13.5250343 68.20200047 4.84765625 77.484375 C-2.06222868 83.73923366 -7.12805902 85.03140881 -16.48046875 84.765625 C-23.15810693 84.083803 -26.38893686 81.23015335 -30.94140625 76.57421875 C-41.36408301 61.80876001 -41.13083909 41.32655073 -38.87060547 23.91552734 C-36.95790431 13.86861712 -32.64821631 5.2547094 -24.19140625 -0.61328125 C-16.98486513 -4.21655181 -6.96786713 -4.12856992 0 0 Z " fill="#00D9C7" transform="translate(379.19140625,249.61328125)"/>
<path d="M0 0 C2.7019043 1.66015625 2.7019043 1.66015625 5 4 C5.53442383 6.7421875 5.53442383 6.7421875 5.39453125 9.875 C5.34893066 11.02742187 5.30333008 12.17984375 5.25634766 13.3671875 C4.84043728 19.2612317 4.34543777 25.12765992 3.6875 31 C3.56955078 32.18722656 3.45160156 33.37445313 3.33007812 34.59765625 C3.14155273 36.31275391 3.14155273 36.31275391 2.94921875 38.0625 C2.83924561 39.08472656 2.72927246 40.10695312 2.6159668 41.16015625 C1.60265648 45.83190639 -0.03063483 48.35375656 -4 51 C-7.4375 51.4375 -7.4375 51.4375 -11 51 C-13.41100552 48.58899448 -14.82362891 46.88463294 -15.49609375 43.51171875 C-14.81327613 10.59990969 -14.81327613 10.59990969 -8.8125 1.125 C-5.80686838 -0.74056446 -3.44277687 -0.41550755 0 0 Z " fill="#13264D" transform="translate(281,149)"/>
<path d="M0 0 C3.80942979 1.42660832 5.5989721 3.69773971 8.0625 6.875 C12.33867581 12.26454166 16.8900934 17.27699331 21.6171875 22.2734375 C27.05199043 28.49227757 27.05199043 28.49227757 26.875 33.625 C26.03100976 36.88039093 25.6616323 38.08362475 23 40 C20.11138291 41.44430855 18.20352299 41.37688506 15 41 C12.6640625 38.86328125 12.6640625 38.86328125 10 36 C9.53924072 35.5153125 9.07848145 35.030625 8.60375977 34.53125 C-10.55161344 14.36289923 -10.55161344 14.36289923 -11.375 8.1875 C-11 5 -11 5 -8.875 2.125 C-5.50050447 -0.36919235 -4.09905842 -0.61049806 0 0 Z " fill="#13264D" transform="translate(227,165)"/>
<path d="M0 0 C2.875 1.5 2.875 1.5 5 4 C5.86457174 7.5200421 6.06130435 8.67161621 5 12 C2.35374315 15.99555705 -0.77385391 19.46611342 -4 23 C-5.29305777 24.51965075 -6.58489492 26.04034176 -7.875 27.5625 C-10.80011171 30.96099936 -12.77356229 32.88850566 -17.4375 33.3125 C-21 33 -21 33 -23.375 32.0625 C-25.54873938 29.3035231 -26.41005923 27.2483418 -26.69140625 23.734375 C-25.18758233 17.78704877 -19.74918687 13.61347214 -15.46923828 9.45800781 C-13.64849641 7.65118321 -12.00198108 5.73173635 -10.375 3.75 C-7.00153538 -0.15611693 -5.09637562 -0.49964467 0 0 Z " fill="#13274D" transform="translate(317,181)"/>
<path d="M0 0 C1.258125 0.11859375 2.51625 0.2371875 3.8125 0.359375 C15.47240912 1.64291735 15.47240912 1.64291735 20 5 C22 8 22 8 21.9375 11.4375 C21 15 21 15 19 17.4375 C14.87796397 19.58439377 11.49572562 19.41325612 7 19 C5.76507813 18.89429688 4.53015625 18.78859375 3.2578125 18.6796875 C-8.39887289 17.46479742 -8.39887289 17.46479742 -13 13 C-14.42662219 10.14675563 -14.31033868 8.16545451 -14 5 C-10.90002574 -1.48176436 -6.30907684 -0.61159418 0 0 Z " fill="#13274D" transform="translate(213,214)"/>
</svg>
