<svg xmlns="http://www.w3.org/2000/svg" enable-background="new 0 0 256 256" viewBox="0 0 256 256" id="milk">
  <path fill="#a9e5ff" d="M163.8,242H62.1c-4.5,0-8.2-3.6-8.2-8.2V70.8h109.8V242z"></path>
  <path fill="#80d1ed" d="M194.3,242h-30.6V70.8h38.3v163.5C202.1,238.5,198.6,242,194.3,242z"></path>
  <polygon fill="#68c0d8" points="163.8 70.8 182.9 29.5 202.1 70.8"></polygon>
  <polygon fill="#c0efff" points="53.9 70.8 73.1 29.5 182.9 29.5 163.8 70.8"></polygon>
  <path fill="#a9e5ff" d="M177.4,14H78.6c-3,0-5.5,2.5-5.5,5.5v10.1h109.8V19.5C182.9,16.5,180.5,14,177.4,14z"></path>
  <polygon fill="#fff7ee" points="53.9 104.5 53.9 159.4 163.8 170.8 163.8 113.6"></polygon>
  <path fill="#60caef" d="M76.7 123.6c.8 0 1.6.6 1.9 1.4l6.1 16.4H85l6.1-16.4c.3-.8 1.1-1.4 1.9-1.4h2.7c1.1 0 2.1 1 2.1 2.2v21.7c0 1.2-.9 2.2-2.1 2.2H95c-1.1 0-2.1-1-2.1-2.2v-14.9h-.2L87 148.2c-.3.8-1.1 1.4-1.9 1.4h-.5c-.8 0-1.6-.6-1.9-1.4L77 132.5h-.2v15c0 1.2-.9 2.2-2.1 2.2H74c-1.1 0-2.1-1-2.1-2.2v-21.7c0-1.2.9-2.2 2.1-2.2H76.7zM104.8 149.7h-.9c-1.1 0-2.1-1-2.1-2.2v-21.7c0-1.2.9-2.2 2.1-2.2h.9c1.1 0 2.1 1 2.1 2.2v21.7C106.8 148.7 105.9 149.7 104.8 149.7zM112.9 123.6h.9c1.1 0 2.1 1 2.1 2.2V143c0 1.2.9 2.2 2.1 2.2h6.2c1.1 0 2.1 1 2.1 2.2l0 0c0 1.2-.9 2.2-2.1 2.2h-11.2c-1.1 0-2.1-1-2.1-2.2v-21.7C110.9 124.6 111.8 123.6 112.9 123.6zM131.5 123.6h.9c1.1 0 2.1 1 2.1 2.2v9.4h.3l8.1-10.8c.4-.5 1-.8 1.6-.8h.6c1.7 0 2.7 2.2 1.6 3.7l-5.1 6.7c-.6.8-.6 1.9-.1 2.7l6 9.6c.9 1.5 0 3.5-1.7 3.5h-1c-.7 0-1.3-.4-1.7-1l-4.5-7.3c-.8-1.2-2.4-1.3-3.3-.2l-.3.4c-.3.4-.5.9-.5 1.4v4.4c0 1.2-.9 2.2-2.1 2.2h-.9c-1.1 0-2.1-1-2.1-2.2v-21.7C129.4 124.6 130.3 123.6 131.5 123.6z"></path>
  <polygon fill="#eddfd1" points="163.8 113.6 202.1 106.3 202.1 160.2 163.8 170.8"></polygon>
</svg>
