<svg xmlns="http://www.w3.org/2000/svg" width="512" height="512" viewBox="0 0 512 512" id="restaurant">
  <circle cx="256" cy="256" r="176" fill="#79d8eb"></circle>
  <path d="M256 440a183.763 183.763 0 0 1-58.544-9.511l5.088-15.17a168.663 168.663 0 0 0 123.538-6.588l6.682 14.539A182.518 182.518 0 0 1 256 440zM409.348 187.276A168.337 168.337 0 0 0 256 88c-5.093 0-10.235.23-15.282.685L239.282 72.75c5.523-.5 11.148-.75 16.718-.75A184.36 184.36 0 0 1 423.945 180.724z"></path>
  <circle cx="256" cy="256" r="120" fill="#dcf9fe"></circle>
  <path d="M345.612 188.805A111.158 111.158 0 0 0 256 144a113.542 113.542 0 0 0-14.943.987l-2.114-15.859A129.432 129.432 0 0 1 256 128a127.025 127.025 0 0 1 102.4 51.195zM256 384a128.217 128.217 0 0 1-34.128-4.6l4.256-15.422a112.343 112.343 0 0 0 89.6-13.212l8.545 13.528A127.639 127.639 0 0 1 256 384z"></path>
  <path fill="#55e1b2" d="M454.95,464H368.755a10,10,0,0,1-9.912-8.678L328,224V208H488v16L464.9,455A10,10,0,0,1,454.95,464Z"></path>
  <polygon fill="#e8faf8" points="488 224 488 208 328 208 328 224 332.267 256 484.8 256 488 224"></polygon>
  <rect width="16" height="88" x="208" y="40"></rect>
  <path fill="#f2f2f2" d="M199.956,438.534,192,176H160l-7.956,262.534Q152,439.262,152,440a24,24,0,0,0,48,0Q200,439.262,199.956,438.534Z"></path>
  <path fill="#f2f2f2" d="M136,172V128h80v44a20,20,0,0,1-20,20H156A20,20,0,0,1,136,172Z"></path>
  <path d="M216,120H184V40H168v80H144V40H128v83.817a184,184,0,0,0-5.817,258.473l11.634-10.984A167.974,167.974,0,0,1,128,147.209V172a28.024,28.024,0,0,0,14.6,24.581,128.149,128.149,0,0,0,4.912,127.379l-1.812,59.8,15.992.484L167.276,200h17.448l7.235,238.776c0,.08.006.16.011.24.02.325.03.654.03.984a16,16,0,0,1-32,0c0-.33.01-.659.03-.984,0-.08.009-.16.011-.24l1.167-38.534-15.992-.484-1.165,38.423q-.049.9-.051,1.819a32,32,0,0,0,64,0q0-.915-.051-1.819L200.719,199.6A28.046,28.046,0,0,0,224,172V128A8,8,0,0,0,216,120ZM144,256a112.024,112.024,0,0,1,6.734-38.323l-2.127,70.192A112.193,112.193,0,0,1,144,256Zm64-84a12.013,12.013,0,0,1-12,12H156a12.013,12.013,0,0,1-12-12V136h64Z"></path>
  <path fill="#f2f2f2" d="M87.956,438.534,80,176H48L40.044,438.534Q40,439.262,40,440a24,24,0,0,0,48,0Q88,439.262,87.956,438.534Z"></path>
  <ellipse cx="65.143" cy="120" fill="#f2f2f2" rx="41.143" ry="72"></ellipse>
  <path d="M88.45,190.742c15.5-13.311,25.836-39.7,25.836-70.742,0-44.86-21.586-80-49.143-80C45.681,40,28.605,57.555,20.581,85.815l15.392,4.37C41.87,69.418,53.319,56,65.143,56c16.006,0,33.143,25.717,33.143,64s-17.137,64-33.143,64S32,158.283,32,120a116.894,116.894,0,0,1,.953-14.971l-15.867-2.058A132.8,132.8,0,0,0,16,120c0,29.533,9.356,54.853,23.612,68.708l-7.56,249.471Q32,439.082,32,440a32,32,0,0,0,64,0q0-.916-.052-1.821ZM64,456a16.019,16.019,0,0,1-16-16c0-.33.01-.659.03-.984,0-.08.009-.16.011-.24l7.282-240.309A32.2,32.2,0,0,0,72.7,199.1l7.263,239.675c0,.08.006.16.011.24.02.325.03.654.03.984A16.019,16.019,0,0,1,64,456Z"></path>
  <polygon fill="#fac850" points="268.844 286.311 279.042 304.958 297.689 315.156 279.042 325.354 268.844 344 258.646 325.354 240 315.156 258.646 304.958 268.844 286.311"></polygon>
  <path d="M268.844,352h0a8,8,0,0,1-7.019-4.161l-9.073-16.591-16.591-9.073a8,8,0,0,1,0-14.038l16.591-9.074,9.073-16.591a8,8,0,0,1,14.038,0l9.074,16.591,16.591,9.074a8,8,0,0,1,0,14.038l-16.591,9.073-9.074,16.591A8,8,0,0,1,268.844,352Zm-12.172-36.844,5.813,3.178a8.007,8.007,0,0,1,3.181,3.181l3.178,5.813,3.179-5.813a8.007,8.007,0,0,1,3.181-3.181l5.813-3.178-5.813-3.179a8.007,8.007,0,0,1-3.181-3.181l-3.179-5.813-3.178,5.813a8.007,8.007,0,0,1-3.181,3.181Z"></path>
  <polygon fill="#fac850" points="435.156 70.311 445.354 88.958 464 99.156 445.354 109.354 435.156 128 424.958 109.354 406.311 99.156 424.958 88.958 435.156 70.311"></polygon>
  <path d="M435.156,136a8,8,0,0,1-7.019-4.161l-9.074-16.591-16.591-9.073a8,8,0,0,1,0-14.038l16.591-9.074,9.074-16.591a8,8,0,0,1,7.019-4.161h0a8,8,0,0,1,7.019,4.161l9.073,16.591,16.591,9.074a8,8,0,0,1,0,14.038l-16.591,9.073-9.073,16.591A8,8,0,0,1,435.156,136ZM422.983,99.156l5.813,3.178a8.007,8.007,0,0,1,3.181,3.181l3.179,5.813,3.178-5.813a8.007,8.007,0,0,1,3.181-3.181l5.813-3.178-5.813-3.179a8.007,8.007,0,0,1-3.181-3.181l-3.178-5.813L431.977,92.8a8.007,8.007,0,0,1-3.181,3.181Z"></path>
  <g>
    <path d="M488,200H328a8,8,0,0,0-8,8v16a7.94,7.94,0,0,0,.07,1.057l30.843,231.322A18.056,18.056,0,0,0,368.755,472h86.2a17.944,17.944,0,0,0,17.911-16.209L487.96,304.8,472.04,303.2l-15.1,151a1.994,1.994,0,0,1-1.99,1.8H368.755a2.008,2.008,0,0,1-1.983-1.735L341.4,264H475.96l-2.32,23.2,15.921,1.592,6.4-64a7.828,7.828,0,0,0,.04-.8V208A8,8,0,0,0,488,200ZM339.271,248,336,223.469V216H480v7.6L477.56,248Z"></path>
    <rect width="136.938" height="16" x="371.531" y="348" transform="rotate(-83.29 440.001 356)"></rect>
  </g>
</svg>
