<svg xmlns="http://www.w3.org/2000/svg" enable-background="new 0 0 512 512" viewBox="0 0 512 512" id="signal-tower">
  <g>
    <g>
      <path fill="#283954" d="M411.326,441.008L289.911,114.445c-1.925-5.177-7.681-7.811-12.858-5.888
			c-5.176,1.925-7.813,7.682-5.888,12.858l15.167,40.792L256,192.428l-30.332-30.219l15.167-40.792
			c1.925-5.177-0.712-10.934-5.888-12.858c-5.177-1.923-10.934,0.711-12.858,5.888L100.674,441.008
			C78.769,441.185,61,459.054,61,481v20c0,5.522,4.478,10,10,10s10-4.478,10-10v-20c0-11.028,8.972-20,20-20
			c3.781,0,315.708,0.002,310,0c11.028,0,20,8.972,20,20v20c0,5.522,4.478,10,10,10s10-4.478,10-10v-20
			C451,459.054,433.231,441.185,411.326,441.008z M384.575,426.448l-110.033-70.464l67.712-43.363L384.575,426.448z M256,344.109
			l-75.426-48.302L256,220.659l75.426,75.148L256,344.109z M169.746,312.621l67.712,43.363l-110.033,70.464L169.746,312.621z
			 M256,367.858L370.215,441H141.785L256,367.858z M293.991,182.809l28.034,75.4l-51.856-51.665L293.991,182.809z M241.832,206.544
			l-51.856,51.665l28.034-75.4L241.832,206.544z"></path>
      <path fill="#5596fb" d="M256 133.558c36.547 0 66.279-29.732 66.279-66.278C322.279 30.732 292.547 1 256 1s-66.279 29.732-66.279 66.279C189.721 103.825 219.453 133.558 256 133.558zM256 21c25.519 0 46.279 20.761 46.279 46.279 0 25.518-20.761 46.278-46.279 46.278s-46.279-20.761-46.279-46.278C209.721 41.761 230.481 21 256 21zM153.93 95.853c3.903 3.905 10.237 3.905 14.142-.001 3.905-3.905 3.904-10.237-.001-14.142-9.769-9.769-9.77-25.584.001-35.354 3.905-3.905 3.905-10.237 0-14.143-3.906-3.904-10.236-3.904-14.143 0C136.344 49.798 136.34 78.267 153.93 95.853z"></path>
      <path fill="#5596fb" d="M139.787 124.138c3.905-3.905 3.905-10.237 0-14.143-12.277-12.276-19.038-28.6-19.038-45.962s6.761-33.686 19.038-45.962c3.905-3.905 3.905-10.237 0-14.143-3.906-3.904-10.236-3.904-14.143 0-16.054 16.055-24.896 37.4-24.896 60.104s8.842 44.05 24.896 60.104C129.552 128.043 135.881 128.042 139.787 124.138zM343.93 81.71c-3.905 3.904-3.906 10.236-.001 14.142 3.904 3.906 10.236 3.906 14.142.001 17.587-17.583 17.588-46.052.001-63.64-3.906-3.904-10.236-3.904-14.143 0-3.905 3.905-3.905 10.237 0 14.143C353.698 56.124 353.701 71.939 343.93 81.71z"></path>
      <path fill="#5596fb" d="M372.213 109.995c-3.905 3.905-3.905 10.237 0 14.143 3.907 3.905 10.236 3.904 14.143 0 16.054-16.055 24.896-37.4 24.896-60.104s-8.842-44.05-24.896-60.104c-3.906-3.904-10.236-3.904-14.143 0-3.905 3.905-3.905 10.237 0 14.143C397.614 43.47 397.619 84.591 372.213 109.995zM501 491H11c-5.522 0-10 4.478-10 10s4.478 10 10 10h490c5.522 0 10-4.478 10-10S506.522 491 501 491z"></path>
    </g>
  </g>
</svg>
