<svg xmlns="http://www.w3.org/2000/svg" id="store" enable-background="new 0 0 100 100" viewBox="0 0 100 100">
  <rect width="76.796" height="70.018" x="11.602" y="20.188" fill="#fed35b"></rect>
  <rect width="76.796" height="10.393" x="11.602" y="9.795" fill="#d6b24e"></rect>
  <path fill="#dd584d" d="M3.9157708,29.3574295v5.4113884c0,5.090271,4.1264791,9.2167511,9.2168598,9.2167511l0,0
				c5.0902719,0,9.2167501-4.1264801,9.2167501-9.2167511v-5.4113884H3.9157708z"></path>
  <path fill="#ededed" d="M22.3493805,29.3574295v5.4113884c0,5.090271,4.1265888,9.2167511,9.2169704,9.2167511
				c5.0902691,0,9.2167492-4.1264801,9.2167492-9.2167511v-5.4113884H22.3493805z"></path>
  <path fill="#dd584d" d="M40.7831001,29.3574295v5.4113884c0,5.090271,4.1265907,9.2167511,9.2169685,9.2167511
				c5.0902748,0,9.2167511-4.1264801,9.2167511-9.2167511v-5.4113884H40.7831001z"></path>
  <path fill="#ededed" d="M59.2168198,29.3574295v5.4113884c0,5.090271,4.1264801,9.2167511,9.2168579,9.2167511h0.0001144
				c5.090271,0,9.2167511-4.1264801,9.2167511-9.2167511v-5.4113884H59.2168198z"></path>
  <path fill="#dd584d" d="M77.6505432,29.3574295v5.4113884c0,5.090271,4.1264801,9.2167511,9.2168579,9.2167511
				s9.2168579-4.1264801,9.2168579-9.2167511v-5.4113884H77.6505432z"></path>
  <polygon fill="#cd5248" points="26.961 20.188 11.602 20.188 3.916 29.358 22.349 29.358"></polygon>
  <polygon fill="#dbd8dd" points="42.32 20.188 26.961 20.188 22.349 29.358 40.783 29.358"></polygon>
  <polygon fill="#cd5248" points="57.68 20.188 42.32 20.188 40.783 29.358 59.217 29.358"></polygon>
  <polygon fill="#dbd8dd" points="73.039 20.188 57.68 20.188 59.217 29.358 77.651 29.358"></polygon>
  <polygon fill="#cd5248" points="88.398 20.188 73.039 20.188 77.651 29.358 96.084 29.358"></polygon>
  <rect width="76.796" height="7.565" x="11.602" y="82.64" fill="#bb9b45"></rect>
  <rect width="26.527" height="3.939" x="36.736" y="86.266" fill="#32786a"></rect>
  <rect width="19.161" height="29.607" x="40.419" y="56.66" fill="#2d6d60"></rect>
  <g>
    <rect width="19.485" height="11.042" x="16.268" y="67.316" fill="#4288b9"></rect>
    <path fill="#fff" d="M36.424202,79.0289917H15.5973883V66.6445236H36.424202V79.0289917z M16.9395313,77.6868439h18.1425304
					v-9.7001724H16.9395313V77.6868439z"></path>
  </g>
  <g>
    <rect width="19.485" height="11.042" x="64.247" y="67.316" fill="#4288b9"></rect>
    <path fill="#fff" d="M84.4026489,79.0289917H63.5758286V66.6445236h20.8268204V79.0289917z M64.9179764,77.6868439h18.1425247
					v-9.7001724H64.9179764V77.6868439z"></path>
  </g>
</svg>
