<svg xmlns="http://www.w3.org/2000/svg" viewBox="0 0 512 512" id="sunflower-seeds">
  <path d="M180.13,507.73c-63.07,0-86-22.85-90.12-27.57-29.24-26.16-48.84-59.81-58.27-100-7.91-33.75-8.71-72.4-2.39-114.89C41.58,183.11,76.94,108.59,91.58,80.36,130.3,5.67,175.18,4.19,180.13,4.28c5-.1,49.83,1.39,88.56,76.08,14.63,28.23,50,102.76,62.22,184.88,6.33,42.49,5.52,81.14-2.39,114.89-9.42,40.22-29,73.87-58.27,100C266.17,484.88,243.2,507.73,180.13,507.73Zm-77.79-38.14c1,1.13,19.45,21.9,77.79,21.9,59.81,0,77.59-21.63,77.76-21.85a8,8,0,0,1,1.11-1.21c50.25-44.66,69-112.22,55.85-200.8C303,187.92,268.53,115.34,254.27,87.84c-18.41-35.5-37.65-51.93-50.54-59.47-13.15-7.68-22.49-7.86-23.26-7.86a2.58,2.58,0,0,1-.68,0c-.77,0-10.11.18-23.25,7.86-12.9,7.54-32.14,24-50.54,59.47-14.26,27.5-48.71,100.08-60.58,179.79-13.19,88.58,5.6,156.14,55.84,200.8A5.93,5.93,0,0,1,102.34,469.59Z"></path>
  <path d="M236.38 438.13a8.52 8.52 0 01-2-.24A8.13 8.13 0 01228.5 428c27.12-107.51 7.17-267.73-48.35-395.82C138.19 130 115.92 256.46 123 359.85a8.12 8.12 0 11-16.2 1.11c-7.68-111.8 18.21-250 66-352a8.12 8.12 0 0114.71 0c29 62 50.92 136.79 61.73 210.71 11.67 79.73 10 153.16-5 212.33A8.13 8.13 0 01236.38 438.13zM377.33 507.73c-44.19 0-60.58-15.67-64.1-19.76a127.73 127.73 0 01-29.73-39.32 8.12 8.12 0 1114.6-7.12 111.61 111.61 0 0026.39 34.72 5.28 5.28 0 011.05 1.12c.95 1.05 13.57 14.12 51.79 14.12 39.42 0 51.64-13.9 51.74-14a8.8 8.8 0 011.09-1.19c85.27-75.95 11.72-229.72-3.89-259.78-22.66-43.62-47.09-45.11-48.63-45.15a2.08 2.08 0 01-.61 0c-1.54 0-26 1.53-48.63 45.15-1.88 3.53-3.81 7.49-6 12.08l-.24.5a8.12 8.12 0 11-14.6-7.12l.25-.5c2.2-4.53 4.29-8.81 6.26-12.51 27-51.93 58.7-53.84 63.2-53.84h.23c4.49 0 36.23 1.91 63.23 53.91 10.17 19.57 34.73 71.26 43.24 128.42 4.42 29.65 3.85 56.66-1.67 80.28-6.61 28.22-20.33 51.85-40.81 70.27C437.93 492 421.54 507.73 377.33 507.73z"></path>
</svg>
