<svg xmlns="http://www.w3.org/2000/svg" width="64" height="64" enable-background="new 0 0 64 64" viewBox="0 0 64 64" id="taxi">
  <polygon fill="#FFCE54" points="1 38 1 55 2 55 14 55 50 55 62 55 63 55 63 38"></polygon>
  <polygon fill="#EDAB37" points="53 12.99 58 30.99 58 31 55 31 55 30.99 50.83 16 13.17 16 9 30.99 9 31 6 31 6 30.99 11 12.99"></polygon>
  <polygon fill="#4A89DC" points="33.89 31 13.87 31 9 31 9 30.99 13.17 16 50.83 16 55 30.99 55 31"></polygon>
  <polygon fill="#F6BB42" points="58 31 63 38 1 38 6 31 9 31 13.87 31 33.89 31 55 31"></polygon>
  <rect width="3" height="3" x="27.5" y="4" fill="#656D78"></rect>
  <rect width="3" height="3" x="36.5" y="7" fill="#656D78"></rect>
  <rect width="3" height="3" x="30.5" y="7" fill="#656D78"></rect>
  <rect width="3" height="3" x="24.5" y="7" fill="#656D78"></rect>
  <rect width="3" height="3" x="33.5" y="4" fill="#656D78"></rect>
  <path fill="#FFCE54" d="M27.5,4v3h-3v3h3V7h3v3h3V7h3v3h3V7h-3V4h-3v3h-3V4H27.5z M19.96,1H44v11.99H19.96V1z"></path>
  <rect width="12" height="8" x="50" y="55" fill="#656D78"></rect>
  <path fill="#FFF" d="M22.81,46H41.19c-1.03,1.8-2.971,3-5.19,3h-7.99H28C25.78,49,23.84,47.8,22.81,46z"></path>
  <g>
    <path fill="#FFF" d="M51,43h8c0,2.76-2.24,5-5,5h-8C46,45.23,48.24,43,51,43z"></path>
  </g>
  <g>
    <path fill="#FFF" d="M22,43h20c0,1.1-0.29,2.12-0.8,3h-0.01H22.81H22.8C22.29,45.12,22,44.1,22,43z"></path>
  </g>
  <g>
    <path fill="#FFF" d="M19,48h-9c-2.76,0-5-2.24-5-5h9C16.77,43,19,45.23,19,48z"></path>
  </g>
  <g>
    <rect width="12" height="8" x="2" y="55" fill="#656D78"></rect>
  </g>
  <g>
    <path d="M62.999,56H1.001c-0.553,0-1-0.447-1-1V37.996c0-0.553,0.447-1,1-1h61.998c0.553,0,1,0.447,1,1V55
					C63.999,55.553,63.552,56,62.999,56z M2.001,54h59.998V38.996H2.001V54z"></path>
    <path d="M14.005 64H2.002c-.553 0-1-.447-1-1v-8c0-.553.447-1 1-1h12.003c.553 0 1 .447 1 1v8C15.005 63.553 14.558 64 14.005 64zM3.002 62h10.003v-6H3.002V62zM61.998 64H49.995c-.553 0-1-.447-1-1v-8c0-.553.447-1 1-1h12.003c.553 0 1 .447 1 1v8C62.998 63.553 62.551 64 61.998 64zM50.995 62h10.003v-6H50.995V62zM1 38.996c-.201 0-.404-.061-.581-.187-.449-.321-.553-.946-.231-1.396l5-6.992c.321-.448.944-.553 1.396-.231.449.321.553.946.231 1.396l-5 6.992C1.619 38.851 1.312 38.996 1 38.996zM63 38.996c-.312 0-.619-.146-.814-.418l-5-6.992c-.321-.449-.218-1.074.231-1.396.45-.321 1.074-.217 1.396.231l5 6.992c.321.449.218 1.074-.231 1.396C63.404 38.936 63.201 38.996 63 38.996z"></path>
    <path d="M57.999 32.004H6.001c-.553 0-1-.447-1-1s.447-1 1-1h51.998c.553 0 1 .447 1 1S58.552 32.004 57.999 32.004zM45.999 48.998c-.553 0-1-.447-1-1 0-3.309 2.691-6 6-6 .553 0 1 .447 1 1s-.447 1-1 1c-2.206 0-4 1.794-4 4C46.999 48.551 46.552 48.998 45.999 48.998zM53.998 48.998c-.553 0-1-.447-1-1s.447-1 1-1c2.206 0 4-1.794 4-4 0-.553.447-1 1-1s1 .447 1 1C59.998 46.307 57.307 48.998 53.998 48.998z"></path>
    <path d="M58.998 43.998h-7.999c-.553 0-1-.447-1-1s.447-1 1-1h7.999c.553 0 1 .447 1 1S59.551 43.998 58.998 43.998zM53.998 48.998h-7.999c-.553 0-1-.447-1-1s.447-1 1-1h7.999c.553 0 1 .447 1 1S54.551 48.998 53.998 48.998zM19.002 48.998c-.553 0-1-.447-1-1 0-2.206-1.794-4-4-4-.553 0-1-.447-1-1s.447-1 1-1c3.309 0 6 2.691 6 6C20.002 48.551 19.555 48.998 19.002 48.998zM10.002 48.998c-3.309 0-6-2.691-6-6 0-.553.447-1 1-1s1 .447 1 1c0 2.206 1.794 4 4 4 .553 0 1 .447 1 1S10.555 48.998 10.002 48.998z"></path>
    <path d="M14.002 43.998h-9c-.553 0-1-.447-1-1s.447-1 1-1h9c.553 0 1 .447 1 1S14.555 43.998 14.002 43.998zM19.002 48.998h-9c-.553 0-1-.447-1-1s.447-1 1-1h9c.553 0 1 .447 1 1S19.555 48.998 19.002 48.998z"></path>
    <g>
      <path d="M28.001,50.002c-3.859,0-7-3.141-7-7c0-0.553,0.447-1,1-1s1,0.447,1,1c0,2.757,2.243,5,5,5c0.553,0,1,0.447,1,1
					S28.554,50.002,28.001,50.002z"></path>
    </g>
    <g>
      <path d="M35.999,50.002c-0.553,0-1-0.447-1-1s0.447-1,1-1c2.757,0,5-2.243,5-5c0-0.553,0.447-1,1-1s1,0.447,1,1
					C42.999,46.861,39.858,50.002,35.999,50.002z"></path>
    </g>
    <g>
      <path d="M35.999,50.004h-7.993c-0.553,0-1-0.447-1-1s0.447-1,1-1h7.993c0.553,0,1,0.447,1,1S36.552,50.004,35.999,50.004z"></path>
    </g>
    <g>
      <path d="M41.999,44.002H22.001c-0.553,0-1-0.447-1-1s0.447-1,1-1h19.998c0.553,0,1,0.447,1,1S42.552,44.002,41.999,44.002z"></path>
    </g>
    <g>
      <path d="M41.2,47.002H22.8c-0.553,0-1-0.447-1-1s0.447-1,1-1h18.4c0.553,0,1,0.447,1,1S41.753,47.002,41.2,47.002z"></path>
    </g>
    <g>
      <path d="M13.873,32.004c-0.429,0-0.825-0.277-0.956-0.708c-0.162-0.528,0.136-1.087,0.664-1.248l13.125-4.01
				c0.524-0.165,1.087,0.137,1.248,0.664c0.162,0.528-0.136,1.087-0.664,1.248l-13.125,4.01
				C14.068,31.99,13.97,32.004,13.873,32.004z"></path>
    </g>
    <g>
      <path d="M29.995,27.994h-12c-0.553,0-1-0.447-1-1s0.447-1,1-1h12c0.553,0,1,0.447,1,1S30.548,27.994,29.995,27.994z"></path>
    </g>
    <g>
      <path d="M33.893,32.004c-0.429,0-0.825-0.277-0.956-0.708c-0.162-0.528,0.136-1.087,0.664-1.248l13.125-4.01
				c0.525-0.165,1.088,0.137,1.248,0.664c0.162,0.528-0.136,1.087-0.664,1.248l-13.125,4.01
				C34.088,31.99,33.989,32.004,33.893,32.004z"></path>
    </g>
    <g>
      <path d="M50.015,27.994h-12c-0.553,0-1-0.447-1-1s0.447-1,1-1h12c0.553,0,1,0.447,1,1S50.567,27.994,50.015,27.994z"></path>
    </g>
    <g>
      <path d="M6.002 31.988c-.089 0-.179-.012-.269-.036-.532-.148-.844-.699-.696-1.231l4.999-17.996c.148-.532.699-.841 1.231-.696.532.148.844.699.696 1.231L6.965 31.256C6.842 31.698 6.439 31.988 6.002 31.988zM9.005 31.988c-.089 0-.179-.012-.269-.036-.532-.148-.844-.699-.696-1.231l4.165-14.992c.148-.532.7-.84 1.231-.696.532.148.844.699.696 1.231L9.968 31.256C9.845 31.698 9.442 31.988 9.005 31.988zM57.998 31.988c-.438 0-.84-.29-.963-.732L52.036 13.26c-.147-.532.164-1.083.696-1.231.532-.145 1.083.164 1.231.696l4.999 17.996c.147.532-.164 1.083-.696 1.231C58.177 31.977 58.087 31.988 57.998 31.988zM54.997 31.988c-.438 0-.84-.29-.963-.732l-4.165-14.992c-.147-.532.164-1.083.696-1.231.533-.144 1.083.164 1.231.696l4.165 14.992c.147.532-.164 1.083-.696 1.231C55.176 31.977 55.086 31.988 54.997 31.988z"></path>
      <path d="M53 13.992H11c-.553 0-1-.447-1-1s.447-1 1-1h42c.553 0 1 .447 1 1S53.553 13.992 53 13.992zM50.834 16.996H13.166c-.553 0-1-.447-1-1s.447-1 1-1h37.668c.553 0 1 .447 1 1S51.387 16.996 50.834 16.996z"></path>
    </g>
    <g>
      <path d="M44.001,13.992H19.959c-0.553,0-1-0.447-1-1V1c0-0.553,0.447-1,1-1h24.042c0.553,0,1,0.447,1,1v11.992
			C45.001,13.545,44.554,13.992,44.001,13.992z M20.959,11.992h22.042V2H20.959V11.992z"></path>
    </g>
    <g>
      <path d="M27.499 11h-3c-.553 0-1-.447-1-1V7c0-.553.447-1 1-1h3c.553 0 1 .447 1 1v3C28.499 10.553 28.052 11 27.499 11zM25.499 9h1V8h-1V9zM33.5 11h-3c-.553 0-1-.447-1-1V7c0-.553.447-1 1-1h3c.553 0 1 .447 1 1v3C34.5 10.553 34.053 11 33.5 11zM31.5 9h1V8h-1V9zM39.501 11h-3c-.553 0-1-.447-1-1V7c0-.553.447-1 1-1h3c.553 0 1 .447 1 1v3C40.501 10.553 40.054 11 39.501 11zM37.501 9h1V8h-1V9z"></path>
      <path d="M30.499 8h-3c-.553 0-1-.447-1-1V4c0-.553.447-1 1-1h3c.553 0 1 .447 1 1v3C31.499 7.553 31.052 8 30.499 8zM28.499 6h1V5h-1V6zM36.5 8h-3c-.553 0-1-.447-1-1V4c0-.553.447-1 1-1h3c.553 0 1 .447 1 1v3C37.5 7.553 37.053 8 36.5 8zM34.5 6h1V5h-1V6z"></path>
    </g>
  </g>
</svg>
