<?xml version="1.0" encoding="UTF-8"?>
<svg version="1.1" xmlns="http://www.w3.org/2000/svg" width="225" height="225">
<path d="M0 0 C74.25 0 148.5 0 225 0 C225 74.25 225 148.5 225 225 C150.75 225 76.5 225 0 225 C0 150.75 0 76.5 0 0 Z " fill="#ED2460" transform="translate(0,0)"/>
<path d="M0 0 C10.23 0 20.46 0 31 0 C31.66 4.29 32.32 8.58 33 13 C36.65513909 22.08563145 40.78297557 27.20384423 49.6875 31.3125 C60.07442586 35.68497145 74.67152565 35.99713958 85.3125 32.375 C94.29444363 28.30394473 100.20680219 22.88365485 103.93359375 13.69921875 C105.43872937 9.41426327 106.24270552 5.54376689 107 1 C116.9 1 126.8 1 137 1 C137 8.08904634 136.90985716 12.98237951 134.875 19.4375 C134.6490918 20.16976807 134.42318359 20.90203613 134.19042969 21.65649414 C128.81580538 38.35937069 117.80448812 50.90473596 102.375 59.1875 C84.68881651 67.44400368 63.18332574 69.45320123 44.41015625 63.37890625 C27.06158949 56.36396459 13.38759851 46.27816137 5.5390625 28.734375 C1.50944537 18.71856363 0 10.99211094 0 0 Z " fill="#F9FAF7" transform="translate(44,98)"/>
</svg>
