<?xml version="1.0" encoding="UTF-8"?>
<svg version="1.1" xmlns="http://www.w3.org/2000/svg" width="225" height="225">
<path d="M0 0 C74.25 0 148.5 0 225 0 C225 74.25 225 148.5 225 225 C150.75 225 76.5 225 0 225 C0 150.75 0 76.5 0 0 Z " fill="#FE5400" transform="translate(0,0)"/>
<path d="M0 0 C0.78890625 -0.01546875 1.5778125 -0.0309375 2.390625 -0.046875 C3.5353125 -0.03914063 3.5353125 -0.03914063 4.703125 -0.03125 C5.38536133 -0.02673828 6.06759766 -0.02222656 6.77050781 -0.01757812 C9.69414664 0.74686617 10.85180717 2.17854376 12.75 4.5 C13.27812195 7.24057007 13.27812195 7.24057007 13.31518555 10.42333984 C13.33747726 11.61913666 13.35976898 12.81493347 13.38273621 14.04696655 C13.38470757 15.98438217 13.38470757 15.98438217 13.38671875 17.9609375 C13.39704784 19.31174279 13.40811267 20.66254263 13.4198761 22.01333618 C13.43931262 24.84969461 13.44273285 27.68556034 13.4362793 30.52197266 C13.43033276 34.11771014 13.47420941 37.71082041 13.53216839 41.30602074 C13.56959363 44.10153834 13.57403895 46.89645169 13.56989479 49.69218826 C13.5740871 51.6494734 13.60937895 53.60661507 13.64567566 55.56356812 C13.50286485 69.71908737 7.00658612 80.0756071 -2.25 90.5 C-2.99636719 91.35464844 -3.74273437 92.20929688 -4.51171875 93.08984375 C-6.72655463 95.59046491 -8.98137654 98.04822162 -11.25 100.5 C-11.77722656 101.10457031 -12.30445313 101.70914063 -12.84765625 102.33203125 C-24.11915194 114.64131171 -45.11284619 126.9713512 -61.8984375 127.93359375 C-63.47378608 127.95692738 -65.04960955 127.95781098 -66.625 127.9375 C-67.45427002 127.92992676 -68.28354004 127.92235352 -69.13793945 127.91455078 C-80.54870563 127.60907448 -89.13495873 123.65263374 -97.15625 115.58203125 C-107.35877888 104.40680365 -110.69394776 90.69069328 -110.52734375 75.71484375 C-109.69440591 66.05980375 -105.06841112 57.7196425 -100.25 49.5 C-99.45750991 48.10463401 -98.66571655 46.70887178 -97.875 45.3125 C-97.070625 43.9203125 -97.070625 43.9203125 -96.25 42.5 C-95.59 42.5 -94.93 42.5 -94.25 42.5 C-94.02441406 41.79488281 -93.79882812 41.08976562 -93.56640625 40.36328125 C-91.97799846 36.90837648 -89.77209279 34.4153629 -87.1875 31.6875 C-86.701604 31.16704102 -86.21570801 30.64658203 -85.71508789 30.11035156 C-81.50033504 25.6514745 -77.17362494 21.17919226 -72.25 17.5 C-71.59 17.5 -70.93 17.5 -70.25 17.5 C-70.24453156 18.66058678 -70.24453156 18.66058678 -70.23895264 19.84461975 C-70.20099615 27.15664177 -70.14405763 34.46815859 -70.06609726 41.77985477 C-70.02668359 45.53839356 -69.99446557 49.29670023 -69.97900391 53.05541992 C-69.96379643 56.68671875 -69.92928016 60.31737916 -69.88169098 63.94839287 C-69.86691897 65.32972077 -69.85896139 66.71113984 -69.85811615 68.09254646 C-69.91964561 78.5234708 -69.91964561 78.5234708 -65.25 87.5 C-59.28765832 92.32061668 -54.06519567 92.66784182 -46.625 92.625 C-45.31273438 92.62757813 -44.00046875 92.63015625 -42.6484375 92.6328125 C-39.23726575 92.57699142 -35.87142091 92.31130463 -32.47509766 91.99169922 C-31.49384918 91.90008514 -30.51260071 91.80847107 -29.50161743 91.71408081 C-28.75858368 91.64343414 -28.01554993 91.57278748 -27.25 91.5 C-27.25888245 90.60321533 -27.26776489 89.70643066 -27.2769165 88.7824707 C-27.35724661 80.30851655 -27.41805781 71.8346913 -27.45724869 63.36044312 C-27.47807492 59.00428959 -27.50630099 54.64845213 -27.55175781 50.29248047 C-27.59539387 46.08439043 -27.6191744 41.87660337 -27.62950897 37.66830444 C-27.63686863 36.06720209 -27.6512402 34.4661153 -27.67292023 32.86514282 C-27.88035825 16.904076 -27.88035825 16.904076 -23.25 10.5 C-21.92463532 9.81762862 -20.59181577 9.14942488 -19.25 8.5 C-18.56465473 7.17617067 -17.89784892 5.84257737 -17.25 4.5 C-12.0205979 0.47156366 -6.39576301 -0.12791526 0 0 Z " fill="#FDFDFC" transform="translate(161.25,47.5)"/>
<path d="M0 0 C2.1519437 3.22791555 2.20086443 4.28400809 2 8 C2.99 8 3.98 8 5 8 C5 7.34 5 6.68 5 6 C6.32 6 7.64 6 9 6 C9.11668214 9.87474457 9.18741231 13.74903396 9.25 17.625 C9.28351563 18.71941406 9.31703125 19.81382812 9.3515625 20.94140625 C9.42829475 27.27181652 9.42250345 31.28471758 5 36 C2.22896784 38.12409858 -0.84589109 39.51600936 -4 41 C-4.69480469 41.34933594 -5.38960938 41.69867188 -6.10546875 42.05859375 C-11.93575128 44.71059837 -18.00439555 45.9828494 -24.25 47.25 C-25.11407471 47.42539307 -25.97814941 47.60078613 -26.8684082 47.78149414 C-31.30962953 48.63397133 -35.45401894 49.20798606 -40 49 C-40.33 48.34 -40.66 47.68 -41 47 C-43.67642489 44.81509993 -43.67642489 44.81509993 -46 45 C-46.99 45.495 -46.99 45.495 -48 46 C-48 45.34 -48 44.68 -48 44 C-50.64 44.33 -53.28 44.66 -56 45 C-56 45.99 -56 46.98 -56 48 C-60.56244637 48.05813173 -65.12479724 48.09364122 -69.6875 48.125 C-70.98107422 48.14175781 -72.27464844 48.15851563 -73.60742188 48.17578125 C-74.85458984 48.18222656 -76.10175781 48.18867188 -77.38671875 48.1953125 C-78.53358154 48.20578613 -79.68044434 48.21625977 -80.86206055 48.22705078 C-83.99191655 48.00058489 -86.18079905 47.33456032 -89 46 C-88.67 45.34 -88.34 44.68 -88 44 C-86.54400391 44.47953125 -86.54400391 44.47953125 -85.05859375 44.96875 C-71.56751003 48.78755613 -58.30337261 45.93139609 -46 40 C-44.85789063 39.45859375 -43.71578125 38.9171875 -42.5390625 38.359375 C-24.72514579 29.30431995 -11.64853076 15.89354848 0 0 Z " fill="#F3590D" transform="translate(166,128)"/>
<path d="M0 0 C1.13791992 -0.01160156 1.13791992 -0.01160156 2.29882812 -0.0234375 C6.15600994 -0.00981991 8.03341189 0.06394126 11.3125 2.25 C11.3125 3.57 11.3125 4.89 11.3125 6.25 C9.50390625 7.79296875 9.50390625 7.79296875 6.875 9.4375 C-5.70205095 18.17472686 -16.43565329 29.4522992 -24.12109375 42.6875 C-25.6875 45.25 -25.6875 45.25 -27.6875 46.25 C-27.83417378 41.79201956 -27.92203375 37.33466946 -28 32.875 C-28.04189453 31.62332031 -28.08378906 30.37164062 -28.12695312 29.08203125 C-28.2316722 21.08149394 -27.48745755 14.84215467 -22.6875 8.25 C-15.90246653 1.75112686 -9.21699079 -0.09543045 0 0 Z " fill="#FAFAF6" transform="translate(78.6875,47.75)"/>
<path d="M0 0 C0.33 0 0.66 0 1 0 C1.11638426 4.06225821 1.18731373 8.1240863 1.25 12.1875 C1.30027344 13.91323242 1.30027344 13.91323242 1.3515625 15.67382812 C1.36445313 16.78564453 1.37734375 17.89746094 1.390625 19.04296875 C1.41157227 20.06414795 1.43251953 21.08532715 1.45410156 22.13745117 C0.87963648 25.75874314 -0.49512867 27.37448119 -3 30 C-11.46691327 35.72999704 -21.17235754 37.88827517 -31 40 C-32.50046875 40.3403125 -32.50046875 40.3403125 -34.03125 40.6875 C-38.42660071 41.64070859 -42.47454065 42.23818207 -47 42 C-44.02299593 39.69769078 -40.94561444 37.67334611 -37.75 35.6875 C-23.34146786 26.54619286 -11.35360344 15.36759844 -1.24609375 1.61328125 C-0.62927734 0.81470703 -0.62927734 0.81470703 0 0 Z " fill="#FBFBF7" transform="translate(173,135)"/>
<path d="M0 0 C0.33 0 0.66 0 1 0 C1.33 7.92 1.66 15.84 2 24 C3.505625 21.64875 5.01125 19.2975 6.5625 16.875 C10.16928879 11.35577987 13.58453944 6.88500432 19 3 C19 5.31 19 7.62 19 10 C16 10 16 10 14 9 C15.86566488 12.62793998 15.86566488 12.62793998 19 15 C19.33 13.35 19.66 11.7 20 10 C20.66 10 21.32 10 22 10 C22.33 9.01 22.66 8.02 23 7 C23.99 7.66 24.98 8.32 26 9 C25.43410156 9.69867188 24.86820313 10.39734375 24.28515625 11.1171875 C23.55167969 12.02726562 22.81820312 12.93734375 22.0625 13.875 C21.33160156 14.77992187 20.60070312 15.68484375 19.84765625 16.6171875 C17.9963748 18.84502747 17.9963748 18.84502747 17 21 C16.34 21 15.68 21 15 21 C14.7525 21.9075 14.505 22.815 14.25 23.75 C12.96018658 27.10351489 11.68028958 28.67708236 9 31 C6.875 26.375 6.875 26.375 8 23 C7.34 23 6.68 23 6 23 C5.67 24.32 5.34 25.64 5 27 C3.35 27 1.7 27 0 27 C0 18.09 0 9.18 0 0 Z " fill="#ED631B" transform="translate(50,69)"/>
<path d="M0 0 C2.66666667 1.33333333 5.33333333 2.66666667 8 4 C8.33 2.68 8.66 1.36 9 0 C10.32 0.33 11.64 0.66 13 1 C9.34014204 5.50344225 5.73202672 9.60528518 1 13 C-0.32 13 -1.64 13 -3 13 C-3.33 13.66 -3.66 14.32 -4 15 C-4.66 15 -5.32 15 -6 15 C-6.33 16.65 -6.66 18.3 -7 20 C-7.99 19.67 -8.98 19.34 -10 19 C-11.1875 16.4375 -11.1875 16.4375 -12 14 C-10.68 14.33 -9.36 14.66 -8 15 C-7.979375 13.824375 -7.95875 12.64875 -7.9375 11.4375 C-7.32071017 6.03095167 -4.01208191 3.3521311 0 0 Z " fill="#F4560C" transform="translate(76,64)"/>
<path d="M0 0 C0.99 0.33 1.98 0.66 3 1 C3 1.33 3 1.66 3 2 C3.845625 1.67 4.69125 1.34 5.5625 1 C9.20989216 -0.06105954 12.22274664 -0.15109013 16 0 C14 2 14 2 10.75 3.6875 C4.93993032 6.93822792 1.08939295 11.70150033 -1 18 C-1.19957082 20.41703776 -1.29371675 22.84366616 -1.31884766 25.26879883 C-1.32889328 25.98153961 -1.3389389 26.6942804 -1.34928894 27.42861938 C-1.38004241 29.77141556 -1.39713396 32.11409786 -1.4140625 34.45703125 C-1.43278048 36.08657302 -1.45235437 37.71610517 -1.4727478 39.34562683 C-1.52400851 43.62480994 -1.56366657 47.90402445 -1.60089111 52.18334961 C-1.64096884 56.55395233 -1.69204397 60.9244251 -1.7421875 65.29492188 C-1.83887499 73.86319238 -1.92330262 82.43152735 -2 91 C-2.33 91 -2.66 91 -3 91 C-3.07002015 81.49758328 -3.12307197 71.99525761 -3.15543652 62.49263763 C-3.17098278 58.07849406 -3.19201474 53.6645291 -3.22631836 49.25048828 C-3.25931142 44.97753689 -3.2769356 40.7047555 -3.28463173 36.4316864 C-3.29010458 34.81488881 -3.30078749 33.19809877 -3.31719017 31.58137512 C-3.4230496 20.69809002 -2.39259512 10.62411027 0 0 Z " fill="#E77235" transform="translate(136,48)"/>
<path d="M0 0 C0.66 0.33 1.32 0.66 2 1 C1.67 25.75 1.34 50.5 1 76 C0.34 76 -0.32 76 -1 76 C-1 53.89 -1 31.78 -1 9 C-1.66 9 -2.32 9 -3 9 C-2.4140625 2.84765625 -2.4140625 2.84765625 -2 1 C-1.34 0.67 -0.68 0.34 0 0 Z " fill="#F35508" transform="translate(132,63)"/>
<path d="M0 0 C1.98 0 3.96 0 6 0 C6 24.42 6 48.84 6 74 C5.34 72.68 4.68 71.36 4 70 C3.34 69.67 2.68 69.34 2 69 C2.33 68.01 2.66 67.02 3 66 C3.10385834 64.01248489 3.14858174 62.02168141 3.16113281 60.03149414 C3.17074036 58.80334488 3.1803479 57.57519562 3.19024658 56.30982971 C3.19509401 54.96827378 3.19937297 53.62671569 3.203125 52.28515625 C3.20887857 50.90897113 3.21463628 49.53278603 3.22039795 48.15660095 C3.23089691 45.27244697 3.23674709 42.38832079 3.24023438 39.50415039 C3.24572307 35.81076499 3.26976327 32.11774751 3.29820633 28.42447758 C3.31683884 25.58230009 3.32203857 22.74021123 3.32357025 19.89797783 C3.32659492 18.53642193 3.33461727 17.17486753 3.34775543 15.81337166 C3.36482996 13.90828888 3.36108882 12.00305402 3.35644531 10.09790039 C3.36191376 8.47266197 3.36191376 8.47266197 3.36749268 6.81459045 C2.95765247 3.67566444 2.10873375 2.31017003 0 0 Z " fill="#E7702A" transform="translate(170,48)"/>
<path d="M0 0 C0.66 0 1.32 0 2 0 C2.00808685 0.75310959 2.01617371 1.50621918 2.02450562 2.28215027 C2.10253154 9.38863752 2.18984623 16.49493627 2.28752708 23.60117626 C2.33741688 27.25434274 2.38374729 30.90748134 2.421875 34.56079102 C2.45882064 38.08817826 2.50520521 41.61532795 2.55806351 45.14251137 C2.58554291 47.13929597 2.60331284 49.13620655 2.62094116 51.13310242 C2.64081085 52.35399063 2.66068054 53.57487885 2.68115234 54.83276367 C2.69447601 55.90531906 2.70779968 56.97787445 2.7215271 58.08293152 C3.01013894 61.10620771 3.62822173 63.29752749 5 66 C5.66 66.33 6.32 66.66 7 67 C7 67.66 7 68.32 7 69 C7.66 69 8.32 69 9 69 C9.33 69.99 9.66 70.98 10 72 C12.01508358 72.73323796 12.01508358 72.73323796 14 73 C13.505 73.99 13.505 73.99 13 75 C17.29 75 21.58 75 26 75 C26.33 74.34 26.66 73.68 27 73 C27.99 73 28.98 73 30 73 C30 73.66 30 74.32 30 75 C33.63 75 37.26 75 41 75 C41 75.33 41 75.66 41 76 C35.62773294 76.89537784 30.31647109 77.13766968 24.875 77.1875 C23.8540625 77.20683594 23.8540625 77.20683594 22.8125 77.2265625 C16.97082661 77.23792762 12.12186157 76.11318991 7.3125 72.75 C6.47138672 72.18539062 6.47138672 72.18539062 5.61328125 71.609375 C1.54451358 67.55045906 0.62260832 63.00796204 0.56762695 57.44384766 C0.54783279 56.16297272 0.52803864 54.88209778 0.50764465 53.56240845 C0.50087642 52.17962796 0.49442938 50.79684588 0.48828125 49.4140625 C0.471421 47.9877265 0.45326895 46.56140524 0.43388367 45.13510132 C0.38652312 41.39679571 0.35662407 37.65854988 0.33044434 33.92004395 C0.30056799 30.09891968 0.25406212 26.27800106 0.20898438 22.45703125 C0.12311019 14.97145652 0.05569486 7.48586659 0 0 Z " fill="#E47B40" transform="translate(90,64)"/>
<path d="M0 0 C0 3.10551666 -0.5393715 4.35261084 -2 7 C0.475 7.495 0.475 7.495 3 8 C3 8.33 3 8.66 3 9 C-1.455 9.495 -1.455 9.495 -6 10 C-6 10.33 -6 10.66 -6 11 C-2.7 11 0.6 11 4 11 C1.71656857 13.28343143 0.73808544 13.45372942 -2.359375 14.0703125 C-3.22820312 14.24433594 -4.09703125 14.41835937 -4.9921875 14.59765625 C-5.90226562 14.77167969 -6.81234375 14.94570312 -7.75 15.125 C-8.64460937 15.30675781 -9.53921875 15.48851562 -10.4609375 15.67578125 C-15.03837423 16.573715 -19.31029064 17.23293258 -24 17 C-21.02299593 14.69769078 -17.94561444 12.67334611 -14.75 10.6875 C-6.97491719 5.87563489 -6.97491719 5.87563489 0 0 Z " fill="#F8F1E6" transform="translate(150,160)"/>
<path d="M0 0 C2.1519437 3.22791555 2.20086443 4.28400809 2 8 C2.99 8 3.98 8 5 8 C5 7.34 5 6.68 5 6 C6.32 6 7.64 6 9 6 C9 13.92 9 21.84 9 30 C8.67 30 8.34 30 8 30 C7.67 22.74 7.34 15.48 7 8 C5.081875 10.4440625 5.081875 10.4440625 3.125 12.9375 C-0.75 17.875 -0.75 17.875 -3 19 C-3 18.01 -3 17.02 -3 16 C-2.34 16 -1.68 16 -1 16 C-1.165 15.071875 -1.33 14.14375 -1.5 13.1875 C-2 10 -2 10 -2 7 C-3.32 8.65 -4.64 10.3 -6 12 C-5.01 12.33 -4.02 12.66 -3 13 C-6 14 -6 14 -9 13 C-7.50923566 9.7173068 -5.61379679 7.06922559 -3.375 4.25 C-2.74335938 3.45078125 -2.11171875 2.6515625 -1.4609375 1.828125 C-0.97882813 1.22484375 -0.49671875 0.6215625 0 0 Z " fill="#EC6B29" transform="translate(166,128)"/>
<path d="M0 0 C0.66 0 1.32 0 2 0 C2.66 2.31 3.32 4.62 4 7 C3.01 7.33 2.02 7.66 1 8 C1.11761885 15.33247511 1.24245007 22.66480192 1.37231445 29.99707031 C1.4156466 32.49183361 1.45732291 34.98662623 1.49731445 37.48144531 C1.55505836 41.06584516 1.61874135 44.6500976 1.68359375 48.234375 C1.70030624 49.35116638 1.71701874 50.46795776 1.73423767 51.61859131 C1.75418289 52.65936829 1.77412811 53.70014526 1.79467773 54.77246094 C1.81022202 55.68735291 1.8257663 56.60224487 1.84178162 57.54486084 C1.98875603 59.8255227 2.36277186 61.81130585 3 64 C4.65 64 6.3 64 8 64 C7.34 64.99 6.68 65.98 6 67 C4.125 66.8125 4.125 66.8125 2 66 C0.04492371 62.21553661 -0.24452344 59.05241063 -0.22705078 54.83276367 C-0.22689972 53.61187546 -0.22674866 52.39098724 -0.22659302 51.13310242 C-0.21627045 49.82460831 -0.20594788 48.5161142 -0.1953125 47.16796875 C-0.19157922 45.80748198 -0.18873373 44.4469925 -0.18673706 43.08650208 C-0.17912538 39.51738983 -0.15949834 35.94844209 -0.1373291 32.37939453 C-0.11681735 28.73277003 -0.10772398 25.08611877 -0.09765625 21.43945312 C-0.07624991 14.29290173 -0.04214397 7.14646164 0 0 Z " fill="#F05806" transform="translate(92,64)"/>
<path d="M0 0 C2.64 0 5.28 0 8 0 C6.25 1.125 6.25 1.125 4 2 C1.75 1.125 1.75 1.125 0 0 Z M-2 2 C0.91809581 2.08706253 3.83315711 2.19394734 6.75 2.3125 C7.575 2.33505859 8.4 2.35761719 9.25 2.38085938 C16.79475636 2.71550583 16.79475636 2.71550583 20 6 C15.47379812 7.28632669 11.11209283 7.18399318 6.4375 7.1875 C5.57447266 7.19974609 4.71144531 7.21199219 3.82226562 7.22460938 C2.57799805 7.22750977 2.57799805 7.22750977 1.30859375 7.23046875 C0.55376709 7.23457764 -0.20105957 7.23868652 -0.97875977 7.24291992 C-3 7 -3 7 -6 5 C-5.01 5 -4.02 5 -3 5 C-2.67 4.01 -2.34 3.02 -2 2 Z " fill="#FAF8F0" transform="translate(88,168)"/>
<path d="M0 0 C0.33 0 0.66 0 1 0 C1 25.66666667 1 51.33333333 1 77 C0.505 76.855625 0.01 76.71125 -0.5 76.5625 C-3.97752922 75.78005593 -7.45955123 75.41305236 -11 75 C-11 74.67 -11 74.34 -11 74 C-5.555 73.505 -5.555 73.505 0 73 C0 48.91 0 24.82 0 0 Z " fill="#FEF3E5" transform="translate(134,66)"/>
<path d="M0 0 C0.00808685 0.77816574 0.01617371 1.55633148 0.02450562 2.358078 C0.10252272 9.70002312 0.18983468 17.04177154 0.28752708 24.38347912 C0.33742269 28.15771513 0.3837531 31.93192407 0.421875 35.70629883 C0.45881322 39.35039093 0.50519591 42.99425276 0.55806351 46.63814735 C0.57656221 48.02672591 0.59168682 49.41535374 0.60334396 50.80400658 C0.62028326 52.75249335 0.6504508 54.7008514 0.68115234 56.64916992 C0.69447601 57.7572551 0.70779968 58.86534027 0.7215271 60.00700378 C1.00325852 63.03502227 1.72165243 65.25687668 3 68 C1.68 68 0.36 68 -1 68 C-1.85864036 64.30532056 -2.10806061 60.92898344 -2.06591797 57.13989258 C-2.05128006 55.40833672 -2.05128006 55.40833672 -2.03634644 53.64179993 C-2.02177399 52.40520126 -2.00720154 51.1686026 -1.9921875 49.89453125 C-1.97468132 47.27669652 -1.95777208 44.65885774 -1.94140625 42.04101562 C-1.91155973 37.91274107 -1.87570435 33.7846093 -1.82861328 29.65649414 C-1.78386222 25.6733979 -1.76289615 21.69032678 -1.7421875 17.70703125 C-1.72356659 16.46435989 -1.70494568 15.22168854 -1.6857605 13.94136047 C-1.68057907 12.22398933 -1.68057907 12.22398933 -1.67529297 10.47192383 C-1.66077591 8.95566154 -1.66077591 8.95566154 -1.64596558 7.4087677 C-1.76279694 6.61387436 -1.8796283 5.81898102 -2 5 C-2.99 4.34 -3.98 3.68 -5 3 C-2.25 0 -2.25 0 0 0 Z " fill="#FDF1DB" transform="translate(91,65)"/>
<path d="M0 0 C0 0.66 0 1.32 0 2 C-0.969375 2.268125 -1.93875 2.53625 -2.9375 2.8125 C-3.948125 3.204375 -4.95875 3.59625 -6 4 C-6.33 4.99 -6.66 5.98 -7 7 C-10 9 -10 9 -12 10 C-12 9.34 -12 8.68 -12 8 C-14.64 8.33 -17.28 8.66 -20 9 C-20 9.99 -20 10.98 -20 12 C-24.56244637 12.05813173 -29.12479724 12.09364122 -33.6875 12.125 C-34.98107422 12.14175781 -36.27464844 12.15851563 -37.60742188 12.17578125 C-38.85458984 12.18222656 -40.10175781 12.18867188 -41.38671875 12.1953125 C-42.53358154 12.20578613 -43.68044434 12.21625977 -44.86206055 12.22705078 C-47.99191655 12.00058489 -50.18079905 11.33456032 -53 10 C-52.67 9.34 -52.34 8.68 -52 8 C-51.02933594 8.3196875 -50.05867188 8.639375 -49.05859375 8.96875 C-28.81572487 14.69872644 -17.54010115 0 0 0 Z " fill="#E57538" transform="translate(130,164)"/>
<path d="M0 0 C0 3.66666667 0 7.33333333 0 11 C-0.66 11 -1.32 11 -2 11 C-2 12.65 -2 14.3 -2 16 C-4.25 16.75 -4.25 16.75 -7 17 C-9.1875 15.125 -9.1875 15.125 -11 13 C-11.66 12.67 -12.32 12.34 -13 12 C-11.375 10 -11.375 10 -9 8 C-5.75 7.75 -5.75 7.75 -3 8 C-3.66 7.67 -4.32 7.34 -5 7 C-3.70700306 4.11562221 -2.34058637 2.12780579 0 0 Z " fill="#F35C14" transform="translate(165,133)"/>
<path d="M0 0 C0.103125 0.639375 0.20625 1.27875 0.3125 1.9375 C0.539375 2.618125 0.76625 3.29875 1 4 C1.99 4.33 2.98 4.66 4 5 C3.34 6.98 2.68 8.96 2 11 C1.34 11 0.68 11 0 11 C0 11.66 0 12.32 0 13 C1.32 13 2.64 13 4 13 C4.33 12.01 4.66 11.02 5 10 C5 12.31 5 14.62 5 17 C3.35 16.67 1.7 16.34 0 16 C0 16.66 0 17.32 0 18 C-0.99 18 -1.98 18 -3 18 C-4.62712831 14.90845621 -5.24032125 12.8495681 -4.27734375 9.4453125 C-2.97622103 6.22748212 -1.55182033 3.10364067 0 0 Z " fill="#F85407" transform="translate(171,118)"/>
<path d="M0 0 C0.33 0 0.66 0 1 0 C1 8.25 1 16.5 1 25 C0.67 25 0.34 25 0 25 C0 22.36 0 19.72 0 17 C-0.99 17 -1.98 17 -3 17 C-3.33 17.66 -3.66 18.32 -4 19 C-4 15.7 -4 12.4 -4 9 C-4.66 8.67 -5.32 8.34 -6 8 C-5.02471263 6.66382648 -4.04466681 5.3311249 -3.0625 4 C-2.24458984 2.88625 -2.24458984 2.88625 -1.41015625 1.75 C-0.94480469 1.1725 -0.47945312 0.595 0 0 Z " fill="#F9F1E5" transform="translate(173,135)"/>
<path d="M0 0 C0.63292969 0.47050781 1.26585938 0.94101563 1.91796875 1.42578125 C6.01564676 3.51876508 9.77407294 3.79705916 14.3125 4.1875 C15.14845703 4.26935547 15.98441406 4.35121094 16.84570312 4.43554688 C18.89609388 4.63472769 20.94793562 4.81887282 23 5 C23 5.99 23 6.98 23 8 C19.37501666 8.02893932 15.75006287 8.04677792 12.125 8.0625 C10.57619141 8.07506836 10.57619141 8.07506836 8.99609375 8.08789062 C8.00996094 8.09111328 7.02382812 8.09433594 6.0078125 8.09765625 C5.09660645 8.10289307 4.18540039 8.10812988 3.24658203 8.11352539 C1 8 1 8 -1 7 C-1 6.01 -1 5.02 -1 4 C-0.34 4 0.32 4 1 4 C0.67 2.68 0.34 1.36 0 0 Z " fill="#FAF6EB" transform="translate(97,136)"/>
<path d="M0 0 C0.83595703 0.00902344 1.67191406 0.01804688 2.53320312 0.02734375 C4.58475969 0.05079011 6.63616777 0.08665734 8.6875 0.125 C9.0175 0.785 9.3475 1.445 9.6875 2.125 C8.95144531 2.10179687 8.21539062 2.07859375 7.45703125 2.0546875 C5.99330078 2.02761719 5.99330078 2.02761719 4.5 2 C3.05560547 1.96519531 3.05560547 1.96519531 1.58203125 1.9296875 C-1.44062778 2.1336456 -3.58019985 2.85625368 -6.3125 4.125 C-6.3125 4.785 -6.3125 5.445 -6.3125 6.125 C-6.993125 5.939375 -7.67375 5.75375 -8.375 5.5625 C-11.88482191 5.03976057 -14.83438063 5.51121423 -18.3125 6.125 C-12.82820565 0.03133961 -7.76797598 -0.15940598 0 0 Z " fill="#F8EBDB" transform="translate(161.3125,47.875)"/>
<path d="M0 0 C2.66666667 1.33333333 5.33333333 2.66666667 8 4 C8.33 2.68 8.66 1.36 9 0 C10.32 0.33 11.64 0.66 13 1 C12.07038578 2.15224028 11.1309875 3.29659176 10.1875 4.4375 C9.40439453 5.39462891 9.40439453 5.39462891 8.60546875 6.37109375 C7 8 7 8 4 9 C3.67 8.01 3.34 7.02 3 6 C0.69 5.67 -1.62 5.34 -4 5 C-2.68 3.35 -1.36 1.7 0 0 Z " fill="#EB5F17" transform="translate(76,64)"/>
<path d="M0 0 C-1.875 3.875 -1.875 3.875 -3 5 C-4.79030438 5.07289513 -6.58333718 5.08366137 -8.375 5.0625 C-9.35210937 5.05347656 -10.32921875 5.04445312 -11.3359375 5.03515625 C-12.65464844 5.01775391 -12.65464844 5.01775391 -14 5 C-14.99 5 -15.98 5 -17 5 C-16.67 3.68 -16.34 2.36 -16 1 C-14.14375 1.0309375 -14.14375 1.0309375 -12.25 1.0625 C-8.02851113 1.0699322 -4.21051954 0 0 0 Z " fill="#F45505" transform="translate(140,175)"/>
<path d="M0 0 C0.33 0 0.66 0 1 0 C1.12117188 1.2065625 1.24234375 2.413125 1.3671875 3.65625 C1.53615881 5.27086471 1.70544656 6.88544632 1.875 8.5 C1.95363281 9.29148438 2.03226563 10.08296875 2.11328125 10.8984375 C2.53129369 14.82132346 3.08222404 18.53691183 4.1328125 22.34375 C4.95186511 25.79705289 4.99651037 26.81467876 4 30 C4 29.34 4 28.68 4 28 C3.34 28 2.68 28 2 28 C1.67 29.32 1.34 30.64 1 32 C0.20414744 21.312837 -0.12825004 10.71600323 0 0 Z " fill="#E56C29" transform="translate(50,120)"/>
<path d="M0 0 C0.66 0.33 1.32 0.66 2 1 C-1.625 5.875 -1.625 5.875 -5 7 C-3.35 7.33 -1.7 7.66 0 8 C0 8.33 0 8.66 0 9 C-5.38027025 10.19088986 -10.45291384 11.2919519 -16 11 C-12.88565472 8.58841672 -9.64808253 6.46808917 -6.3125 4.375 C-2.98122189 2.41579346 -2.98122189 2.41579346 0 0 Z " fill="#F9DDC1" transform="translate(142,166)"/>
<path d="M0 0 C0.33 0.99 0.66 1.98 1 3 C1.66 3 2.32 3 3 3 C3 4.32 3 5.64 3 7 C3.66 7.66 4.32 8.32 5 9 C3.02 9.99 3.02 9.99 1 11 C0.67 10.01 0.34 9.02 0 8 C-2.52227736 6.19837331 -3.64513 5.95160864 -6.75 6.375 C-7.86375 6.684375 -7.86375 6.684375 -9 7 C-6.24479785 4.04070881 -3.53372712 1.96318174 0 0 Z " fill="#ED5E15" transform="translate(139,157)"/>
<path d="M0 0 C0.721875 0.598125 1.44375 1.19625 2.1875 1.8125 C2.1875 2.8025 2.1875 3.7925 2.1875 4.8125 C0.8675 4.4825 -0.4525 4.1525 -1.8125 3.8125 C-1.8125 4.8025 -1.8125 5.7925 -1.8125 6.8125 C-3.4625 6.8125 -5.1125 6.8125 -6.8125 6.8125 C-6.8125 5.8225 -6.8125 4.8325 -6.8125 3.8125 C-7.4725 3.4825 -8.1325 3.1525 -8.8125 2.8125 C-7.8125 0.8125 -7.8125 0.8125 -5.5625 -0.5 C-2.8125 -1.1875 -2.8125 -1.1875 0 0 Z " fill="#F95306" transform="translate(137.8125,163.1875)"/>
<path d="M0 0 C-0.33 1.32 -0.66 2.64 -1 4 C-2.32 4 -3.64 4 -5 4 C-5.66 5.98 -6.32 7.96 -7 10 C-8.98 10.33 -10.96 10.66 -13 11 C-12.01 9.35 -11.02 7.7 -10 6 C-10.66 5.67 -11.32 5.34 -12 5 C-10.37750059 4.16180842 -8.75191503 3.3295884 -7.125 2.5 C-6.22007812 2.0359375 -5.31515625 1.571875 -4.3828125 1.09375 C-2 0 -2 0 0 0 Z " fill="#F35808" transform="translate(170,165)"/>
<path d="M0 0 C-3.38168431 3.68006822 -6.42521756 5.9785845 -11 8 C-10.6875 5.125 -10.6875 5.125 -10 2 C-6.3558226 -0.4294516 -4.28758728 -0.16179575 0 0 Z " fill="#F8F0E5" transform="translate(144,153)"/>
<path d="M0 0 C2.97 0 5.94 0 9 0 C4.60546875 5.46875 4.60546875 5.46875 3 7 C2.01 7 1.02 7 0 7 C0 4.69 0 2.38 0 0 Z " fill="#F8F4EA" transform="translate(144,144)"/>
<path d="M0 0 C0.33 0 0.66 0 1 0 C1 1.65 1 3.3 1 5 C0.34 5 -0.32 5 -1 5 C-1 12.59 -1 20.18 -1 28 C-0.34 28.33 0.32 28.66 1 29 C0.01 29.66 -0.98 30.32 -2 31 C-2.04947698 27.06734104 -2.08575578 23.13480286 -2.10986328 19.2019043 C-2.12485495 17.20680382 -2.15026731 15.21179054 -2.17578125 13.21679688 C-2.18222656 11.96318359 -2.18867187 10.70957031 -2.1953125 9.41796875 C-2.20578613 8.26063232 -2.21625977 7.1032959 -2.22705078 5.91088867 C-2 3 -2 3 0 0 Z " fill="#FBE4CA" transform="translate(53,63)"/>
<path d="M0 0 C0.66 0.33 1.32 0.66 2 1 C1.01 2.485 1.01 2.485 0 4 C-0.66 4 -1.32 4 -2 4 C-2 4.66 -2 5.32 -2 6 C-1.34 6 -0.68 6 0 6 C0 6.99 0 7.98 0 9 C-0.78375 8.835 -1.5675 8.67 -2.375 8.5 C-6.14438785 7.78202136 -7.65397217 8.21545182 -11 10 C-7.84778899 5.58690458 -4.44536093 2.99206986 0 0 Z " fill="#E86A2A" transform="translate(88,54)"/>
<path d="M0 0 C0.33 0.66 0.66 1.32 1 2 C2.32 1.67 3.64 1.34 5 1 C5 1.66 5 2.32 5 3 C4.236875 3.680625 3.47375 4.36125 2.6875 5.0625 C-0.68240796 8.74588777 -1.72798902 12.25322732 -3 17 C-3.33 17 -3.66 17 -4 17 C-2.77419355 2.77419355 -2.77419355 2.77419355 0 0 Z " fill="#EA661F" transform="translate(137,53)"/>
<path d="M0 0 C1.32 0.66 2.64 1.32 4 2 C-1.94 5.465 -1.94 5.465 -8 9 C-8.66 8.01 -9.32 7.02 -10 6 C-8.68 5.67 -7.36 5.34 -6 5 C-6.66 4.67 -7.32 4.34 -8 4 C-7.67 3.01 -7.34 2.02 -7 1 C-6.34 1 -5.68 1 -5 1 C-5 1.66 -5 2.32 -5 3 C-3.35 3 -1.7 3 0 3 C0 2.01 0 1.02 0 0 Z " fill="#E8611E" transform="translate(136,167)"/>
<path d="M0 0 C2.97 1.65 5.94 3.3 9 5 C9 5.66 9 6.32 9 7 C9.99 7.33 10.98 7.66 12 8 C9.04335481 9.4783226 6.25770263 9.06032783 3 9 C3 8.34 3 7.68 3 7 C3.66 6.67 4.32 6.34 5 6 C5 5.34 5 4.68 5 4 C3.68 4 2.36 4 1 4 C0.67 2.68 0.34 1.36 0 0 Z " fill="#ED5A14" transform="translate(68,167)"/>
<path d="M0 0 C1.125 3.75 1.125 3.75 0 6 C-1.32 6 -2.64 6 -4 6 C-4 7.32 -4 8.64 -4 10 C-6.31 10.33 -8.62 10.66 -11 11 C-7.33333333 7.33333333 -3.66666667 3.66666667 0 0 Z " fill="#E46F2B" transform="translate(151,146)"/>
<path d="M0 0 C1.32 0 2.64 0 4 0 C4 0.66 4 1.32 4 2 C4.99 2 5.98 2 7 2 C7 2.66 7 3.32 7 4 C7.99 3.34 8.98 2.68 10 2 C12.6875 1.875 12.6875 1.875 15 2 C14.01 2.33 13.02 2.66 12 3 C12 3.99 12 4.98 12 6 C12.66 6.33 13.32 6.66 14 7 C8.39958947 6.57996921 4.411509 4.31423011 0 1 C0 0.67 0 0.34 0 0 Z " fill="#F8E8CF" transform="translate(68,166)"/>
<path d="M0 0 C2 2 2 2 2.125 4.625 C2.08375 5.40875 2.0425 6.1925 2 7 C-1.28696233 7.79953138 -2.71023192 8.09658936 -6 7 C-4.02 4.69 -2.04 2.38 0 0 Z " fill="#F5F0DF" transform="translate(166,144)"/>
<path d="M0 0 C0.99 0.33 1.98 0.66 3 1 C2.06915029 2.77433812 1.13005387 4.54435149 0.1875 6.3125 C-0.33457031 7.29863281 -0.85664063 8.28476563 -1.39453125 9.30078125 C-2.7719876 11.61665068 -3.99530591 13.23611001 -6 15 C-6.33 13.68 -6.66 12.36 -7 11 C-6.01 11 -5.02 11 -4 11 C-4 9.68 -4 8.36 -4 7 C-3.34 7 -2.68 7 -2 7 C-2 5.68 -2 4.36 -2 3 C-1.34 3 -0.68 3 0 3 C0 2.01 0 1.02 0 0 Z " fill="#F8F0DE" transform="translate(169,117)"/>
<path d="M0 0 C2.95929119 2.75520215 5.03681826 5.46627288 7 9 C4.625 9.625 4.625 9.625 2 10 C1.34 9.34 0.68 8.68 0 8 C0.33 7.34 0.66 6.68 1 6 C0.34 6 -0.32 6 -1 6 C-1 5.34 -1 4.68 -1 4 C-0.34 4 0.32 4 1 4 C0.67 2.68 0.34 1.36 0 0 Z " fill="#EC5F1B" transform="translate(57,154)"/>
<path d="M0 0 C0 3.66666667 0 7.33333333 0 11 C-1.65 11 -3.3 11 -5 11 C-5 10.34 -5 9.68 -5 9 C-4.34 8.67 -3.68 8.34 -3 8 C-3.66 7.67 -4.32 7.34 -5 7 C-3.70700306 4.11562221 -2.34058637 2.12780579 0 0 Z " fill="#FA5103" transform="translate(165,133)"/>
<path d="M0 0 C1.32 0 2.64 0 4 0 C2.41078475 5.36095277 0.81027062 10.70843973 -1 16 C-1.33 16 -1.66 16 -2 16 C-1.33333333 10.66666667 -0.66666667 5.33333333 0 0 Z " fill="#E46927" transform="translate(53,104)"/>
<path d="M0 0 C1.09658936 3.28976808 0.79953138 4.71303767 0 8 C-1.32 7.34 -2.64 6.68 -4 6 C-3.67 6.99 -3.34 7.98 -3 9 C-3.99 9 -4.98 9 -6 9 C-6 6 -6 6 -4.6875 4.39453125 C-4.130625 3.87246094 -3.57375 3.35039063 -3 2.8125 C-2.443125 2.28269531 -1.88625 1.75289063 -1.3125 1.20703125 C-0.6628125 0.60955078 -0.6628125 0.60955078 0 0 Z " fill="#EA6D2A" transform="translate(68,72)"/>
<path d="M0 0 C1.17079102 0.01160156 1.17079102 0.01160156 2.36523438 0.0234375 C3.53022461 0.01183594 3.53022461 0.01183594 4.71875 0 C8.62825605 0.01346944 10.60720469 0.05975105 13.92773438 2.2734375 C13.59773438 2.9334375 13.26773438 3.5934375 12.92773438 4.2734375 C12.27417969 3.94601563 11.620625 3.61859375 10.94726562 3.28125 C7.13285877 2.0081362 3.58292601 2.05624806 -0.38476562 2.1484375 C-1.49561523 2.16197266 -1.49561523 2.16197266 -2.62890625 2.17578125 C-4.4435003 2.19919537 -6.25792634 2.23506135 -8.07226562 2.2734375 C-5.45410824 -0.34471989 -3.56758224 0.01231262 0 0 Z " fill="#F9E6CD" transform="translate(76.072265625,47.7265625)"/>
<path d="M0 0 C0.33 0.66 0.66 1.32 1 2 C2.32 2 3.64 2 5 2 C4.1875 3.9375 4.1875 3.9375 3 6 C0 7 0 7 -3 6 C-3 5.01 -3 4.02 -3 3 C-2.01 3 -1.02 3 0 3 C0 2.01 0 1.02 0 0 Z " fill="#F9F4EA" transform="translate(168,158)"/>
<path d="M0 0 C0.66 0.66 1.32 1.32 2 2 C1.625 5.125 1.625 5.125 1 8 C-0.65 8 -2.3 8 -4 8 C-2.25 2.25 -2.25 2.25 0 0 Z " fill="#F8EBDE" transform="translate(62,96)"/>
<path d="M0 0 C0.66 0 1.32 0 2 0 C2 0.66 2 1.32 2 2 C3.65 2 5.3 2 7 2 C7.33 2.99 7.66 3.98 8 5 C7.01 6.485 7.01 6.485 6 8 C4.99403703 7.0479279 3.99538437 6.08812654 3 5.125 C2.443125 4.59132812 1.88625 4.05765625 1.3125 3.5078125 C0 2 0 2 0 0 Z " fill="#F6EFE0" transform="translate(61,158)"/>
<path d="M0 0 C0.33 0 0.66 0 1 0 C1.66 2.64 2.32 5.28 3 8 C1.68 8 0.36 8 -1 8 C-1.33 9.32 -1.66 10.64 -2 12 C-2.66 12 -3.32 12 -4 12 C-2 3.42857143 -2 3.42857143 0 0 Z " fill="#FBE7CF" transform="translate(57,104)"/>
<path d="M0 0 C0.33 0 0.66 0 1 0 C2.13764351 4.26616316 3 7.56486311 3 12 C1.68 11.34 0.36 10.68 -1 10 C-0.67 6.7 -0.34 3.4 0 0 Z " fill="#F8F4E9" transform="translate(90,122)"/>
<path d="M0 0 C-0.66 1.32 -1.32 2.64 -2 4 C-2.66 4 -3.32 4 -4 4 C-4 3.34 -4 2.68 -4 2 C-4.99 2.33 -5.98 2.66 -7 3 C-8.39439664 3.06665376 -9.79169875 3.08538199 -11.1875 3.0625 C-13.0746875 3.0315625 -13.0746875 3.0315625 -15 3 C-14.67 2.34 -14.34 1.68 -14 1 C-11.85546875 0.5859375 -11.85546875 0.5859375 -9.1875 0.375 C-8.31480469 0.30023438 -7.44210938 0.22546875 -6.54296875 0.1484375 C-4.36512507 0.02131298 -2.18155077 0 0 0 Z " fill="#E36B24" transform="translate(140,175)"/>
<path d="M0 0 C0.66 0 1.32 0 2 0 C2 1.65 2 3.3 2 5 C2.66 5 3.32 5 4 5 C2.25 9.875 2.25 9.875 0 11 C0 7.37 0 3.74 0 0 Z " fill="#F9F5E9" transform="translate(53,80)"/>
<path d="M0 0 C0 3.70411834 -0.75301769 5.078923 -3 8 C-6.1875 9.3125 -6.1875 9.3125 -9 10 C-8.06409496 8.8944811 -7.12620142 7.79064547 -6.1875 6.6875 C-5.66542969 6.07261719 -5.14335938 5.45773438 -4.60546875 4.82421875 C-3.12827531 3.14575321 -1.59960869 1.56117966 0 0 Z " fill="#F2DAC1" transform="translate(81,72)"/>
<path d="M0 0 C0.66 0.66 1.32 1.32 2 2 C1.56237193 5.17280351 0.22638495 8.05667611 -1 11 C-1.33 11 -1.66 11 -2 11 C-2 9.35 -2 7.7 -2 6 C-2.66 6 -3.32 6 -4 6 C-3.34 4.68 -2.68 3.36 -2 2 C-2 2.66 -2 3.32 -2 4 C-1.34 4 -0.68 4 0 4 C0 2.68 0 1.36 0 0 Z " fill="#EA6321" transform="translate(52,58)"/>
<path d="M0 0 C1.22589844 0.01353516 1.22589844 0.01353516 2.4765625 0.02734375 C3.41628906 0.04474609 3.41628906 0.04474609 4.375 0.0625 C4.375 0.7225 4.375 1.3825 4.375 2.0625 C2.91864629 2.28424933 1.45977044 2.48948698 0 2.6875 C-0.81210938 2.80351562 -1.62421875 2.91953125 -2.4609375 3.0390625 C-3.17507812 3.04679688 -3.88921875 3.05453125 -4.625 3.0625 C-5.285 2.4025 -5.945 1.7425 -6.625 1.0625 C-4.21954362 -0.14022819 -2.67503047 -0.03821472 0 0 Z " fill="#F8FDFC" transform="translate(148.625,168.9375)"/>
<path d="M0 0 C1.0625 1.875 1.0625 1.875 2 4 C1.67 4.66 1.34 5.32 1 6 C0.505 5.855625 0.01 5.71125 -0.5 5.5625 C-3.97752922 4.78005593 -7.45955123 4.41305236 -11 4 C-11 3.67 -11 3.34 -11 3 C-5.555 2.505 -5.555 2.505 0 2 C0 1.34 0 0.68 0 0 Z " fill="#F9E4D4" transform="translate(134,137)"/>
<path d="M0 0 C0.93423645 3.01031744 1.04449911 3.86650268 0 7 C-1.32 6.67 -2.64 6.34 -4 6 C-4 6.99 -4 7.98 -4 9 C-4.66 9 -5.32 9 -6 9 C-4.52307692 4.32307692 -4.52307692 4.32307692 -1.875 2.6875 C-1.25625 2.460625 -0.6375 2.23375 0 2 C0 1.34 0 0.68 0 0 Z " fill="#F8E8D5" transform="translate(142,54)"/>
<path d="M0 0 C0.33 0.99 0.66 1.98 1 3 C-0.9375 5.6875 -0.9375 5.6875 -3 8 C-2.01 8.33 -1.02 8.66 0 9 C-3 10 -3 10 -6 9 C-4.47291037 5.56404834 -2.40072955 2.88087546 0 0 Z " fill="#E36C2F" transform="translate(163,132)"/>
<path d="M0 0 C0.66 0 1.32 0 2 0 C0.6062718 4.43458973 -1.60582235 6.87378374 -5 10 C-4.125 4.25 -4.125 4.25 -3 2 C-2.01 2 -1.02 2 0 2 C0 1.34 0 0.68 0 0 Z " fill="#E1641C" transform="translate(171,134)"/>
<path d="M0 0 C0.103125 0.639375 0.20625 1.27875 0.3125 1.9375 C0.539375 2.618125 0.76625 3.29875 1 4 C1.99 4.33 2.98 4.66 4 5 C3.67 5.99 3.34 6.98 3 8 C2.34 7.67 1.68 7.34 1 7 C1 6.34 1 5.68 1 5 C0.34 5 -0.32 5 -1 5 C-1 5.99 -1 6.98 -1 8 C-1.66 8 -2.32 8 -3 8 C-1.125 2.25 -1.125 2.25 0 0 Z " fill="#E96B27" transform="translate(171,118)"/>
<path d="M0 0 C0.66 0 1.32 0 2 0 C1.38722388 2.96175123 0.74627478 4.38058783 -1 7 C-2.32 6.67 -3.64 6.34 -5 6 C-3.38405168 3.95880212 -1.7143618 1.95927063 0 0 Z " fill="#FBF7EE" transform="translate(85,69)"/>
<path d="M0 0 C1.33804688 0.17982422 1.33804688 0.17982422 2.703125 0.36328125 C3.37859375 0.47027344 4.0540625 0.57726562 4.75 0.6875 C1.53817851 2.59358098 -0.78882603 2.91016247 -4.5 2.8125 C-5.39203125 2.79445312 -6.2840625 2.77640625 -7.203125 2.7578125 C-8.21632813 2.72300781 -8.21632813 2.72300781 -9.25 2.6875 C-6.03037108 -0.23875152 -4.27288159 -0.61844339 0 0 Z " fill="#FCEFDE" transform="translate(103.25,172.3125)"/>
<path d="M0 0 C-0.33 1.32 -0.66 2.64 -1 4 C-5.455 4.495 -5.455 4.495 -10 5 C-7.30495181 2.30495181 -3.91639523 0 0 0 Z " fill="#E97D41" transform="translate(170,165)"/>
<path d="M0 0 C0.721875 0.474375 1.44375 0.94875 2.1875 1.4375 C4.89475226 2.94152903 6.96194275 3.56599182 10 4 C10 4.33 10 4.66 10 5 C8.54364629 5.22174933 7.08477044 5.42698698 5.625 5.625 C4.81289062 5.74101562 4.00078125 5.85703125 3.1640625 5.9765625 C2.44992188 5.98429688 1.73578125 5.99203125 1 6 C0.34 5.34 -0.32 4.68 -1 4 C-0.34 4 0.32 4 1 4 C0.67 2.68 0.34 1.36 0 0 Z " fill="#F9E4CF" transform="translate(97,136)"/>
<path d="M0 0 C0.66 0 1.32 0 2 0 C2.38885039 1.78871178 2.76069196 3.58112874 3.125 5.375 C3.33382812 6.37273437 3.54265625 7.37046875 3.7578125 8.3984375 C3.83773437 9.25695312 3.91765625 10.11546875 4 11 C3.34 11.66 2.68 12.32 2 13 C-0.28571429 4.57142857 -0.28571429 4.57142857 0 0 Z " fill="#FBEFD9" transform="translate(52,133)"/>
<path d="M0 0 C1.32 0.33 2.64 0.66 4 1 C2.02 3.31 0.04 5.62 -2 8 C-2.66 7.34 -3.32 6.68 -4 6 C-3.01 5.67 -2.02 5.34 -1 5 C-0.67 3.35 -0.34 1.7 0 0 Z " fill="#FAF1E4" transform="translate(156,136)"/>
<path d="M0 0 C0.99 0 1.98 0 3 0 C3 0.66 3 1.32 3 2 C6.63 2 10.26 2 14 2 C14 2.33 14 2.66 14 3 C9.05 3 4.1 3 -1 3 C-0.67 2.01 -0.34 1.02 0 0 Z " fill="#E95F11" transform="translate(117,137)"/>
<path d="M0 0 C0.99 0 1.98 0 3 0 C3 0.66 3 1.32 3 2 C2.34 2 1.68 2 1 2 C0.731875 2.94875 0.46375 3.8975 0.1875 4.875 C-1 8 -1 8 -4 10 C-3.34 7.69 -2.68 5.38 -2 3 C-1.34 3 -0.68 3 0 3 C0 2.01 0 1.02 0 0 Z " fill="#DF6A32" transform="translate(64,88)"/>
<path d="M0 0 C1.98 0 3.96 0 6 0 C5.67 2.64 5.34 5.28 5 8 C4.731875 7.4225 4.46375 6.845 4.1875 6.25 C2.98280141 3.9674132 1.59201885 2.0262058 0 0 Z " fill="#E76825" transform="translate(170,48)"/>
<path d="M0 0 C0.66 0.33 1.32 0.66 2 1 C2 2.65 2 4.3 2 6 C0.35 5.67 -1.3 5.34 -3 5 C-1.125 1.125 -1.125 1.125 0 0 Z " fill="#F6FCFA" transform="translate(150,162)"/>
<path d="M0 0 C2.475 0.99 2.475 0.99 5 2 C5 2.66 5 3.32 5 4 C4.443125 3.814375 3.88625 3.62875 3.3125 3.4375 C0.600867 2.92448835 -1.34371039 3.3359276 -4 4 C-2.68 2.68 -1.36 1.36 0 0 Z " fill="#EB6829" transform="translate(134,160)"/>
<path d="M0 0 C0.33 0.66 0.66 1.32 1 2 C0.0625 4.625 0.0625 4.625 -1 7 C-2.32 6.34 -3.64 5.68 -5 5 C-3.35 3.35 -1.7 1.7 0 0 Z " fill="#FAEEE4" transform="translate(159,152)"/>
<path d="M0 0 C0.99 0.495 0.99 0.495 2 1 C2.99 1.33 3.98 1.66 5 2 C5 2.66 5 3.32 5 4 C4.34 4 3.68 4 3 4 C2.67 5.32 2.34 6.64 2 8 C0.23537317 4.91190305 0 3.76687864 0 0 Z " fill="#F6E9D2" transform="translate(55,146)"/>
<path d="M0 0 C0.33 0 0.66 0 1 0 C1 2.31 1 4.62 1 7 C-0.65 6.67 -2.3 6.34 -4 6 C-4 5.01 -4 4.02 -4 3 C-2.68 3 -1.36 3 0 3 C0 2.01 0 1.02 0 0 Z " fill="#F1570E" transform="translate(175,128)"/>
<path d="M0 0 C0.33 0 0.66 0 1 0 C1 3.3 1 6.6 1 10 C0.34 8.68 -0.32 7.36 -1 6 C-1.66 5.67 -2.32 5.34 -3 5 C-2.03114628 3.31503702 -1.03013277 1.64821244 0 0 Z " fill="#E9621B" transform="translate(175,112)"/>
<path d="M0 0 C1.32 0.33 2.64 0.66 4 1 C1.525 4.465 1.525 4.465 -1 8 C-2 4 -2 4 -1.0625 1.75 C-0.711875 1.1725 -0.36125 0.595 0 0 Z " fill="#F7F3E6" transform="translate(60,76)"/>
<path d="M0 0 C0.33 0.66 0.66 1.32 1 2 C0.67 2.99 0.34 3.98 0 5 C-0.99 5 -1.98 5 -3 5 C-3 5.99 -3 6.98 -3 8 C-3.66 8 -4.32 8 -5 8 C-4.45773019 4.20411134 -2.79872437 2.52788007 0 0 Z " fill="#F8DCC4" transform="translate(59,54)"/>
<path d="M0 0 C1.32 1.32 2.64 2.64 4 4 C3.01 4.495 3.01 4.495 2 5 C2 5.66 2 6.32 2 7 C1.34 7 0.68 7 0 7 C0 6.34 0 5.68 0 5 C-0.66 4.67 -1.32 4.34 -2 4 C-1.34 2.68 -0.68 1.36 0 0 Z " fill="#EC6017" transform="translate(64,163)"/>
<path d="M0 0 C0 1.32 0 2.64 0 4 C-2.31 4.33 -4.62 4.66 -7 5 C-2.25 0 -2.25 0 0 0 Z " fill="#ED621C" transform="translate(147,152)"/>
<path d="M0 0 C0.33 0.99 0.66 1.98 1 3 C2.32 2.67 3.64 2.34 5 2 C4.34 3.98 3.68 5.96 3 8 C1.5 6.8125 1.5 6.8125 0 5 C-0.1875 2.3125 -0.1875 2.3125 0 0 Z " fill="#F5F7E9" transform="translate(58,150)"/>
<path d="M0 0 C3 1 3 1 6 3 C5.67 3.99 5.34 4.98 5 6 C4.01 5.67 3.02 5.34 2 5 C0.8125 2.4375 0.8125 2.4375 0 0 Z " fill="#F95303" transform="translate(64,78)"/>
<path d="M0 0 C0.33 0 0.66 0 1 0 C3.27678571 8.03571429 3.27678571 8.03571429 2 12 C-0.13586678 8.79619983 -0.23132175 7.98060033 -0.125 4.3125 C-0.10695312 3.50425781 -0.08890625 2.69601563 -0.0703125 1.86328125 C-0.04710937 1.24839844 -0.02390625 0.63351563 0 0 Z " fill="#E5743A" transform="translate(52,138)"/>
<path d="M0 0 C0.33 0 0.66 0 1 0 C1 2.64 1 5.28 1 8 C-0.32 7.67 -1.64 7.34 -3 7 C-2.01 4.69 -1.02 2.38 0 0 Z " fill="#E6621C" transform="translate(55,88)"/>
<path d="M0 0 C0.99 0 1.98 0 3 0 C3.33 1.65 3.66 3.3 4 5 C2.68 5.33 1.36 5.66 0 6 C0 4.02 0 2.04 0 0 Z " fill="#F3FAF5" transform="translate(168,50)"/>
</svg>
