<svg xmlns="http://www.w3.org/2000/svg" viewBox="0 0 512 512" id="water">
  <g>
    <path fill="#00acea" d="M461.59 96.47C475.23 119.75 455.96 149 428.8 149c-20.99 0-37.27-17.49-37.27-36.24a32.416 32.416 0 0 1 4.49-16.42L428.8 50.78zM411.87 218.08c21.06 35.95-8.7 81.13-50.64 81.13-32.42 0-57.57-27.01-57.57-55.97a49.97 49.97 0 0 1 6.94-25.35l50.63-70.36zM315.38 106.85c12.06 20.58-4.97 46.43-28.97 46.43-18.56 0-32.95-15.45-32.95-32.03a28.549 28.549 0 0 1 3.97-14.51l28.98-40.26z"></path>
    <path fill="#00ceb4" d="M225.05,345.57V462.58a32.508,32.508,0,0,1-32.51,32.5H78.42a32.508,32.508,0,0,1-32.51-32.5V345.57A21.674,21.674,0,0,1,67.58,323.9h135.8A21.674,21.674,0,0,1,225.05,345.57Z"></path>
    <path fill="#00efd1" d="M225.05,215.55v86.68a21.674,21.674,0,0,1-21.67,21.67H67.58a21.674,21.674,0,0,1-21.67-21.67V215.55a21.674,21.674,0,0,1,21.67-21.67h135.8A21.674,21.674,0,0,1,225.05,215.55Z"></path>
    <path fill="#00ceb4" d="M225.05,107.93v64.28a21.674,21.674,0,0,1-21.67,21.67H67.58a21.674,21.674,0,0,1-21.67-21.67V107.93A47.684,47.684,0,0,1,93.59,60.25h83.78A47.684,47.684,0,0,1,225.05,107.93Z"></path>
    <rect width="67.18" height="43.33" x="101.89" y="16.92" fill="#00acea"></rect>
    <path fill="#083863" d="M177.37 52H177V16.92A7.872 7.872 0 0 0 169.07 9H101.89A7.839 7.839 0 0 0 94 16.92V52h-.41C62.888 52 38 77.228 38 107.93v64.28a29.588 29.588 0 0 0 9.434 21.67A29.588 29.588 0 0 0 38 215.55v86.68a29.588 29.588 0 0 0 9.434 21.67A29.588 29.588 0 0 0 38 345.57V462.58A40.406 40.406 0 0 0 78.42 503H192.54A40.44 40.44 0 0 0 233 462.58V345.57a29.588 29.588 0 0 0-9.434-21.67A29.588 29.588 0 0 0 233 302.23V215.55a29.588 29.588 0 0 0-9.434-21.67A29.588 29.588 0 0 0 233 172.21V107.93C233 77.228 208.072 52 177.37 52zM110 25h51V52H110zM217 345.57V462.58A24.422 24.422 0 0 1 192.54 487H78.42A24.388 24.388 0 0 1 54 462.58V345.57A13.523 13.523 0 0 1 67.58 332h135.8A13.557 13.557 0 0 1 217 345.57zm0-43.24A13.67 13.67 0 0 1 203.33 316H67.67A13.67 13.67 0 0 1 54 302.33V215.67A13.67 13.67 0 0 1 67.67 202H203.33A13.67 13.67 0 0 1 217 215.67zm0-130.12A13.746 13.746 0 0 1 203.38 186H67.58A13.712 13.712 0 0 1 54 172.21V107.93C54 86.05 71.71 68 93.59 68h83.78A39.9 39.9 0 0 1 217 107.93zM418.369 213.415L367.729 143.1a7.782 7.782 0 0 0-6.494-3.1h0a7.789 7.789 0 0 0-6.5 3.092l-50.631 70.243a6.851 6.851 0 0 0-.418.586 57.552 57.552 0 0 0-8.028 29.349c0 34.675 30.028 63.955 65.57 63.955A66.284 66.284 0 0 0 418.5 273.818c10.927-19.065 11.028-41.414.27-59.778C418.648 213.827 418.514 213.616 418.369 213.415zm-13.749 52.44a50.237 50.237 0 0 1-43.39 25.355 49.548 49.548 0 0 1-35.277-14.773c-9.083-9.112-14.293-21.211-14.293-33.2a41.819 41.819 0 0 1 5.666-21l43.9-61 43.923 61.194C412.9 235.918 412.719 251.725 404.62 265.855zM468.089 91.806L435.3 46.225A7.894 7.894 0 0 0 428.805 43h0a7.9 7.9 0 0 0-6.494 3.218L389.525 91.723c-.15.209-.291.4-.421.621a40.135 40.135 0 0 0-5.574 20.43c0 23.98 20.731 44.233 45.27 44.233a45.746 45.746 0 0 0 39.535-23.048c7.583-13.231 7.642-28.759.157-41.531C468.367 92.215 468.233 92.006 468.089 91.806zM454.453 126A29.707 29.707 0 0 1 428.8 141c-15.592 0-29.27-13.2-29.27-28.24a24.319 24.319 0 0 1 3.224-12.082l26.037-36.189 26.069 36.325C459.3 108.629 459.159 117.789 454.453 126zM322.151 140.448a37.145 37.145 0 0 0 .131-37.643c-.125-.212-.259-.419-.4-.619l-28.97-40.61A8.236 8.236 0 0 0 286.416 58h0a8.241 8.241 0 0 0-6.5 3.566l-28.98 40.38c-.149.207-.288.48-.416.7a36.438 36.438 0 0 0-5.061 18.574c0 21.7 18.753 40.045 40.95 40.045A41.337 41.337 0 0 0 322.151 140.448zm-13.881-7.955a25.316 25.316 0 0 1-21.86 12.787c-11.8 0-24.95-9.869-24.95-24.03a20.492 20.492 0 0 1 2.7-10.169L286.4 80.188l22.248 31C312.385 117.8 312.252 125.542 308.27 132.493z"></path>
  </g>
</svg>
