<svg xmlns="http://www.w3.org/2000/svg" viewBox="0 0 64 64" id="yogurt-berry">
  <path fill="#636a74" d="M48.62125,14.00375l-4.01,4h-8.48l9.3-9.3,6.82-6.83a2.99966,2.99966,0,0,1,4.24,0l.01.01a2.99966,2.99966,0,0,1,0,4.24l-7.88,7.87Z"></path>
  <path fill="#e6ecf4" d="M53.62125,23.00375h-40.7a1.29741,1.29741,0,0,1-1.3-1.3v-2.4a1.30382,1.30382,0,0,1,1.3-1.3h42.4a1.30382,1.30382,0,0,1,1.3,1.3v2.4a1.29741,1.29741,0,0,1-1.3,1.3Z"></path>
  <path fill="#ff5666" d="M48.62125,58.80375a3.40565,3.40565,0,0,1-1.16.2h-26.67a3.2782,3.2782,0,0,1-1.17-.21,3.439,3.439,0,0,1-2.26-2.94q-.24-2.925-.49-5.85h34.5c-.16,1.95-.33,3.9-.49,5.85A3.40936,3.40936,0,0,1,48.62125,58.80375Z"></path>
  <polygon fill="#d8e0eb" points="48.621 14.004 48.621 18.004 44.611 18.004 48.621 14.004"></polygon>
  <path fill="#ff5666" d="M39.62125,46.00375a3.99981,3.99981,0,0,1,1-2.64,1.53707,1.53707,0,0,1,.17-.19,4.00223,4.00223,0,1,1,2.83,6.83,4.00928,4.00928,0,0,1-4-4Z"></path>
  <path fill="#f3445a" d="M34.79125,43.17375a4.00761,4.00761,0,0,1,5.66,0,1.53707,1.53707,0,0,1,.17.19,3.9848,3.9848,0,0,0,0,5.28,1.53707,1.53707,0,0,1-.17.19,4.00223,4.00223,0,0,1-5.66-5.66Z"></path>
  <path fill="#ff5666" d="M28.45125 48.83375a4.00761 4.00761 0 111.17-2.83A4.02507 4.02507 0 0128.45125 48.83375zM25.62125 31.00375h-10.33c-.09-1-.17-2-.25-3-.14-1.67-.28-3.33-.42-5h39c-.22 2.67-.44 5.33-.67 8h-10.33v-.33a3.66389 3.66389 0 00-3.66-3.67h-9.68a3.66389 3.66389 0 00-3.66 3.67z"></path>
  <path fill="#e6ecf4" d="M40.45117,48.83371a4.02477,4.02477,0,0,1-2.82983,1.17h6a3.98348,3.98348,0,0,1-3-1.36005A1.53614,1.53614,0,0,1,40.45117,48.83371Z"></path>
  <path fill="#e6ecf4" d="M42.62134,31.00376v-.33a3.664,3.664,0,0,0-3.66016-3.67H29.28125a3.66376,3.66376,0,0,0-3.65991,3.67v.33H15.29126q.78,9.49493,1.58008,19h8.75a3.995,3.995,0,1,1,2.82983-1.17,3.99887,3.99887,0,0,1-2.82983,1.17h12a4,4,0,1,1,2.82983-6.83,1.53758,1.53758,0,0,1,.17017.19,1.52521,1.52521,0,0,1,.16992-.19,4.00218,4.00218,0,1,1,2.83008,6.83h7.75q.79487-9.495,1.57983-19Z"></path>
  <path fill="#f3445a" d="M19.62125,58.79375a3.2782,3.2782,0,0,0,1.17.21h26.67a3.40565,3.40565,0,0,0,1.16-.2v3.19a1.00721,1.00721,0,0,1-1.01,1.01h-26.98a1.00721,1.00721,0,0,1-1.01-1.01Z"></path>
  <path fill="#d8e0eb" d="M12.62125,8.00375h30a5.91006,5.91006,0,0,1,2.81.7l-9.3,9.3h-17.51v-4A6.00475,6.00475,0,0,0,12.62125,8.00375Z"></path>
  <path fill="#cad1e1" d="M12.92125,23.00375h1.7c.14,1.67.28,3.33.42,5h-2.42a5.99835,5.99835,0,0,1-6-6v-8a6.009,6.009,0,0,1,6-6,6.00475,6.00475,0,0,1,6,6v4h-5.7a1.30382,1.30382,0,0,0-1.3,1.3v2.4A1.29741,1.29741,0,0,0,12.92125,23.00375Z"></path>
  <path d="M55.32129,24.00391H12.9209a2.30185,2.30185,0,0,1-2.29981-2.29981V19.30371a2.30185,2.30185,0,0,1,2.29981-2.2998H55.32129a2.30184,2.30184,0,0,1,2.2998,2.2998V21.7041A2.30185,2.30185,0,0,1,55.32129,24.00391Zm-42.40039-5a.3005.3005,0,0,0-.29981.2998V21.7041a.3005.3005,0,0,0,.29981.29981H55.32129a.3005.3005,0,0,0,.2998-.29981V19.30371a.30049.30049,0,0,0-.2998-.2998Z"></path>
  <path d="M47.45605,60.00391H20.78613a4.46453,4.46453,0,0,1-4.42383-4.07129L13.625,23.08691a.99955.99955,0,1,1,1.99219-.166l2.7373,32.8457a2.45424,2.45424,0,0,0,2.43164,2.23731H47.45605A2.45426,2.45426,0,0,0,49.8877,55.7666L52.625,22.9209a.99955.99955,0,0,1,1.99219.166L51.87988,55.93262A4.46452,4.46452,0,0,1,47.45605,60.00391Z"></path>
  <path d="M47.60938 64.00391H20.63281a2.01386 2.01386 0 01-2.01172-2.01172V58.794a1 1 0 012 0v3.19824l26.98829.01172.01171-3.21a1 1 0 012 0v3.19824A2.01386 2.01386 0 0147.60938 64.00391zM15.03809 29.00391h-2.417a7.0085 7.0085 0 01-7-7v-8a7 7 0 1114 0v4a1 1 0 01-2 0v-4a5 5 0 10-10 0v8a5.00589 5.00589 0 005 5h2.417a1 1 0 010 2zM48.62109 19.00391a.99943.99943 0 01-1-1v-4a1 1 0 012-.00977v4.00977A.99942.99942 0 0148.62109 19.00391zM45.43066 9.7041a.99836.99836 0 01-.4707-.11816 4.89579 4.89579 0 00-2.33887-.582 1 1 0 010-2 6.88049 6.88049 0 013.28223.81836 1 1 0 01-.47266 1.88183z"></path>
  <path d="M12.62109 9.00391a1 1 0 010-2l30-.001a1 1 0 110 2zM36.13086 19.00391a1 1 0 01-.707-1.707L51.544 1.167A4.0051 4.0051 0 0157.208 6.83105L45.31836 18.71094a.99989.99989 0 11-1.41406-1.41406L55.794 5.417A2.00532 2.00532 0 0052.958 2.58105L36.83789 18.71094A.99676.99676 0 0136.13086 19.00391zM51.37109 51.00391h-34.5a1 1 0 110-2h34.5a1 1 0 010 2z"></path>
  <path d="M25.62109,51.00391a5,5,0,1,1,5-5A5.00589,5.00589,0,0,1,25.62109,51.00391Zm0-8a3,3,0,1,0,3,3A3.00328,3.00328,0,0,0,25.62109,43.00391Z"></path>
  <path d="M25.64062 46.00391a1 1 0 01-.00976-2h.00976a1 1 0 110 2zM43.62109 51.00391a5 5 0 115-5A5.00589 5.00589 0 0143.62109 51.00391zm0-8a3 3 0 103 3A3.00328 3.00328 0 0043.62109 43.00391z"></path>
  <path d="M43.64062 46.00391a1 1 0 01-.00976-2h.00976a1 1 0 010 2zM37.62109 51.00391a5 5 0 113.53223-8.542 2.42148 2.42148 0 01.28027.31836 1 1 0 01-1.625 1.166 3.04235 3.04235 0 00-4.31543-.06055A3.00245 3.00245 0 0039.749 48.12207a1.04274 1.04274 0 011.42188-.2666.97376.97376 0 01.2666 1.36621 2.48765 2.48765 0 01-.2793.31934A5.00687 5.00687 0 0137.62109 51.00391zM52.95117 32.00391H42.62109a1 1 0 010-2H52.95117a1 1 0 010 2zM25.62109 32.00391H15.291a1 1 0 010-2H25.62109a1 1 0 010 2z"></path>
  <path d="M42.62109,32.00391a.99943.99943,0,0,1-1-1V30.666A2.66527,2.66527,0,0,0,38.959,28.00391H29.2832A2.66528,2.66528,0,0,0,26.62109,30.666v.33789a1,1,0,1,1-2,0V30.666a4.66788,4.66788,0,0,1,4.66211-4.66211H38.959A4.66787,4.66787,0,0,1,43.62109,30.666v.33789A.99942.99942,0,0,1,42.62109,32.00391Z"></path>
  <path d="M38.62109 32.00391h-9a1 1 0 010-2h9a1 1 0 010 2zM47.62109 37.00391h-27a1 1 0 010-2h27a1 1 0 010 2zM40.709 40.00391H28.62109a1 1 0 010-2H40.709a1 1 0 010 2z"></path>
</svg>
